<mxfile host="Electron" modified="2024-03-04T21:23:09.604Z" agent="Mozilla/5.0 (X11; Linux x86_64) AppleWebKit/537.36 (KHTML, like Gecko) draw.io/23.1.5 Chrome/120.0.6099.109 Electron/28.1.0 Safari/537.36" etag="aCEeTCAp74tZgbxzQYXW" version="23.1.5" type="device">
  <diagram name="Page-1" id="t4OS0fklI8fcoilZjpSv">
    <mxGraphModel dx="1364" dy="843" grid="1" gridSize="10" guides="1" tooltips="1" connect="1" arrows="1" fold="1" page="1" pageScale="1" pageWidth="850" pageHeight="1100" math="0" shadow="0">
      <root>
        <mxCell id="0" />
        <mxCell id="1" parent="0" />
        <mxCell id="wRzPRa4af3Hkha_KK0-g-2" value="" style="shape=image;aspect=fixed;image=data:image/svg+xml,PHN2ZyB4bWxucz0iaHR0cDovL3d3dy53My5vcmcvMjAwMC9zdmciIGlkPSJrZWl0aC1kaWFncmFtX3Nwcm90dHlfZmlsZTovLy9ob21lL21hZ251cy9udG51L210dGsvaG9zdDIwMjMvcHJvamVjdC9sZi1mbGV4cHJldC9zcmMvQ29udHJvbC9Db250cm9sTG9vcC5sZiIgb3BhY2l0eT0iMSIgY2xhc3M9InNwcm90dHktZ3JhcGgiIHZlcnNpb249IjEuMSIgdmlld0JveD0iMCAwIDI3MC44MDAwMTgzMTA1NDY5IDk1Ljk0MzgxNzEzODY3MTg4Ij48ZyB0cmFuc2Zvcm09InNjYWxlKDEpIHRyYW5zbGF0ZSgwLDApIj48ZyBpZD0ia2VpdGgtZGlhZ3JhbV9zcHJvdHR5XyRyb290Ij48ZGVmcz48c3R5bGU+QGZvbnQtZmFjZXtmb250LWZhbWlseTpPdmVycGFzcztzcmM6dXJsKCdkYXRhOmFwcGxpY2F0aW9uL2ZvbnQtd29mZjI7Y2hhcnNldD11dGYtODtiYXNlNjQsZDA5R01nQUJBQUFBQUdKUUFBOEFBQUFCTWx3QUFHSHZBQUVBQUFBQUFBQUFBQUFBQUFBQUFBQUFBQUFBQUFBQVAwWkdWRTBjR21RYmdZRnFISXcyQm1BQWpXb1JDQXFDeGpTQitpTUxoMUlBQVRZQ0pBT1BJQVFnQmM0dUI1Z1RXMjhIa1FDNmJic1drRUhwVG9CczFmZmFmUTRYMEdNYmwwclBqYTRsYjJTVUNuYnNFZEFkUEw1NFVHMU45di8vLzM5ZU1obGozUTY4YlFCcVdGYi9RY3pEVThRaG15MFFTR1Ftc3ZjK2VrY2s1a3d6RzN6c2FRK2RiUVI3aEdOQzVveUNSYTdnTGhwVXo0TEIyK3ZHTlJ2ZXZKZUxlb1ZFMHpKOXUrdUJibTZzOEF0TEdDZC9VT2R5NXRocHEvQzZ4bHFuYWR2NzBPOGFHTU8yN2JaRVlwalk5bC9CUDVXb1pNNjltZjgwUHRXTFZPS1FDWGRaR1RFWldVa1FrMDNKelhMMnB2dTBZVlZobG1TZHdLR2ZWYzFkbFYxR1JDVWhXWlVGVVRWOTJRMHh6VEJoUWxRbHFqWVd4dE9NejN2Z2VSeG8xYi84TERwNFYySFNGSlUyTVBpUFNyOWFkL0U2d0c1aHY1aGtNQlV2NVRCUCtPOGIrOTAzKzNXL0NpYmFLSTFNMUVRaU5EaWRVRWtkSXFXS3pzL3pjL3R6NzR1OTJ2WVdyQml3RFp6UW93VU1RRUJRZWlncHlBQUxVTXhBRzdHd0cvdEhnZDh1ckNpd1NMWDl3MWdiTDNoMWxwemltWlJiU29xaWhYK2V4Z0hmdVc4K2pKQkFMS3kyRHNWdCt3OTFhYzBRdVZsanRLTUdHeXFnWWtPNkNnZ0tBcnNzclM1SXM0QzlZV3VwbmlhbW1NVHpjaVVtL2E0bjNaUjJ1YnY4MWJUeXVaTGtQK2xYcWhjVElPRC8vLyttMnIwelV1RmV6ZnFIZ2dRUEpJMUpsaE41ajA2M1FNNmlwdjJiMldWWk1oVElFSFBDRFdETFR1VFVNOUlDOEc4SDFtVXZIOXNXMGtGNDJZUDRiR25YVkI3MkllRkdmRk1ocTk4VnhxYWdIdEVSTzJiUnR0RFowOVJKaFBoYTBobnFnL05XY2oxRlVCbXlCMmpSSWE1UGdBQVFER3p6R2tMR2VoQUlhYm1zdWNmdmIvSXplWnJZWVhxSUJibktWb0lFQ1ptbWhVeHVsZ3hCUnZXeTR5dzhRY09jL25kemxva3IzZDhMVVJKSmpNWVdYMm1JcUNRSUhpVisvN2JkZU50d0VSQUZLTk81amlESXhYdjdHenhjK3ZlTFU2VzN1VHdWbE1ZN1gyMzJYYXVUL1BmSktyUEsvMnVXMlp1OXUrdnRVRlZOaCtycVF0Sk5BblNNTUVac0hwQ3haSlFtVWhReGFHQm5JSnVzcUNRWnkzelBmUFA4VmJHVGlGeU9lenlLSC9kd1BpLy84SCtab25QdDZlTGFmc2ZVcWdHYUU0NVl4YUMxaWpISjN5OU5xWjdsZGVucjB0RGQzQ2lsSzRXN3NSUVlRRW9mTHIzOXErZXZ0Ly9rMHZiV3JTbHliLy92U3JlcXFZMlhDcGpzbEZLWUMwckRtVEFURU1EREFxQU4yTUVnSEJ4QU13RUloNWtHbnEvOWZoa09aamRCSlRXeldHRC96dXp3RDNoNm9VUG9Zb3Q0WXlpRmtxazBXc3lXQ3l3eWkvODFLNlZ1bjFobEEySUNna0hndnYvbEYrM1RMK1c0RmRVVTN4b1lkSGUzZXR5cnljMXlFMFF2bnFlZC9DenRMcEN3dXk5ejI3QmRFUzBRblY5T2UrbFB3WmxBR2h4SXZsZGxiZDhwclZTcWZTdHBkTHB6V29PbDhRb3pBVEFReHY5Y05udkQvNDllTFIranM5YUZUWEt0Wm8vV3g3ZXFXdDJWQ0lsdzZKc3pGaWRJUVFZaFJKMkdWUkVmTDlkQm1HQktDSWN4SnNQdmhqMHYwZjEyVjBkTEtWS0tGQkZ4SVVnSklUaDVTSEhYdFl4TllzT0xTUmxKemZ2ZWYvWC9QZEQxcGp1TnJiVlN5aFpieEJJUkViRnQ1ZjZkTjB6US85V3NxSE02ZFV3NkpMbG5qYXhuZkN6bXBLMFVrMkhxdWRWY3lnWE9PaTZpVXlMdHZjY24xazFqV28xcHQ1L3NKdGRhaWgxVUZDTUlLSFQ5L2lzZkVJRFgzODNEQVBEeWJKWTNBTHk5NjJjVkNKQUhyTXFDMFZBRlVOMHJSRlRVU2FoVG5VSjB1ak53WjNzQzBjRVlJb1NFU25FTXB5Q1FRaWw1R3NLL2FORkFHK0diYjAzT0F0a0xuanE0SDVpUUFMd0ZmbkphWENUMmhzZkZteUR5cHBpc295WlR5VjB4ZWU1SlMzWnZjcHdIMDFJT0hoSDNpTXd1SGpGaEhKVjgra3NHVllIaCtXVUQrOEV2a3l3SHp4ZVdhd0g0OHpBWFMwS1BpZU9mUWhKRm9PWXFSRnNJSUcxZ2dKVXdIMkVNWnVVZE1PWEV5K1QxbnU4RFY0TXQ0U1lnQWJyczNVQUhvT3MrRHhBT2hjSkJKdkhRaWxWcm5yeDQ4K0hMajc4QU5vR0NCQXNSS2t5NE5pSkVpdEpXT3hOTU5NbGtVMHcxelhRMVpxZzEweXl6elRGWG5Ybm1XMkNoUlJaYmFwbmxWbGhwbGRVT0dPdVFJNDQ1NFpRenpybWd5V1ZYWFhmVGJYZmQ5OUJqVHozMzBtdHZ2ZmZSWjEvOThFdUxhRENaTFRhbjJ3TXg1VkkzYmRjUDR6UXY2N1lmNTNVN3JnK3lobTN0SkZMM2FvMVdIL3pZQXhMUUwwRzZiZ29VNkdtd3NXclZXV3l0VXk2NDZxcjczdm9lZzJSSW5XdWVoUldYcllxOERjUGFieFZ0QzlFdUlkb1JaaGdaVndoT1d4QWhrRUNQclgyRGZzYkFIWXBLZExKQkEvN09IRmZUcEV1TExoL3Rpci96MWFlNk1lLzYrOTBZdTFrVmIwMmhsUDJqNHh2dVJqYnh2eEEzNnRjVElmQWhrZWtjTGRUMVU5M2dCRVd6cTdOMkF2dHU5ODkrMkRtQjJIKysrLy8yWlB2OVFNSmtlTW05LzI1SEpJTFBpZGlIbGZqaFVBLy82aEVuR01raDQ4cktsa3FsQTNWR1NJZFJYTFhIRWQrbGJoSzYzUk5xV0FFU01Dd0VnUUNPTzhDZDhUZ0lvRWFoYTRkeEdTS2h5U0dLQ1RVcXVERkJqUXV1dWdMcW9XNkduS0pTK3lkTTZYRGdkTWNBQ1NqekZpMVZELzBNVitQVUJtUDFmaTU0Nm5zaVpldmdUNi9QcGR0dHExTFBaTUlMZXE4Z3Zla21yZnUzanVoU3NkQU1ERUlLOSt3T0x0NENiQmZPbDlWSjRhK1dKcEdCK1JhSUtITGM0SFV6RzViK0RPbHY5U0Nrd3pkNHdjY3I4R2ExNUMweXhXQ1h6WFBiV0dydlVFZ1VQWXE0UnhGbytBNDBncGpLUVkwZ1dVR0dYSlRrS1htKzVYbENSRjZpSk1tUzdVL252ZkRLbXdCZFdPdUNDeTBUUHVaNkpJakhIYkdZazNiQUpXb0hGdy84Y0hEMTZNaHYvWXRINW9Ha3NYbVYzSTNBemxaL1h4RzcxeUJXOTNLQVVURzVmQkpPcXdnbmp5Q0E3aW81UFlFeWFwUk5uaVN0VmJYSXFWSkdXR3pHMGd4UDhUTnljc3loc3R6QUFMZWEraGcrTVNySEtjTjRIeWtwVFJPd21mVHBuTVUwbkZ3OFJmREdleHdPSGwxdWkwcXRzSXBwUVM1eUo1OUVXVjlOc1FUb2pJam43NGhtbmpZeWxpMDgvVlIwYzhFKy9SU1lDb2JwYm40TEJSVEFDTnBwcGlvZnlwWTBYSkN6ZUtVSFYzNGFGWjNla0w2eE5SOSttWVdOZ0ZHa1BGVkdydUl3a0Fsa0ZPOVk4Wm12RXdSV1U3VVJzVkM5ZWtibm1DOHNHWTVKMWp5Mkx3WWFDZlFhdFVzMXh6VGNxTXRMUThuUThCMjBPaDVLM3NzOTRHSVY1YllkODgwTE5oQkNLbDgzYzd5NjNXVGFIN2xaN00wUmdBS3FidWxwRG5JM3YwZ0lhV3ovamtzQzd4NkoyYlFDWlN1UUtZNEt0TzRXMStIdzhJNXpTTU16dG0rYUZCK1F1TkJKYlZXdjVoeUJIMTVSbUpXTUdpTTAwMkZJOEY2b0tkcTByZHk1UGlBcnlZMzhvYmF5MnJnTHFIK2Zhekl6enpJbnR2ZnVHMC9oY0pGcDhVRGpURFJpdTNXMjRFeDRPaHhMNkxLcmNRbXBISDM2QkZITHlZZlcwUWt3Sm9RdzArZWpMSnJDU0N4Z1l6cjArU0FoZGhBaWp0L2ZWd3crSmtwNUlwWGlCR2RUZExQdURqS2JQaDdkVU1pUmJIdnN3R0pGK3hDZkpuTVRlVHlTZi9nU2FFSXBwVzdiVTRleFpvVEVmdldiQzQra09RSXlISXUyZHVRRWVMWDF3SkNxNUVKRysyT08rYWl6SXRucGR2TFJ1a1A5VUQxRWxMWkdLaGJDNVBYcTJneXpLZGZxRDJLRnRjYnpSUEJDOGg0cFBuelIvREQ4c1FKR2prMGdXaEJlTUVFSVhpaXBNRExoNU5vUVJWQ0pwQkJGcVMyVmR0VEs4YXJ3cGlGTWZ3NnJNUk5obHJsb2RjS2JOOUxtVzR5M2RPUXRzNUpvRlpWanNCT3dVN0F6c0hONEYvQ2FFQzRqWEVXNGpuQVQ0VFlES0hkUjdxTThSSG1NOXBURWM3U1hhSy9SM3FLOVIvdUk4Um5qSzlZUG5GODRMVk14dUZEQVJRUmNWRUFuQ2VqWWdFNEk2R1FCbnhnK1pmalVJZEpFbWk3U0RKRm1qQ3pYdGNVVWlhV1VYUTlFbmpYeXZDUEdXQU5XTEZsbFljZkdqYnZMUXhUbFJwVWdxb1JSSjRvNlNkVEpROWNwZkVrUjA0WW9KWHhwa1pVUmVZNG9xb2lpcWlpcWlhcXA0Qzc4QndNaE9zL2dLeVh3OXhZUk1DWkNLNjBaT2ZFVUxwU0tubzZTV2xHYjhQZzZnZ2VFZ0NEM0VFUCtFVEdrK1pER2ttQ3d2QUFWOXJJUE1QQmx3WEVEY3NCa3NLRGM1bllXQW5jeVVyNDJweTE3cmVNMkJVRC9TWkNhRXdCU1RkNGdQdnFGSTRzMHdQbUFFQ2tnb0ptTnhPY2c1Y0pOb09XZkQ2eFRnblJnUURCM3dYNFVzTEVlL0xLWFFHalFpYmdCaVVBZy9MQTBBQ0R1YndBZ1lBbGdSa3hrS0FOc0hPRFlQQnV3cTkyaVMwZytPMXRjUUJIZ3JnSExhTUhwN2lTa1dGRVR2SVFFQUE4ZmcvaGpvb3BrQVpFUjhTSHgxcDRGd29JN1lVZTIyQUIzQndhWnRYSkdFK3ZYQmZIU2g1eVo2elZxV2NSOUpGNTZIakpsSVBrc2xhc2FTcDd4VTJXTU8zM0c1dFRZQmZqb0EwaVEvZWdSVmxwaGZjQTlGc1NQdVk0RDhDMkFBNU0rQ05aTE9nRitRN3c5K2lLQ09UNzFCT3B0bVV3ZTYvNndOeE9uNkwvdWZldU5Ua252djVQeC9hb0ZjWnNEUmgxeldUMk1NZGVydFlwQ1Z4dU9OWkxua1JnbXQ0ZHRqSWhka1ZYTmZYYnNEalhzZnJVUjRML3pEVDF3anRrQzFlVXFjMUZMQlAyeml4R0YwZDJyeEFrQ3o3c0JtQkV1M090TnZROVp1aU1EQUVWR0NBeXVJSWQ1UnFPa3daU1lDUTRhanRqS0hQOW9xZ2gvTjFxQzRqUkhyeTFuTEU0RjRWQk4wd1dOTFJTOE84bzBSR3QrTmN0ajQ3TklFaU5vOEY2bmpZUXd5Y2ZGNGJtSG9ZU2FSMTViNXNTNm1TdlR4dVpLT09JTkxTM2MycnFmenlUaG03S3M5ek11a1dWRmNMR1VEY1U0RFFyanZOWUI0dmdNMFJUajJzUUltMmltaVpSU243TXhTSkJGWnd4TFdFZFE5ODVRTXRhcnFETnlJUWJPK0JYRjBabHdHMFVDZGI1cUtNVTZzWEMyVUZhMGRLb1hHWlRFdmZkaGJPTitLb3lqUWxNdDlYMndabkMyMERpLzJCUlJOZWFGcEtxc0lXSTJaZUtGa3dEcmhKQ0lrb1RXbVNnWklSVWpiU1Jrc3VOa1lTbEVYUW02a2NvbWwwT1VTeVdQVWo1R0FaWHVuQXlGRENOYU0wcXR0UW15R1dYTGMxaTk3U2c3N0NieG0vQitINUUvL0lQMzM4aHA4RCtGdmRUMjRleW5kaEJ5R0hJY2RoSjJHbllXZGg3cEVzb1ZsR3NvTjFCdW9id2c4WXJFR3hMdkVENFFmUmtsdnZtTzhST2hlU0tDSUJFZG9MZ0FKUS80Rk9GVGhjOHBWTm9JNlNQa0hDR1h5SEtMTEhPa3VVZFdxOGhySFhrK1VjUmNXekxMbEYwMlRwemRIRVNNSDJWNVVaY2ZUZUpvZ3FJSkRsdGNVQW1SbEJpK3psR2tDMVZxK05JakxUUHlla1NzTlBKS29xd3l5cXFqclBhYytyZXdySTh6MXV3cUFXRTcrWkl6d2VLbG42Tk5wS05oQTZ3S0VNcVhQNVlQUDFwYUFNQWtMNEdBS1FCdTZUTHc2UTdpOERwN1BNSDlzMW5LQzJiY09qMFlCVE41U0FPVWNXN25Sa2xGZ3FZZVlUL29aUEZpR1VtZXI4REEydWZGbGpaS05xT1IwWlpYRG9BVlVrZ0pqRndzL2ZrdW5MbWtBNzFNVkV5WWFRTkx6cDRGZUdrd0R1Z2QyT2Y2WVdtd0FrUHhqc0U3ZDUwSzhwM0p0QVBRdzEzTDFHekFyalpHbHdDVm5RZGNnQ2pCQnNhbU41aGVnOUVJTU42ZEV6MStDZEI1QUF5cS9NVURpQStKdFBaMEtSZmFId2JCVEN3VGJlNUgwVGtqMUN1K0FmcFFCTTB1alR0d0ZwTDlmWkhRS2dmaWdLeXNoYkNOclVnc3NaZks1QXFsZzhxRlMxZXUzYmgxTnZtWGw0OWZRRkJJV0VSVVRGeENVa3BhUmxaT1hrRlJTVmxWVFYxRFUwc2JCSUVoVUJnY2dVUmpzRGc4aGVxM2JXeG5zamlhNnEvMzlUY2UyR3AzdUF3dklrd293M0s4SU1xS3F1bUdhZG5QR3hSWUNXMUVZbnVaQndURmRMai9sNXNTRDA4c0VuQnJGcElVT0gycXI1SDh0eWkxa2Y2dVlQV0xocXJHcDdkSytBcDQzYUZYNm93UldFMm9QY0g5djlISURoSmx1a0Q4NG50aFJBaEhpa0NMUW1tTDFtNlVTSkNJMFJramhTQVRJd3NqQnlkdjVFMHdGYklLYmN1c1pPUXlWalpkWlhNVnRtRTBNamdIQWprVXlKR2NwYkN3c0xBTjR5TFFNQzVoWGNHNmhuVUQ0eGJXSGF4N1dBK3dIbUY5UG9ad1RtS3gySmdKUHdLQlFDQWpjdzhYUDhOSG8wbElMcWxqQ0pSNHNTa1hPN2RIbk15ZWhaQnZlSHo4OUQ0K0Y2ZHJiQjQ2WHJpTFhTUkFTQ3ozOW5RQ1BvUUJFaVNPSUZkVGNBV1VqdVplVXR5T2VvdHR0ak1OaHNZZlBRTFpzbFJweFdKZThTbysxemZxOVZTT08rOENhQVltRlEyb011OVUyd1oxLzUzY3hkSGZRSW9MdXEyN1lNZ2c2WkhiQnFMdFhTT21TekY2NEZqK3ZPVTU5S05uSC9LSEwzamt2VFJvZDUwT1VUMDJsWEcrZVdxS2djM21hVXVkWGJxeU9QWisyeU5mOTlhWi90MWIrbGxqYkZjLzBybE12b3NtSjJJTi9idHpoeWcrd09jd2hRNnM0d0J4Miszc0pjNlpGczFmRXR3cEJyZzQ1M1JIck15QTlCcmlTbzlYZnVUcDhGaVZsRFpPUWc0UmtSUVFKYm4yT0Iwd292RmlpUXF4U2dncVlXTVFxbGRsRFc4RXNsR2hHbjBQL1p0RzExN0dOMzYzZWdSVkU5eU1qWTU4MmIyUHNLU3lRTGVjVzFZRXZ0ajlDUE81S1FUNXNGZlZudVh6YUVyZFpITEJmbHZ4TnRBUSt6ck9USkhYZXRsVC9HYmJVQk12ZkhrS0NJdEdrQUt5dExkUEFkclVLUldlazZVLzM0a0xweVZBcmo5bE1tMmc0T3haQUt2Qk9DQTNzT0g2WVduUXJrVjNqWGZ1ZFVybU81TnByNlp2WjhscHdLN21vMHM0d2c2YUxnRW0zaldnU3d1dTZvekFvTUNBS2owK0FEb2ttS2pFQWlJallxUGtlQzB2THJTM2dqSTEwdTdzTXMwVm9uWUtMU1Fya1JEbnF2OTJjaUlGSlJldTJ1c2dXcXhDSlNxTlVWMi8ybERSamY3TGFwb0I5eFFKR09RSlljQW50MnZieG5yeUxoblBwak4zUUt3UWIwZ1FKQVFTQmd0SGlCd250M1lTaVVqeEVDa1l1ZzBLaUQ0UlpRSkNSWVF4VnU0a3cxRHJFK0doTmlpQ1JDMVJoSW9ZSVl3eDBoNUZ3S2hWaXJCUjJ4VEJveFlxUXNpc1JrUnRiWWRZUTdFTVpZUnFESFZMcUlRQ2c4RmdDQWtYSXRtVXlJL01SbTArQkkrWTRaeGN6ZTAvMW5hVXFZeWVxaElrdjc0aHFNTEcrZ2lBWG1POW9nUXBjYzBZc2U4WGd2a2dkczhGQ1daNE44TlNIdzJEV0FnTGZsUHQvQVh6K0c1dk8xYnNZbEx4b1R3MnY4MTZyT2pSNGoxVGZTOWRHdjVUUEsxZmFGTG5DTFQrREFXKzd0SDZwZnhiYlhBMlNXSklqaEFhVlVtV3pWZldRUkJ2bHhTUXhJT0VhbWh4c3JCb2U2RzlYazJ6TTY2c2FGM2o2cGFuak5mZG9aejZEcHBLVVE1Rm0wdjRFM3ZadXQ5VW9KNXh5eEc2ZGZadDQ2aWlISTg0R1hHNkhjckJRdE9FRU5vNEdrUWphUGhNalRiSmQ0Mmw2QW1ReGF6djRCQVhVaVJObW9xVWlvNktpTW83RkJsU1pabzVSV1ZCRldwVTFsUWhTR1ZZRlpwVVZoWXNua0VWdU4xRVdrSW9LR2pvYmpxbHFJZmJSQ2hsanI4TzlTUHVPRjcwcVhQcTdKcXRiZXhTcTRMUlFzWDRtYW0zQUYwV0NPWEdEcWdoNERjMVJqeHV3VzR5bWE4bWpYTExHdFZQZ3NnSWtuaklMVkpxbHBFRlpPNlpkZUxMS29uNWJXVC85Zzl1VGl2aUVCb0VUOXlFNHV3OTVldHZBL2dnTEdDbE11Q1krS1RVak95OHFEQmd4WVdIS2hwb281dEJsa0hBb1dEaEpVeVNQRlhhNExESW1QaWsxSXg4NXFmWThmeEtiVU56VzJkUGZ6V2F0RmxrbVRVMjJXR3Z3eUpTQ21vNjlSczFiZEc2WFVsNVZXMURjMXRudjlvYzJmYWk2Ym5GbGZXdDNTblNoZWFvcElycWFzbGJmNk5oTVVrWnVRc1dMMXU1WnYzb3hQVGM0c3I2MW9UZHdNSVhFWmVZUnN2aTVVdFZCcXZMVTlYUTFqMjRqT0FVeXh0TzVxdHRuSlZOUDYzSC9aVUdHK2ZESXlGallNc2xKcU5oWWxPa1RJMG1IWG9OUTFBRUdpZS9xTFNpdXE2eHBiMXp0NTU5K3ZkVmMyVGJDeGV4bENpeGlyOXpvYklBS2hHZ2VnSlVWNER5QlNnOVFQVUZxRUtBekFFb0JVQjFBYWdvZ0tvREtBZEFWUUpVMjZ0T3hjT0RYQk9BOVFRUTB4bi8xRlA2V2dMcUlteXFETWVCY1FESHhDbWJYMG1iMnJkZkRuckJWYVExWXFMQ3hJTiszVDNyWU9zY2ZGYzNwM0IyZnBoTDdsWU1UK2VIWWsrRkFxZERnWXZDWEtUZGtnSXZlM3BWUGVNWEI3cWl4M2RoZFBTZHUyRzhZdVB0UWloU1BjZzRNenkyVWl1RHFrM0JWampxS0oyMjI5MWVORGwwOHFvZEpWS3E4VGhoNit0NnVidjJxbElyNEtCMDRyZXEvLzhzRkw3Z3ZTK0F4YU8rcXNlSGwwSzlYbVppYnBhMGc3di9Na1ZUSjJVb0R6NmRyTjRhMHYveDhXcGpyZGZtZFQ1T2xIVmVVOG85Vy9LZjE0d3JEKzBBcDVJWnBPck8zUVJUQkp0bW1qWnF6QlZobnNWaUxMTktKMnR0a3F6ZWJwbCs5NDg4LzltcmgvME82K21ZODhvMXVXYUltNTRZNWJrM3BucnZtNWwraEdGQkZPSmhSVEtrc2o1TlNlcXpsT3FQckdYNEsrODQvaWtzeUlFNjFzWHBVck83bktNK2JuYStpeDVDY0lXZGdnRVJVSVoyRWtBN0VTQkdHb2dIQVVKQ3U4c1lFRlJoMXNkQUxHNkV2K1NnMTlwTGJla3ZwSlcvNm9CVVNobkpIRGJTeUFXZTN0Nk1sTzY5ZkRzNXowN05Uczh1bVoyWm5aMmRtNTN2RnI0clByVzRZakE0bnRHdmZ5WDBmZGJBNGhLb2VrR2ZYc1V3OGdYOVN5cGcvTUVVYXFsak1TdFpULzEzZHIyb3MzSWcvUFhpdHRKKzBQanl6cXBCY0FCZ0FFMkhVa0NnYlBrcUxSd0VMRFFVR0JJSkRBS0tSSnhxbm9hL01PMGx5cFRIb2ErQlJwcWdScDJsMXFyM20wWkhuSEhaN1VLOGYramVNQTBhWUEydTdpeHQ3QlFVVms5ZC8rL0RSN0JFUzIzcExLTmxzb0tzU0N2V1M3QnJKbldxYktsMmRpR3RPaEZYOS8zK0x6L0Y0Z0FMb1cxQ1JSZU1WbEZiNTlqTk1ycTAwc3NvczZZdWRia3JYZTFhMTd2UnpXNUJ0SlE4K0FrU0oxbUtESm1aU2k2dDlPNTJwN3ZkNjM0UGV0aWpIdmNFVW9CallPTEpwbzMyNG5TV3JodmM3Wm9RUm5XblN3aUR1OXRsaENIZDZ3cmMvYTdDUGVnYTNNT3V3ejNxQnR6amJzSTk2ZGI3WlhPQTZPUzNnWnFOcER3VlpHY2s2UWV6SlhBSE5RT0VaYnNPY2RyaGpiaWlKVmdCQWpaaE1pUjdxTEljTDFHREpZUnVjbTVya3k4SE1kMG9ndzFwbHF0UWM2S1JFVC9KRHZyVDJtK1BoS3FVYWNUa2xNWjhJK3o4OVJJTWJiVHgyaWpZa3FadVlVeHRrTWlXZVlpamlSU2ZFQ1JUd1hTaUdSaE42QXdzcmRPd1pBaVNCT1BnTG5RUmd2bEpnYmdHV00weUFvODRMVnpFQXFSaFd3dVpDcVAzS0ZxWHNvbFQvVXhsYjAxT1FGT291R1RONUFET1hwT2VKS3VnMzgwTXdScjg3cHpla3R3TjlqSHRsbm05YVlERVJhMDVCK0FCZ0RadVRBTWlTQUlEczBzU29GMzRKSDZZTUpySEVMaHpWYks3Z0V2UktDSEdOcTY2bW1yQnpzT2ZDM044YmkzbElxODlxM0h0TzJ1eTZ3ZFRKSjFvY2pWWlRGYVR6UlJzaWpURm1ZcE00MHpyVGR2TVZQTHhabzNaWXJhYS9jMVo1a0x6RXZOLzVrY3BPT1dnbEtOVGpyTTRXUXdXVjR1UEpkSFN3MUxXNmtUNnFmU2ZuM3MvMDlMaWhVR3JxK3QwUDBjMy9QbDBqczlWd25ialhkK2JNQjFqMHBsTW41c1RZQW95UlZ6VGJzNDN6ekgvYnI0T3h3N1VEeXhOOU45cyt5Zjd3TjcxZGRyaEd3L0JMRE9ObzVYN1g2OS9UZmZ2RDczdlpaZnN1T2pzdTUxeDR2NlhFbmNmM3ExdFhHTWFXUDk2RjFmN2tyN0JuWC85eXgxdWQ2dWIzZUFTeDlqVEVscEFnWWZBMHFjZzYyV3U1RFg3cXIyanBIMm5qZjhub05jQ3pvSGVzcnZSNTN6VlRmNXI5N3VBblRKUDMrNXptY3M4NU9NKzRSRSs1Vk1lNVp1K2R4NE53bkVRZWlJSUY0V2VCTUxEb1NlRDhON1FVMEQ0NEtDbmd2N1h6VGZEMC96Wlg2N1BBWU9BeVdBSzBSZFdqQ0hpSkJxRkpNVUVaR1NUWmNveUJSdkhOSGtFYXNqSTFISnptN21HSU5Bc0FOUDJRTE1CVE84V05LZWEvY0VEYzBXSlVnY0haNTRVS2VZakkxdUFoV1VoQzZ0RkNwVllZc3FNRlQ1eDFDWTMzZjkyQWxpV3dBME5BZ1JvdE5SU2UwU0k5TDhZTWZhSmg3ZGZva1FIMGRFZG9xSnltSWZIRVJVcXoxSHVEc1krRGFGUGdiSFB2cnF2LzBMb00rRDlJNE0rQzM2Q2hVZC9BZnJMdzNCeDBCZWd2MTU4K2tGZlJBOEhBRkpQWXdWZkh5d3BGVllvbG9wNUdZY0hxY2hlU3RVVmYvdHI2ZWdaT0ROeTRjcU5pWm1GZTdGT2hEUVpZL1U2T3JibVVwYjlDeFhwb1JqVThqS1RaL3kxMnEyMHpscnJiYlRCL0MyMkdzcTJNVHZ0c0gvM3AvMlhmMlkyVHB5L3B5WVlxRlNaUGsweTNCcFZ5cHR2cUw0ZE1jM1NEaHJVMFk3cFpWZ04vZCtlaWp2VTgwNU1rYzMrVTYxRXZ3NFUyK0VhVlJyVFpBNFRUTFlvZFRHQkVOUGdaeG5WYVA5MjNQNGltMmhPTmMzd2ExOWtvaEdOcWJxcEpxazEwVXcxeFVLZVZTb01nTWRDNGU5OW1ROWxsVzlBMmVXVWEyUUY1ZFVWZ25hTEFrQy9CQkMrQ01JN3dkSy9BVTZlQkFEQUlZQmwyKzQ4UWlHZ09IYUFiUUxPZVVsc0VTSEd3ak9LUkV6SEl5Z3JFNkFXS3NOZGhpTkRxWmhVT1NZNkcvcDZQams5WGdzRjQyZ0dzb0M4OEZ3MDRSTmE4NllsMHU0aFB3eUlRWUlDbW11UmR6M0JERFhRazZpSUpLR25oRHJhTEVJTDFTVkk5SWNLdXJxa2FnajBSYzhNWDBPTmpyeVpBS1RuY1FnQUNhUkNzNksyR1VlWXJ0L01BdXRoWGJucUxsTHVNQ3lIVkY4NC9ESUpzTWQzaHljOXVDQ2xqVmNJV3VOTHQ3Zjc4RFNaaG90SUpZRDI4dDJabHN6NzVLNFBSL1ZoamhaSnBsV1d6MXhzNDZJTUptQzJrcVppamFaVkNnV2I0eFNzeFZTdFczWmZoVzJiNnhtbnhzUHUvZDVuNE0vSUh3NnVhZWRETXBpelFPbUxiRHZHS2pPTEZ3VHNyVU92bUwyVkF3Zll4b2twMkt2Y0pDclZ4VGU0aVpJemM2UlJkZ2hqV1NQUUdDQVFBV2FaNEJ0VkZCT2dJcUZJbGlJZk1Kc0ZCQUsrb1Fpb1lQS1QwaWMwa29EUUZ6L2gxZStzaVZVQUFnRTVkQUZCRWNWSm1BREZDc0hweGFoUDBEbGJKbG1uenRRTmUvempzbWJpUFh2elV2TEN0cXl6d1dXVXN1ZlJ5YzROajUzSXFUVjgwQ3JsUjNieWcrR0dFRVVUb21FYk1CS2szRFZxNHlOUU5TUWJWVExQSW93QmlBcUUxbTRlQlBKQzlFQms0NkJJcWJIZG9DM0JsVnRraWhqQzZMN3VpVWV6b0RpUUNUV0xVc0ZuZFBwTS9lKy9uM2xQbjRoNVZROVJJZ2oxaUlSUUtXbzNoQkNIbkMrMG9TM0pMb1FGYWlTV2FJRzhKeWFhaldBaUxTaXhXS0ZBWGVCSkNUdHluaHZ6NTl3ejUxVTJJbVJXalFCeWZveEhiTEQ5Q2pOdllNQVdBb2RXVTJsUm8rM3V5dkZaaHFocWN2NWh3UEw5dXdiV004c0kxMmg5VEt4Y2ZZdnVIRjBST0xCYjVkREFOQnZ6M2J1MXN2Um1mYjlpTTJIRy9YanMvZms4RUtvSVdJY0FxMHdEWGJBa29WR2t6WGc1K0hJU3V5N0VZc2FxYXNvTm9uK1RUN3Y1ZjhWRUNsUllKTjUyZTdzTDA5RjFhUzNMaDdXT0kwTTBjRzg1dDcyYm9JNmpaTHRyc3laOWVSYVhGK1FncmRyUlY0YkVZbkdGSGdqWUs2RlRWTmMrS3hiUktXbGsrRENZTElya2pvQ0I5OTlmL2Y3eElBQytBTnN0cFY1c1BqOUthVzcwN3FOemp3THVHSGRQRlROV3RlSWJWalNwVE5QMzVQTjhTRjZZeWI2UXBQeGE5d1lZR0poZlF1ZFd0YWZWaUErQ2lhZktJcjZxK1U2OEoxZ3NoMHBUZStYczRNRElpSlFTUXVtVFNtbDVXQ0dET0txbEVNZWxTQUVoSVNNRGcreStQN1hyZjNSdTgxcm8vcnI1NklHYmdyQmRSbnlEbXhOdWNabTBOQjE1Wm5CdVZkN1lFQU9LRDhrZDlma3U4b0REaEo3bUVOY3pEMTR2VkVGbENOVWxFUXozajF4ZEp6ZWZaa0hDVlhvTE54SWhlMDdOQmN5ZmZ2cHpCQXNqbUdLRGdVQ1owY0cvb01XTzdqRmxXeEFSaGFZc3NXWTNCdDhYWTE3VkJJOXFNSmQrb1NOb2dUOHpxTmR5OE5xK2FJSVA5L082MnM5Q3JEeDVpYVdTSHFWRDR1T0l2bDlzanUrbnZ1OFhsMGxVdlpyTGZib0JrMUNmc05HQ2VyVGcrWHBNTm1CQ1kvdFk0WDV2dm9lL3hjaUlEL2t1bnhpWVVLUmxnaitXdUp6SjRqWE9zd3Q1NjBGeGNkYTE5MDc2YnBtS0NLcmpHaFUvUCtFMVhiU3VEMjNmWXNub3BFZnNadXVJSU9hbEhiRXB4V0NmV04zSzAzTFlyOXQzK01sQjJzMU9qU2pFWVFzaXdFQmdRWlJ0bkJlMkhVZTdvK1BKZGlFaGorZXB6SXdZRkdiRE1qbkVZUTVKVittQkIreWh5UWFYV0ZsY1FOWHhLUmF4RTdLZ2pFeG5hcXN0R2o4L29RMjZIU1MyT085bWN4bWQ3azBOUE5VMi9nMWs4dENleXlvRitJNHBFNGFpem9kQXJKejJhRnZieWJDdm9zam85b0VESVErcFQ1UTNWMm5aMWExaWJTY1JvemdaSmpNRW5QcVQ2THQ4N2VHdDh3Y1ltUzdhdFRSNjdLY3A2UkNGQ1c4RU5aZXNCZ05hRjM3RnF1WFl1WW9PZDV1cnVYVzlQdDdKUnRyUjRYWWFxeW4rVG1Xck1XckZvMlRIV1dxT3hpeXpjY1RzbU1HWTlpZWo5QlZyc2tBK3prQWhoc1RYK1V5Q2tNT0VuRktDYkk1SnRLQk9zYlNRdVBFdWRoaWRMOWdQd1VDWThqUStKS0RuN2xIQ1BRRVUxakNxTmhrWkI1RUhpV0loS2FnUGswa2p2YVllUmgwaUhJV2pwTzFKeVpGeGthQzJkK3R4UDI1aE05RTJ5Q1RrSEJnNzVmVlFKYmNIWXBDcVZFSzhRL0N4NDhnR0E2NHZMTVhlcURXc0RXam15RVFwRHZ1TjIxc0pobm9HTXRVbVgwRkFzUDltVlJyRE1JY3ltKzVZUkZOT2JXajBOUllxTXgwNCtFMzVGbWE0cjRQQllwaDFsdWVSQ2Z0ZG0rRVd5dnlXVDJBTTNVOFJaa05BZTVWbWgwSUNFL0p4bGNuUU9sLzAxa2hrbFhQSnlVZWJGOUM1ZFcxTmtjSDNkK3dldVZkQjIvdWRzd2tGRWpURWthWVpiSWZNQUhzYnhWV3JkMlRLY1ROT2dPTmFmNzFpWE5Eb1Q5YXk3NDVOejYrcWVwb1VmME1VTEpOdHhYS2dZa2lyV2NSSXRTOW85UlJTMTBiYnhuYzRRNnlKTVVXVGFtTnJGb3NvVUxDWU51NGpuMTNXQno2VUdkMzE0U01vSTJQZjRETVNTOG11c2IwZmZiRXNwakFJb014ZFpwanJvbVg4Rk1JOWVHTWNqNE50K1BaRVJvVmJRakFJeVJFem5Eenh1SWtKNzVZdVRKVytBTWJycFpsSXlMbDJnNEFoeGZsNkNTQmV3VUJBK1FaWmtIU1BDS1h2b2JOVG5aUUY5ZzVyS2M2QmJmS1lHcGtPYUNvei9pVFBnRGlTUjA3TU50a2dHRzlpR0NBY3ZQZGFWN0h5OG44UEI5RzVQM2M0SklHZzZXeG5NN1R6ei9mUERvQjlEMllHOVRwMVFPOW5YV3N1TmlhUlN3cFRYbitmZHpZVGZEdlZmMzIzK0dycGU4RXJ2L1ZLcnhaZC81WFJZQzdlZHg0ZzNMZlUrNGY5Rk42Z2RySmVrbHZua0UycXdONmxUNE5SdWViemhYaE56ZGowSml2TlFuNUpTV0lFTFFOemx1Q0QwcVRIczdkS2tpSkE5b2JRR1NTcVF3dis0czZBYnVVRGpHWTlVZ3JpaldpQlhXelZmVU5OYUJQcTNaSGJNM3JJWDhhcWpiNUNEeU5Pb0FRVndUcDNtUnFhNnZjenEzTS84T3MwQ3dGRGR6Q0hibVJ3aXZHcm1SV1RNZHBXMW1NaVRJOU5wVWNqM1MxSFc5anJRK2NhdWVVVE5HL3pNTHV6YlJKNlM5bXcyYzVpZHUvVGlxWDQwbCtSNXFaNFJ2MFVVcFZiZWNqRzJLbU1kZWd4bzJsdVNrS21meUZreW51NVZXc0toUkpPY09URzdCMmU4Z2pmSGt0YXNheVprakYyckc0aEFkN0Ura0svTVg2a0hua245UW5PSkFxK3BEVEwxdzZ1ZXloNHUrN01xcUdlL2diSDhWNjNCL0RYYTVQK0JLVW44djhVUVJLYXpkWkZpY0ZJa2hDTyttTFJjNkx1MVUwS0FaM3I2bXQ3bHNrUTZZWG1vbHNWeTcwY0FrSGY3SVl1U3BIdnd5R2JrRTFKeFVEVGNJaGxCMnIrOUdiNWdSQ2FmaWFYYVhNUmtFb0RDNVRCdlpILytzZVVPS0hWU2FtUEMza3MwTURhL2ZHZExIcndQbGR0MDZtSG1lZXk4RkhWK0tDUGdNcGlzU0Z2dWRQeUFwdXB3ZGhacmM1Y0RET3duTFlGOUM0WmxzSmM2UG8zMStoT28ySTJwdEFjOWVGR1haNmtReFZtNW5CZG1WaDl3UU9ZbVI5T0Y5azFVQktKdzFCazVZa1o5TnR5MjVCU0dRMTNmNmUzaXRrRFVhKzA5QTNYWWxnVU5GRUJsR0pneFdxRnovUjFZcExIY3VJRjlsUnlQZFNNSXlZYjlabHZGakJkSUFTNmo2Ymx2eGVWMkhMeU00V0JQTG41R0lGVnhXbEhHMXdzSzFMMzI3K1VGNmtKN1YvRm1NN2lySG9sU2pwcWcvYTY5aGM3dzVJSk92UGw0dlZ6WDFvd3pma2ppMGdyN1ZlV05tWVcyeXJwcFlTekpIcjJOeXVOSFN4akV2cEtqQjh3Zk1FNDFvSFZ6ZktuVWFtMzk3aUdjRVNKOTMwRExaajNTTmJKWjZJOXlNckpPRFpQbzZrWEplUUIydkRVZmtlWEh6NTQzWHVXdllXYmIvU2NaV2VKbEFRQU96L0pXT2VoUlNJMVdUdW5ZZEJOTWVhOWFRVjVsT2tYejZXVFR6di93WHA2N1h0SWFhaUpFU2VubDEycDN2MkFqTTNmcFNFakZuUmN3U1pOSzA4aEdOT0ZkaElNYjE1VmpjV0pvcVJLUXVkVXNTVkpSVWc2SURhMStMSXZGYUdKLytCeXpyNVZSMHFzSjVpY0xORzFpeVVmNkRuVTg5Nk4vcWd2ckQ0dnJHSVI2Nkp5ZDV0NFpGckx0Zjl3dmp3VEgyQXNIeTdJbmdtZWNaME4yQTlCSnNoOE85aEZjWDJxNnl6Y0k5Sy96dWpaVjQzdkp0NEE3OGR1N0VwakNSdmFScXpGelJwM1J5ems3Y09oT0VhQXd5NkZCdVRXMUZDU3diVlo3dzQydm80V0hJZmExVXl3Z002cGpMeWo5Sm1reGk0ZWlieklmVE52SnVTdUprcXBmOGo2QXljSFhsc0p0MkZVT2dUT243R3Btc2dCRkY2bU9sUW0xRDJLTWdrSDVHTDlNeEpXcEVaMTdLQ2dOK2tiYkcreWVDM29xQTd4RllBemNBb1FRS2hqTzVPUmtrSWRUN05GZC94Y1c2YkhPMHUvL1RzSzFDWWJHZ1JZd09ZeFBHbHE0eWdjTXVhTzlsZTFIRE5qWUdWRmNhVTJtdHVHYzRObWIwNXJKcFY5cUtoSExkdGUzajZWT2lZRzR4MTR1aDNZMlZEbTJJMVlmRHFhMlhSSFdCY3c0RHFTcm01SmNaTU5CWncwNlk0T25TdUJrc3Vwb0hYUndxdkVWWXlWS09MUE54dThvK1l0QVJNQzk2T3UzUHZkNGg5VjBoV3FiZHJtTVhCWXJzQzVHbWZvR3VSZkdxV1RGWnFCdUpSR1UybGpYaFp6cnhzU3o3YXU4bVJVQ2pJclR2bVg5eVRjTFZzTnA3YnlLSElkNTBjeWdYeHgybFJURmcycXVqNDNqMTM3Ynlzdi8zZHJzTm9yTnkrdGJuR3lVbGJuUUxnK0xkVkd6bDhtMnVhb0RXK2NweEJ0YXdOSVd2YVpUZnZwVllSbWlJWkl3amQ0NFBPYTNmeEhYaWJqYXFUWXp1MnlaTVZHNUV4bTR6SnFreHF5V3NCRVRWK3hIRVlXSVVHaVpJS1J6QTRTRkhOS00rK1JoUVdtam1UVFU0Q3c2RUhOZFkrVUpsdFZjUjhWcy9wSnNpVlVTVkJFenRSaG1CS1M1TUh5U2twYWlNSWxzaVhJWFF0akQ3dVJYRDRqSkVLVE44eE52aHpRWUJtQzAxaXk1blRQSW56MDNJaVBUM0xZWHpVNzZVTHpZaDBrZzRhUlVlcGlNaSt4S3VCK3pxcUhrcUlTVTRuSnFCNFpnaVFJRjZPUk1mV29haWVtaDQrcDJxbGtkUDl5cnNkUEZhU2w3YUtRTnhhcjRia2hPWnpmKzNPQndxU0g3Y0NsRWpLbm8zRDNuSW1mU0tXWm5WN3RPcUhBUzBnT3NqOENGU0htbVgyeDFzd0FUVGxnSWZIUTRhb0VRbjR5RzhiMkJvLzg0czlsOE93UXFZeUVrN09xNy9aOURhY3FhKytMcDVVZ1NIOGgya29xWmhnN0xjTDhJUWxFNngrWmtybVNmQUV2RklhTFB2RUh5YW90bzNiZnBwWTJ6bjV2MzZUTzNyWlVla1h5dXNPK1ZueDVyRGRtdmI1L2Rsa3ZiK3hIcG9HcW9Bc3pJUTgvYVg4cEdhVzRGb1FzbHdxbGFnWktraHIweGhpTEZLVHdOMTR2VVdsY05sUU4vTzdINkN5SXlySXUvdCt2anZML2JodXpiWTUra3RqdEFYVjcveVN4ZFFvZGNpRkQ0Sk1VWTBrVGN2c1VRbjdEZDZ3dWhwN1hKelBRcFdIQ1ZhUzVYYTFhM0ZZcXpNTzJzUVMxZ2dvV2lqM0taMitsODNobnJKUWVRZThQeENvUUVPVEhoNUh1RjRqWmZlcjZ4cTZzR1I3dG1jZVVoMTY2dktlcDFoMkdTdWg4STZncGJ0U1orRk5oVGlyQ3NWaXVjUUVaRmhuWDBTbGRmTUxsK0ltYVdUV1VjQjBSTWZrVkdPZ0tPZHlacDVQb2xMRHduWTdjRHpwTTc3RHNJUjE1K2JRYXRUOUpFOTVyRk5MVVA4dDdsVElEcmhydisyRHdNcmhSQ3RKT3loL0FVWW5DT3ZmRXpwc1gwMTEwZ01DRG9tL0lzay9Cb090dStYaFVLeW50OVp1cjk1amU4SnF6eVJLRnprSFNyVlE1cDBybjJRUGxJZ2tOc2dXd0xiSmNpU01WTHpWemd4UVNxMVJSaGVzeFVXK2c4eER4cGl3UHluVkhuS05Rak96VEdXa0VsSUFxeUxhSzNrWkF6UnByRU8vY1pYekdZZnVuVDR0V2NpY29KK1BwYTJuaFJDZVlKVTVwbFZKZDZNeE5ldm1YWUJZT0tVKzd1UncxeEliMWFkMlRqdUdBNDJXbUJXZ1huVHhleDFLeVVVTG9yWGV6MmFjUllZUndSNWdOQk5uemJlSHBKQzk4ZU5qZEwzT29ZOXcvSEZsaEg2S0l1VEFNQ3NDMFcyOXhRUkFlcm1lYnp0ZGhHVlMzTnl1L3o1MGFzT2ZjWUxKUjQ2SXo4ZmxRMkt2SmVOUExuZDh3SGREdlVvWjIzQTJPVlJvM2ZLV2xLWkZKRmtRbWY3THVGRXh5eitNbk5qV0MxclptaWxJdW1ZRldDRkk2Ri9XSnljdTFYTEZuK2FDbW5HdVdFWEo4dTF6SktGUk9LVmd2a3dQcFVaekNxeWVqbnd2RDZXR2tCRU56WEJJWjJvRlNwSjBQQkoxRzV4dUE2WTMxWWVOb1BYQVhNcVIxbEorc2tjQ1FhZDR5Tm96eHBUNmR6TjNBU243cEI5UTdETHE2Wi9rclVvcVBZZ1hxdUtiQmlwK2Y4SmJ1cVhBa1JJK1hQU1l4RlVjTElyR29CVFphTUNWNUZyZ2M5T1ZxaXJPc2U5cFZQazBpckNUQnRYM04wMU1HSzVzOFZBSGhEWGhKbWhoMnRBbFFyQXFYV1VtVlM5elQ1TXBsRlVIRDFjd1NlR0VscXRTbzZVV29GSDd1THhHM09SYXRqY2JzZnlnODRheXJWc0s0QmVoeGU3MXRoTno2d3EyMVpGcmQzdTg1ZWUxdVhyalcvaDdscFcxYVc4YjF2VW1ubzd6M3QxbWtwT2RPVHFDdGJ4cEhSbnQ5SkpmemV6KzkvckhmdEl4SXJlSHZUN3QyN1h2cWx3MCs3ekdURFN1c1E2ZFRhUEo1RGh3cWZMNjJwQy9naXBSRSsrUmd2SWN4ZGV3K09oT21LSEo0V0k2MFk1a0VCdTQrQ0tUYmRia3laeHZrS0lkT0IyaFBtWnVmMjQwdDdaUlhndzBGclptS2xtQzJ2R3FzYjBtUjNDeUZwdVNIcXQ2Y21QK0t2cHkzSEw2RFRvRzlUd2RXUUk3ZmxLK1Bid0d6K3NtdHpBMkNBSzlycjBrR0MxWmRYK3QxNS9Qb2RIWDE2b1hiS3RyZUIrdXV6cHFYSlpkRXV0cnVpK1NPYk0yYXVjcEs0VXM2bmZINVJJSk9IcGNGM1BGbXZMWTlqUGx1UEtIT2lseFhaUWM2eFRrZFVON2FyRUZiM2xpU1E4dzdZekNYNCtFNktOZWJyM0lxMiswSHpvb2NZUm9IclpFMnJqcndpS0haRHloRFdqUjBTekY3Yy9QZFZWVVZIbnVaOHZja3JIVG1pQVo1RzcxOHZzcXJhREM2WnVXQ0xLK1BsUGZEQXI5S3cyWW1DNk43WUs0eWgwNFZBdXVxNkt3NFRFQXgxTUZiUXB2TmVYUktNYmU4UlhRU3hUNDVINHgzSy9OVjJmTFZ1Y29XaHN4cVQyd2VXRHYwOGYwZTU2QjByYVp0QmU4MEc0TVJzKy9OTjkvMTMza0xzQklTcERGV2FwcVhja2MxTHc3TDBCdmFvVktBRkFzcTFiUzdicVVNWktEQUNrUnJBaGxtSnRLOW5sQVJnY3FwRmszWTNiWnNKc3VZTHZuTHRxTTcwTDdkOW0yY09OYStrL3ppRHJYUDNmeWU3RDFGcE45eTNFcWdoMzBaMlpYYkxlZ21Fa0RJc1laSXJISVB0akdjSmxEamNzNkxVWGZHNzJzTFViVVJEeGtJaHlaL3hEaEZ1MEpVWFpGb2U0aTZQVXVNRWt5OFExTENKd3o3SnNIWFlwYzhwTUlzTUNjWVVSNWZMQmZtOFV4U0pmNVVuVFF6U2NxQVhTV0dZSlBEdk1jZ3VXdkVKOHBMZUNmcHNkYW5vNklQMzBPNEticHNhMlUxR3VJRVRTV29vVllsTnpac005U282UVN0VnBEWWJMMXp5ZnE3cTlkWExQWlJHdjNkck94OUQvYWJLemJLREkxbWRCOHZrMW1QWjVZQzFubDRpd0hOZkY1VHJWMXRLZFhURDZiS0tBcTNXYVVzc2lHNVV2UEQwVGZhY3l5K3Jpekw4RXlyREhXV29DdlNQMHVKVUE5UGx2Q0U1SVdPT1ZaRS84Yng4MElaZ3l1SGNIR2F3ZEhxbnJkZVdaTldXdWZzRDlaVnNrOHdiRzBnY3FSdGdVZWdjdDB6TUdlTkI4S2E4M0hnc1J5dk5wY3lVZ1Jsd2E1aHBVOVZjcnkrblBRWXEyNDF0MGFxL3lrbHhldXJrMVUrYjhlNG9DeFE2WHZhY2ZxRTlVUjRZemhsQlcwR2tvUVIzM1lRazZxSnBIazZuMTkwRkdTMmlPZFdVQ3RFRGljUXV3V3JlVUJTclp2VDJPSTJhRUFIREZJdTV0YkY5U2lnbUE1T1N3V2l1QWIxVjVWRHVQK3daV2JtUzlmc1VFZE9ibGd4Q2YwdmcvV3pXN2RRRnpjM3JDalo4Z3lzOE84VXRoSlF5VHhJaUUxdlVKcVZmT0l0SGdOTzUyZ1FjUWVwU3A4U0RmZWhCVFZkVFlWcHhZL2YrbzlOVGJOYWRyVVZBQXZtbzNiYlRDUldTN1BVSWhFSjFESWxHMlh5a1h3MlZ5cktjZE9MVFlsclcweG9ZVmV0S1l0bDNsRXBja3JjcTl2QnVCMVYzTG9iNktseVEvbjd0bi9pZjRrREZveWhuWG1YSTFWSnlqUWVKeUkxbUNFWHBTQ0JVdW8xMC9EZm5iUlg5STI0cTZZbWdCK21yWGRUOTg1UC82bTM2RXRpTm81SEY4ZFZ1M3FHaXNxWGpWU1lZYk1lZ2swR0tZd2FZSW5GQUhhaVhVWGt4dlZGNXVOR3NkS3hsNzRyYWtJT2JKanFzZTRpQ1BiWWRqQzFtZnEybW8vYmEvU1ZUbm8xN0lhS3hycG5QNmlCQkl4czUrQnlYakhaRE02V1liTkdrb2VhQjgwbWdRUnM1ek5Lc09QTHNkV1ltcUxlZ1pMeUZjUFY3WjNUUFIvTkx5eEpnVTBHU0lRYUpPdVdJdGlnQjdWNXo2aUZNdldHSHlnczlaVDZmSkw0eUYwVnovYTArclZlT2E2L2NzSldzNlptRW1SUHNsNjFYdm5BY3RXU0FwbGhXL1VhUTJ5Wmx4VTQ4VHN1SjgwSWFkVnBtYkJJZ0dqVTRvTFMvcTZxaXVaNlMyYWEwcUJMZytreDJGT1YvYzlyRWIvczhKRnRjMWN2YjlsNGFNOW9ROVVhZGNwWk4xVnRrcGpkV21QMWtNa2NxL3RBbC9wWmJSalpMWjNYYUtpZTdHMGJlL3ZkWlgwYk40L29oaVAwandxZlp3bE5QUHIrMU94OGZTNWpQM0FXN3NVSjloYiswWkR4UjhQT1AySkxRUHpHRDF4TFFISERuODlYMVJxemNuUitaMklkK2VSWWhGQ1lJZ3A2VUtmV0NyajFRenR2SHBVcWhYRDJ5TnpzcjFERzY5cEZjRzFTbjBKTzZwZld0SW0xMjBVRCtvd2pVbHFPc3RpWjBxMW9yOXgrTHNkaFRQaTZYUWVLRzA3YVJvVHF5cFF1R1V6cVVOUXNGeGNlTzI4U0Y3R3lUVGduUjBYdHJEU3Fld25BMGZnMnFyNTJBNzN4ekcwQmpzWWRxT0hhSGZRT0RDcDRmVWUrckRwNVFLbElIWlJYZFlnMHppcVlvbWNjUmhnNVRHWHkxVVIxcUk3aXJYNjdXbG5nVUJHSFREZXRRK01UZ0lqVlNPM3pkb3FHWXA4SHBZMzJlZkNJbng4Nm9FelRUSE9YYjcxaHZ5clBLRVBZS2h5QXMrTzk2NTdiNSsxMnJLM3MxTXR2bndKSG83M0dZUVVIc3QrblJzMUtUeDQ2Y3FUSFRNdCszejZQZm5FMVVmamR4YXNXNE1nUy9HS2NseEQxYS9hOEk0ZStWTlRTWDdKQkJXLzBpcVYxU2IzakZpN3dtTThJVlZHbGNvWTdzcnhCUUFFRnZQNE02elUzV2RoTVMwd0pXNVBXN1NsUTgxRTIwNG9yNXZCaTNDd3pjRFNHdHN0TEpjWXFxWmFXZ2RZRDhVZHJaWkNXeXhIcGxjZDhJSCtwOGM3VWxYSDFDNkZwdFFvemMzR3BNOHpJVk1LRzFkQ2IwTXptSFRDNm82YTFRRzVxTUdPbnM4dlcwbWNaQXlkbFlvU2RsYTlVbkFSK0dPZW9MVlptVG5BWDhITWhkWDRlSDRVMStQd2Z6L0hHVTlYdDVlWG1ldGtmYWZpN1NFWTIvNFdQdGpKc1hjbzNKK1NjVkYxMnlWQTlTTzFkYTY4OWE3bGpBZG44UDZvLzdRZnE3UVZiSEFYMSs4c2hDcGllSHl2ZStkY2tML1l2YTc3VlBEc0c5czg2Vmxod1lVTGtFNW5ZOTVtOC84SThMMis4NUZQbjVtUHlGWGNlTURWSHdpc1ZuRm1OZndOZituWHRLWFBaMm9Ydi9hdy9xZnUyQ1dpaW51NHVPMmc1YkhFLzNoa0RPaURUNlVPV0Z4MDNwRyswZ1BKcXpXM1Q4cjNMVGFDYW85YllnM3oxYmNKdGNMbGt3Ky9tdi9QNDJYTDBYRG5BdSt5djdPQjhoNDltK3lkbndmQ0FSNmpaNDlqWldHRFdUS1ZCb3p5OWtoMm5NdWRVSHp4c3VRSnBjNldPVWpnSHlXVFJ4NEF2UnIyWllkOWpveXhPcEhqYUp3ZEdtc1liVGJDMHpGRW9kY09VdjU0OXpmd1ZHTjdST3JIdzNHVGxLcHJYbkJDUEtDQkpxZE1oOFloTXNWb1RudVZCZ0lRdmJsM2JQOUEyNmRHNnY3SlJ2ck5Ub3FRbUhVWDJ3ak5hQjhzOUxyT3FGbWd4TmIwYnV3YjZKcXVMdkwzZFJLYkxUNjZ6Q3FBN0doaCt5Z2tBcVltS2JLRldBNDc4OW9uOUU2UE9XQ0QrTFNEb2ducVVSQ1RFSzdwMDRNMFpLdExrYjRWeXhWL2FYZDdYaHZzNzFyaE4vclRzUjUzOTFkcFEwbVBTb3dRNFBWR204TGpzdW5KZ3I3ZGxCTEdpQzF4RkRkMWtlNDVjQUhHOHkvaGdRVDdyT1M3MkJhNlVmM0h2b202QmhmbXNWLzV2L2UreU1HY3pLTEFhTTJaTHRmc1dGLzBONzR1MmNqWDZoNzB5YUd6SEJ6WEx4MEhPTWU5M29ENXNlWFYydmtiRXNhc0xVY1VSS0VSOCs2SzJYWFRTVldRa1MxTnVLaTkxR2NHc3luQjhNT1I1QTRhQ3NmdzNJeWIvUHJQbXkrQVo3VVpWWlE2N3Foei9BVHZ0d0Jkam9uOXJvM3h1cDFmcFNsdlg5ZzIwcjZrMVFUS1BxMEJSS1RhVFpVKzRNc0R3eFcyVEEvM05hMHVWbjlMdGI5dklmM1pCVEVpTy9ERkZaaElwYWxFWDRnYjJGdDB4MVZDUTlmL1FqTis4L0dSeUl3azg0OE1kckFlWEoyVDBMRktjcmExSlR6UXFoV0tQU2xzUDZUNjZKODI0UTFqNnY3SzZ4eWFpVlkzSVNuWGdKbC9SSzdmb0xIdHMxRXVEdWtGS2lpVXA1ZlhncklOZ2V1QVR0TGlvdmp2RHptMFo0QzBCTi85N0ZlMjJucWZUejN1dDl2TnZKR3laOEVycGJmNmQ4UW03M0RhVjIzWXRyakpPWjdPTnZqcFN4TG90bitrdVpBSHIzdUFWSHhPbXZvckNMb2V4cit6TlgvdFlSL0hVMjBrajR1SXBNSHUvL3F2NWwzcXcwTE4ycldlNDBCbDBDanBBd2EyL3A1U0xROXBDRENDcHVzaW5yck9GejhnaEJXdUNTU0VNWGt0ZFo1R1B0cFd2Z0VYNmNJVTh6Smkvc3RrWEZJd0ExT3BzUUswRzd4RnRrOStLdHNZd3VTSmNMMXJlNUtjdExMMFFqeUZMQ3RHRUpNVXorR3k1WUt2TXIwYVlrQWpoODhSaXM1UTFuazlJaFBFQy9wY1hiSmdnNk1ydEVuVHo0dHNkTnhOb3hBUWF1TW1YNnJBRnE2NFhyTkJGVkJhVU5vZW05YllreE1FSWhMamZoOTJpZE9VR0ZKL2liY2VVZ3B5Q1R5alZHZEhGR25YVVlmVm0yRUZZaW5hMk5YVTZwTW5tc3Z2cU9BWWlRMWpwckRxL0haMDNSL28xV1kwREZoQlZZTmtDU3lGWUpnODBHekV5MlgrbDBpOVF5eDRZaHFSUzZVSUtTcFhMN3lMSUhvc0ZRVjBxSlZxTXdHaXhVbVYyZ1lUMkc3UWJwUnRkdzJwNzlheDJWbnJrbVN2OVpXL1RkdERjb0tEeW92Mml6WUJ2c2tBNlRObk1Qdi9uek54T1kxVG1zZWZTK08xR3RxK0JsRjd6YndLdFVORm9zZ3pCSmluM25yRktIam85VVg5cDlSZVBXZit1REVqVWYvbVZ4ZGhnd3h2TzBMRUVNKzRtd1ErS3gyeUlMakljZVE2R2QyTXRmbWl1VGZxK0dYVGl1V2UvUGpYNDM5U3JybnJ3K3ZtcXV4NzQyQnl1N3RMaTRuNG5UOHNMWFdob1d6ZTlxUUhCd1ZkOTB3UWdCSi80UjBjWnFwWWhwU280OXo2V3N5ZGIvcHRUYkUwSjZhOTJ6akE3WXIrQU1JTTFUck16MExTVWcrRC9SWXY1VjNVTTl2VHBQMm9TTzhHbHJWY0dMVmNwQ3Vtd0VEakhkZlpkeDJDUm1rMW5LejR2ZTkvazNLdmY5OGhML0lRWXR5M0JDNVF1elJ3SDZyTlRGZnpjcWNzOTY4czhhdFcrcFI3M3lCbjNWRDdrVnBHZ3N1ODdqbmRPV0UrRWQ3OVQxaXQxMXF0V1lEcG0xSlFwYVQ5L25LeE5UWmFFSVhEVU8zcVJRS3lWNVhFYVAwTEkwb3RTc1BPM1hJTXdXb2JES2NVa05JR1FrNVFNNFJOT3MrOFJzcXRoSEVITnpSWW9ZUTcrVFA5amEycStTUUU2ZFppYzdmOW9GdFFHTmVxZ3lFOXRsQXQycnI0bWwrSE90dUxDbllIdW9RSnFyRExmbFNwT2pMSmxQQ2dKQXJVNjVlb1MvL3Vsa09UemhqUHVaa3dVTlRidTZpOXh0dXdTdmpHVkljMEZjUTFxRHBjVHhOc0lub3FPeXZhdktqcytyT29RMjdRN05MeGNqVnloR3ZBNEFxMWNaZ3UwMkkwMjNMcUU2bS9HQ0xLYXcrVUc4VGIyNEVzdjBXNFN4SDQ1c1RtbDhtMWJ2VytrRnYvSEJMdzQ0WXZJYll0M0tBK0lEQThSK0didlk0b3YwVzdWV3F0NEZYaU5Dcnk1M1FuRVBieUN0b3FtZWhzelRXN1FwMG5wMFk0WUpsN1ovZitXT1JJSEVndGxXcjNDVVRQY0J5cCt6cFJGRkN5b2pzYkxuL2dmejVXa2FPUFBKcWQ1K2xqV3o2THJaakhwOHh0U3NlU2FMRnowSm4rLzRlWDdjZG00cUYwejhDbkhacTJvUUtLWmFBYkVYTWg1eWVBZng4YmdMRG1TbmFWQXNrais3MTgxNXpueG80OXBYOFhpdnZKOXVGakpqZSt6ZmpNQjJjS0dJVFRpMmo1MDM3TU15K0MrcDU2OUUzL2VkZTU2RGVRUXlRc21KTVlWMk5PVXRhbFFCdTRYRG04SW1VNU56QStIZWFrTHFpNDdoTG5zb3cvNDVmaktub2d0TEMvcDlENmFLRzRxVzEwRDJMZzJleDY0UXRZaWYrTy9RdFFlM0JXbUNFZ09mZ05LUGtPTFEyVkdHVjkyZng0ZnpoaG43Z05ueTlCVjlac1RaV1ZqMUMvazVqSmdVSWpNekg1MGJDNTk1ckZBc2k2UjU1VCtEc25XK1JOTXpDVW15Z2l6c1BMU1FNMGxjeW42UEU5SC9mWWR6M1pzM3o1M3pBYm10dS9RSFdyN01aREVJeFc2MGpsZThWVElJODhDZVhIM1hua2R5eTJUWlVjazd5ZnVpSlh4TFd5bU5hYVkwL3pWYmo2S0FCZHVwQ2lUYlFIUWx3d3JCL3pPYWdUczAzT3pBZXNlWisxL0Vqa09wdGtvTnVDZzhJL1JXZGd0NkhsSkN6b0QxdTlDS3c2WVdXRFF1ZjdvajFmUjVMQmZmUUFTais5RVJZMTJPcy9WWElHeU0zWDNma1NLeEpYZTdpSnVKazBlUThoVUs1RmNsVTRmWmdyTE9aakRudUhsUUZyREVGQVpFdmNpVEFlMmRzcWFyUDdza0xaSG4weVdyWXhkY1NZbGxrbUhGaFpmbEZuSzVPazliNklXWk12bEh0SDcyY2lqa01za3RLOWk0LzVEdThPYW5nRXc3VEdmNlJxaXl0eWphYUZxODdYMTdvNkJUaUxUNWEvVW9ibXdnWFNoS2pva0phWks1b0djQUpDU0pNOFNhdFczMkRRVm93WEdyeE1ERTdhSThxZFhyRDJ3Zk53N2FMWWRPTFc5SjJ3bVhKTEtnSE9CN1ZtWDNxTFYwZGpHUVo2RXVKejgrQ2M4Q1Vlemk2ODhtOUpyUnd1eDZWM1FKeVdtSFhOdW9wYjBHLzhFQWUzK25iaDlCZnJmM3JpZm1ocE14Y0JZWmZYZ1dBbEhSWStJSG5VcUpNaFJaeTdrcXlqeFU2ZS9jZEYzM3BBL3hnL2Fzc3ZVWWJSQmlNR1JMekRZWkRDb3BFZGJLV29Jc2dBRWl3dnFvaEd5RGMwZTUzQXFQNjRyNDBTejVDeEZxRGhWU1Y3eFpZd1U1ekY2WGpyM0VYdXhyUVUyTEN2bGh2V3E5ZExsNjltYmZ4c0UvdUFyRjViS1UzUU85S3lwVWNDdHhzUFJLVWtlUEFiUm5JaTZUNGRWWlZGMnFlNWs1TytISVBERmg2MXZCeU5URVNvNUp4UFN4VWRPZVdxbWtXNnI5ZVpoQzZxbzdQOEFhNkdLaGs1cVc5R3ZoMnRZRlZYaUkzVlVGcEU4TUZIdWdVNHp6MkFKUjZmVzBVcjlvMHdTbHdoWktyTWxubCtvTkZDbldKbFRWSVB5TEtKaEVXb2hwVFJUbVlLbE5UeDdweWRzS0NlenFJc085OUFuTlNvYTRSWXVJZTFVWGR0UHNxWTJjanRUUjNQbVp0M0grY3EwUXZtZk1xdndVdk5udVNheTdsaTJkTWhLaXRFNnFiSk9UOEdUdGc0OFA1akFKbmE4amhidDJhbDh0b2h5Nk5WbklaNlNJa2JQS1ROL25sdzNhMm5RSXd2RnpHMDRoVUlraFVvNi92RHRObkpLWG5YYjZwM1JFdmpCTVZ3S3FzMnhyNytJSFJUbmo3b0VSMVVkWCtFNzdtbDJDa2RmMmpyZTF0NjIzS04xMTYzVXJoVFlLT1ZpYmZEZFpJcnNhd3FrZ3hRT2swcGREcGlMTExaUHJDWE9pS0FER0t2MHVhcDVSQmcwcXZMb2kyQ0VtckZVdXRNQTBxK1dkL1BGVHd3Y24vL0FUMExZUEtmTlpySkhaK1FwdUZRUS9VbjVOcFF4c2d4Z1RYNmVEQVhNVXIrMkRlM1FOdmU1dk8rdFlUOXQzb0dHdlVLdHhsY0RmaG9vR3ZhOTQzMW5qdE5BTlBtVWZQUmhNeTAxa1ZFUGYvRFRtVy9Xd2cvS1hjSEM4cWM0Ni81elF2VkMwMkRQV3RCWkpRb2g3WTg4b2V4UjBaWDd3cWxqMXVpeGhFcEhQK0IwZEsvL3hKd2hBRDJlRkJ2UFRyVG9jNERKR3MvNS90RnNLKzBOQXREaGsvM0dQQnJBSHhuK3ZKaUZZQlkvTGRaKzVZTGwzdTMvR29SeG9TNjMzYTF4YUo4Zlk5dlFwZWtDZGcrSlZpTDgwRjgrclozdUxYUzFBSHZNdzR3RjBnZEdxeGwyU2JRSDVEeWxHT20zVUFWUVJ5Vzh3eEhtaXlqVXlqUDByMXh4d2xtRXBDOWZUQldPb1F0OW1UU25WamI2SXE0V1p2a0QrVTRpSnhOdTRRaXlVM1ZoQ0pQNnBYZlV4UlRLdVdUKzNxbURHeFE5MUJySGVhRm1aZVhRWDI3MUxnMWk4NnZFc0VaVFV5L1B0eStGTm5qQWRuWGNwV0E0L0ROV3F4Q2RpaXRyNldNc0pIdEJKOWJCazBKb1JXclN3aWwvTnc0TTlBZVFYWlk2TnMrL0R3UGJ2QjhrTC9nckRjVXZ2OE5GOXJzb0lVekxPdVNRak5BV3cvM0Z0eHpoN2JpVU8xZm82d3ZUa0FMTmI3Q2F1bE5Eczc5Znh4MHQrMEk5ZG1peFBkYnI4bmdMWHdDSTQzdXA5NXcxMjhIUERjOFJRUDVDRGk0Wm5VRnNoMFJpdDBJaS9XZjJ0MWFJL09TOU5tUU9JZ2wvNitadHpLN3E1N3NFQ1M2UlY5dnFiaUdpdC9sbVZjZHg3VVJTVlEzTjlvKzdlVDQ0MnovTWkxR0dmQkNTejMxODVra0ZpVmZyckxkQnlFK2x4NjdDak5scWpxbDU3b1kvUVJqRVRITVpncVRaZG1qVlNDeEtXR1dRWk9iMVkxbWQwSW14aXdzelZEMUVYTWlabk8yUG4vMHlsNUdwTzJxZDltOEhTTVVkZmxqaHVodk1oL2ExdkpMa09SRmxERGVzcUtaQjRsK1ljalQ2Mm5aMCt6T2E1WmxjQk42Y2d4aktsQWVKbWxBdGhSL2pacG5RVEtEQjFQUk1EQnBtVDY1TFhDSXM2U21leEgxNWRvZFlhWDVwMVZRT2tvQWdQNTFaTDd2QXN1Q3o0UWZpMllqUllETW9DVkdPSUlSZklXQmRBYjFuOG5NV0t2Qkw1aXNVRjNCcCtFaHhxdEZoZzk1Q2pCM3IybHlCaSt4U0FqYXg0MlVNNnhLTXpab3ROVTFaeDhyNVpGRSttZnNSV05UemlaRDBjcmtSOTBWTVZMeFQ2UnNVSEdQMjgxcGpJSE9Dc1lDWEI2bUVlVHhVcXNiZjY1VmxrcVNNWmdCeTlMbE55MDEzZlhOY3p0VXA5b1phUitCcWl4T1FpcTZDM0NRa3Rpd3NKNzVKbjJpd1pNZnIrUWZuOXk4Y0QrdThiQ1ExN0pTanM4UFhEc3plbS9tZk4wa0prRTJyOFFYR3AybEVEeXhrQjZZNGdSckt1UC9oVVNSM3dCMjBYWEprM1ZuMERucTJMdExQWTJJWm5IdFlFWWtYWEQ3M2RlVS9oRTdMelNXM3FtVnQ1cHFVVHQyUHFwbHNKdjVucy96Mnl4VjZuMTR5MnRJZmJZOGVzQXdzT1dXL0RwN3k1YjJkZGQ1bFdic0dkQVBMSEhIVXV4S1RqNFpVQjRaMlMzL2hWS00xT3JOanlWYU1XbFlNUGxqd0Y3YWtBWkJGdVcyMnE0QTRtNDhYL2tRb2E4MlpiV09sY0lySmFiTFlWdkZOallhWE16YmoweHlEKzA5YzdBNjNVUllJL01MdE80RHgvNGx3Mnc5dWxkWUd5b21iNmd0WVFTOW9vV1RFTUhjYWRtbFNlYVhFUWI1T282dXRxZVpzWVVGWS8zOXhYRVllWGhBYnBXNWRXSjIwcDNBb3NVdXlrSVBmQWx0dzN4L0I5d2RqRTVWcVM3TVJvengwK1dNaHhkbHJnWnNYK0hOQkZGc3RRTE9QckFscDBWZ0E3YU11NStaczF0bmk4cjROZmVNbWpxUjlFdHBuVHB6M21NOGJ1UFYyaG5PeXhQZXoyQmZVYmNsRVBGNE9mSDZpeVZTWVhZRjNseW5GYmNHN1ZLZUIwcU1uMTNXeHhPVUJvOEhQQUJ4Y1lvdmoybFpVSnRzdEs1em9IN1YycjNtd0NZaDUvOWFpQzNOUEhqaWxuMGdmZkllSmNaaEh2cm82OFZuS1QrdG1idm1SVFJyb29oNHRlS3BaNXFEL09aM1Zla3pZdDBybkhqc1c3QnQwN0x3QkhPVTg5NDNyZSt6V0tZcldHK21qdXVaTE9GRFdzKzZ4UXNRRzErUGhMUThUVnBZWFVQcm1YWmdsMDhBOVVsQ1cyd2ovRnQ4dDRNekl0WWQveEhDQWRoc01zSWNQSGlwYnFZV2lZUWd2VVpMRlhrNTZVcG9PeG5MZ1F1QXZXMFpCY0Urdk9nMjdNK1M2L0dWbGt1UnFwMFpXVmp4WldYcURyMjhUNXAvUTJZMlZYMlZHT0dpV3hVU3JmRkZwK2pOcVFZUTk4OHVOVlZ2UkJUc3ZybVkrUEFUSzQ4MXd0bkxuRFhSMTNvZlM1c2dxVlpHbmtGVFlINThpUzBydnhWZ09nc2F3OGtRdFlwcU45WlZNbE1taldSQjFUL1J6aU96akNKdm9YSlJEczFUbFFkVDZjc0dMVzRWSFNrenkxc1FpZTBYUVA4TXdOd3pZaEUrY1hPVDFYK2xmR2tiODFlVTFMY0RIcU52QndQMkdydThyM1RlVEVaenh6eng4Q2RYc1A4b3Y0dFBtU2NRcUVySDkyd2hoRXB5bUEwa1BpUmRsU2s2UFFTNHYzT2I5NGZFYU1aOTFSWjUwMXpKaVVsZmQ4WlVKUDRucGwzZ25OdmxPY0w4aExOUEtISWdNZEEwNEJvSmRRNUVzS3dzOENXY05SUWJmb1pncmtsbkFyQjdjWEoxdm14RXNwcWthMHp4eVhtQnc2cHBRcitQbjZ2VkNnVW1meXpmcFFLTVFGaCtQbC9QaytQanc5TjF0RjR6Tlg0QVJxKys0bi81S1RPZzk0WFlYNFAxT0ZMOGxuLzlOR3puc3VlNXZHbWkzOFVIODNZdW9mZW1BS1B4dmxTWmIzWitaYzJobXR3cEJIT1V2b1Z1Nk9pdWt4S0VxRHYwMVdjMTZTRm1EZVczVDJDZWFjNXFhZjFvOTl6WllsUGdXMWlBWGpWckFVUDRiN3lkb2tvb0tMUGd3MWZvV2x4M2RNRHpSNHRGeGs4MzdUU3VTZC9tNUpMNFEzUklTTGlhb3RxWE5kRm5ZU2dYam0rcDg4RUxldGFqakszZUhwU3VsVWs4SXlMZGxhOGV6TlN5SlZobExhcDRnM0xsVWNPZFMzb2VWSGN2dUFpZW9DbWIxWE8xUkhZY2ZpODk4d0NMSkNEYUVFUDhSNVZTOXJCREswK2hWdEhqOUwwdWZYVm1WZVlLWS9tT1ZScDRTc2xLSGFGYzdERzRYaUhnblloRmZ6cW1GU1lYNDdwVjk1M2pzdjBnekFtcWRhbHJGcWVLV21uOWovanhiZnJmaTdyZC94K3dVTnYwNWJiR2Jna2l4OTUxMUNULzM2SVZ0enJ6SlVuc2ZVN2J5K01tQW5lUzE4VzY2YUpOOXBTa0hYVzJOMzFrQjFxOTJVM09hNWRLRmdpdTRNaTFYTDR4R2NMRktNVW1hUUNDVFNCQSs0U1AyTjhTc2FpbU9vT0ZtQ1JVUWwzQzYvNSs0VllDbEFkTzZRbU1kZVZPMjR6NnJDeTBSK3VIRHFiUlJrMXFvZ1ZNZTh6Z0tTWXRjd29tZjBFSXBHdUhVR2Z5L1d2MHJnejQ4WGhzV2NEcDZaWExpYW1nbU1YazFZMWwvUjFVWVUvbENsd2t2d1FHR1RPRlJucWFsT0ZQWlg2ekMzYnVQN0FrcCtwRXEwUmlGc04yOGd3QWJnYm9lOFRseW9JandIc01RTTZyaDBIZVhmMGE0U3R6cDVIQXlhVFZlZFNVNCtWVjBFaG5zcWRwMkRzRkpJVFgvT01pZGtRYm1KMnlyL1g1SDcyNDVGSDNvM3N3RlA0R25pc2d0ZDBQeTc0WllxOXorR05qSjN4eVNzY0dQR2g2aWZPTitiUWdtZC9hK1BhUTd3SGZla0F6TWJYanpSMllpREpmWnZabWR1SjNmYjdrQUhuSjkzbjZzOWcyWDBnTjdxSmhyQlpockk2aHQvdUV5TXVldHgwN1F2MXc0dlhIY3VzdDRHdUNKczRLVittb0xybTdMOS8xcE4vK3BNdjFKWS9wdlpQU1QxTW5iTXdQNUpRUDRlSTJMVXo4ZExMUzJ2U0o5Y2FSeUNkUzZ4TmRtRHduS2ErQzYxQ0EvWGdJdDZBZ0hoZGhqSm02RmtnTU1zdks1YVMwRUx3aXVCNjd5elBCbkFXdGZTSXpmd0lMVnBoWE1mOUx3eGhadGJNTG9UeVczcWhYbWQwUjkwM3YxbU9BWlMrNUZuellWYVlWdHFsTno5V2t4b1BVeFBhYTVaNWFWQXVLUFBwaWFIdHh2M084dXJ6ZWo1WFdlRERyekJYWlhmU0c5R1lQZzBkKzkwWCt2SGxlL0pRNlVFODhmaTJ5cnFIZnZOK3dmbkpxR1JESWl6L2szQ0d0WHhhZ2szWjJzRkxSRmdqZjlZUWs2ZXgzRUhTUVpZS3d6Smk1bjdYYkxOVm1zbnNqWURGTmt4SkFIdENFNmN6aVl3OStPdGx6SUNYYllIZUJYYlZ5a3M1cHRMUnBjY1h3K1pFL2ppdVVsSlZWS1ZVWGwycWt2cHFZcVM4U3lyTW9EZ1h5bnpGYytra2lsencvd1lNdmxSejh5Zjd4eGhYbisvUGJSejUwSDkwZjBOcXlJTUsvY29Eb2VYYTQ3TncvTW0yblN0bEdwSXdLTG1wbmdsQ2I4eHR2aXFhTUNnWVFIbmhMYlpveFZGdHlPT2h6WHJqWGpWRm53WjMvcnNBNGUvRWNydVc5TU5XWnpvVDdkRHhqSk5KSk1xT1lZQXQ2aVRreElueVFlTHc5VDRtak5LQnJQS0FNKy8raXFMcTBMNGNUeHg3VE5XbFRqMWphRDZTZFo5Q2tPSUh2MG5wWWFrL20vRE5DMzZvNzdQSENyVmVrZ2s4NThvMjNSb200UXdBMkQ5TzI2azlMbTRvc205clNRQy9WRlRYcnE3YjBXZGN2NlpFNENoTWNJNlpUa2dqL1V4Y2trZ2ZORC9Tb0NQL2ppamhaWDArUXFqMGpIUEJvc29RYU9OSmY0UmFlL2puM3QyUHVLeEM1eGFVT3UwcUp6V3VWRHE1UldJeUtXSzBHdzF2N1NQSTVhMTIrTFFiNWZDWnhlKzZYbWwyeFZxQXFFVE9oOFNuOUowVDJ4OWoyWC9adTMxUXF5ZmExWHJXcEkyb0w4UDFXU2hxWmp4dmNOcnZaN2UvVGcxc2pOaHEzV3Jlc3FSbnV2ai9aVlRCVzhsYTZ0dDZDVlkzM1hSM3NwcGpyVHRIbFRyZFJxbXJBYVFhemRPR0V4U1J1TW13elRvRzRHL3lBeW1Nem1sblkwOHk0Z0p4UFlPWjRPc0xVZmN6dy9JUkhHNTBuRVJpbHJYRWhJaFBBQ3NjUUVuWGg0bTZZVk5ZUGc3eGdsaFl5U1h2dE91dk03KzRKM3QwSzZiZEMrbSs2OGJBZStCeTd2TVY3ZVcrVHA5SFJlanVpS2tmM25iNlFvQWxQVWZSTmwrT045akJQOXJMWUJwWGNXTzd2MGlPQ0RFSDN3aU5qUzJ4Y1RqbVJTM0JZTTJQMzRpTkJ3OGNCUlJCVUdDbDF2alpDeUxBRlNHUmhwK0NWNEpSNkxQeXZVQ0lnbWg0WjFyb1JGOUJlUnJ1U0tSb05xc2wwR2NDZzNwL3FZOEtxa01Gb0VHeFkrbVlOYVBIellkcjgxUmlXRWs4UElBUC9wNEZGUEdBeVJRMHp4Sjk2bkJwVDM5LzAvTHFyTmN5ZU12ZVl5N1FjbjgzR0wvdExxemM2Yi8rSlphdG5IaTdvRk5nUUc3YmtmcC81ZkZIQ0MyZkp0YUVEaUI5WlZiMFpwTXR1ODZVa0lLU1pTU1VvZ1A0SStyRG5BcVc5Y0hOcHpYbHhMdVVtTnhwUmR2clpXcm9hbVJFWnlyQzlHc201YlNTSjRRcEpYWjM3MzhlRlMwbnFmRDZMa0NNdE5wMFFFbTg4VENVdkNZc0tqaEdESkhsYXlXZVlnVmVMK21zRDVtdU95MU8xNGZ6VFN4MDhsTnZZRnA5ZTlUZTZ4ejlWOGhrRVVEdXJNSENTbmEzcW1vN0QyeWJSWTZjY2hlaXArbkNjMnVIMTlhc0JTVjdZbUxDUUJFMTZHamJnajZ2ZkJyZHZqTHpHRTR5S3dpb2pZeWdWT25JVFYvMzhWZ1hnbVdQS09ZV05DaUk3enl6Q1NzVnl1ZnhCZU5EVW1QbVZVSGVnbjB3NWkrUVJ3MW5SaVVHQ1lMb2hoOVBYbENzSUN0ZEZwSWRpTVNDSkIwL3Q1ZmhBaEtCYUR5MVo2Uzd1d0FTWGh1N0tTVTdiWmdvaE93ZTl4VEFUeWsyYjRwbFM4dlZRMk1EeENpNFFGMFpTZlB2aWhsQmthVUJtS1V5Y1NBcEpmK3B3ZlNOT00vREl1R1dhSDRDTUMrYjkrL0NFNEdGQUVZLy9QQmlOUTZiRDdqdEhtSU5zTkpwUnk0STYvZjNMbDh2SzdMZGdYRVpXWENYNVJVLzdFaTAvT0gva2M2RWNSd2M5WGRwWlRMZ2UwbjZnWXgyNCs2NDE2SlRON0RtQUlGUDhjNWVxeVp3QnFkVDJXOUJuOGVLbGkvQ0xHbHlKWnNtNklRVG1KUG8rTU9OQVAvOWxCUmtPclZtMGZQTTk3M3JqeXRFRGd1ckQ1OHZiUjRmR3kyTUk4U3BnaVNYckJlajRKRGxmU0xtY2xVWHFOaHVEK2FYNmFzRm1md0g2UHZBbkUvMG1kQ1pyL0FzM2tzV3F6K042ZjJobTZrYzE1V2JhVFMvbFhoanlldTNkTHJJUzVIS1MrQkZEd0x4dXZMbFRYOUUzWFJVTEJSdWpsd2dDK1NpdklOK3BGVU9LS3BCU3ZmaXhWMGtwUXBDek9LdnhnWmRvZmxCUXdjSDBFcVg0TFM2RFdDZkpOT2tpaGNhcWFlcmZFWGsrcGxuWW1KM3BKS1Rhd1Q5Vi9MWEdHZllrbS9QNU9KOXJjTmV3ZlVJWHpIakJMaXR1dDJ0dWdlNTUrS0Zob2dEdXRlRThxb2JGZHZ4Z1JBQkFBK1lOZTg3aVg1bjlpZU9McC93em1GQllqcHBCL2tGYWNCNUNCTStDWjhQK0JRT0tYaGFObFVDSG94MnovcFJlbmVRK1l5Zk85NkZoeHpSTTYrd1NOVHVTcUVqSTdoTGtzTkx2VXN0a21SdGdzbCtNZW45YXl1M2QrdEw4eVRwZUc4SndLQ1pOMzR6ZlNlL3VPMDFYTWNPQSs1UktZanpCb01KL2drMkV3TGFydzJTVjRwamhtcXJpcEQ1a05DSks3emtSam05eVVqb1Z4TnI2TEFSekxuZklRNWZWS0RUVzhKT2ZiUjQ1UzZIeWsrOVN5TFpXZ0tSRXdJenhuWEllNlZaU2JIZTlrbStXNkRnRkVWVXdUM2kreDJmc0lHVS9nMDlJekQwZG9oMTJ6cEJWYkdsVzlMUTA1SzVVOU5IdjhLK1plZm1qTDh3dGZFcGlYYTd2VUFSaWFpNnpqNSs4ZHlkeGZPdFFoTkt6dURlYUFjM2xQSFAydVEwRGtGTERQQ0w3RG80Mi93emlKcklYUEtoVFhnVzZQTDFqNVF1dmNMMTVGMVF6VGhTdVlxNlRkUDNGQ3BjOHdSbW4yYjVIbkdHV1hjdHRwWnpkaHJoQ1c3NVpMaUp5SDdhdVdiYitYSVpsTk1ERzMvV1kydDRDbXpYanF1VXBnTk50TzFtTXVpWkZCQndUdWxwYVRPQSt6ZzViVHNUWHdNRkh6TmdjeER0NElUOXk3RWhnTmN1TEdxbElOeW9CeW9jTm5JcFhSNExPUk9wcEJmZklKWUZldElEZk5HZ3hxdWRGZ3NPYzV3QTVNdXJxa2ZVdnpadUU1V0hBTlNQaVFTQWZKUGFhc0ZhTjBlRWdhQ3krTTFVaFJ4VDRhYkIwZ3NBQlFFaHlKcE8zMmhaYkk4WGtnbFBRRmdsNUNwRFdhWlIvNFhPaHAweFJ4bXE2RDFvcEJhekw2RHozZ1hxejRmSUFuMFJmdXBhYm5JL29WUGVOYzRSMlFCdU44cklKNlZlS0NYa2UvNFJuUE9jK2o3NHhmRG9rdHAvNlEzbWhudEJUSmN1blFCMmhGdERHdUVXK1hMMGJDNnFyMnJ3K0RxUUJETmNSQ0Y2QTdXd01YU25MOGxOMmZTMWZ3NVVwZmpOeDdva0NzNXk1dm9LY0JIUXJBOHdlNGg1ZkVEa1lDblMvYUxISU1pRW51YVczNWpHbmR4LzE4SmsrV3BFL1FNbkZyTzRjbWtQaWxFTmNydVEwMmwvWDRhRlB2MmxnQWZVYmNwTEJQT2U4REFpR3lpem9jOEM3SE1qQktlb2ZsTFdZdUVGWVY4M3dWbnlTVGRta1k1am5wMHZEc0NPOUlEK296Zm1zVHo2SnRhb1RUTXFiQzV6TlpZenhYZkw3NzJxQlZzM0tsS3FYQTl0d1hwTU1QRG5YeUVQczkrbXhab3hRMEJsWjlOM3pETVpXUmdGS2NITnFmS1hTOTROTjdXU0J6SFlxU09SME9IV1pEbTE0QmNCbnVncmUyTUs5ZFBPZU1JTTFlK3k1U0UvazZTbGtkY3cxMDlaUFZpMXMxK0lyU2h2TGFmKzlUWFBmVW9ZU2VhUmx4Qk95N29KZEVzZFlzL09rbzFHU0JWN2NPWUFHNGtIVVhSTFJQTUpselFnaHpXMGltb29VU0ZqZEhaNmdUaWZScWhLSHBwckNpZXl1Y2tXTVRudmZzRlVIUVhCYnB1VmNTQVNKejRvSm9VZGw4SVNmSGFDNzhUWTZ6WFhoTVRtQXUvT2Y4U2ZSRldseGJZTGpvMlF5Tlc1RDBoN0VMLzFCbTdxOWhNZk9YUnRaMHpIOTRQTjlmL3UveTBIbWRnYW1qZnd0NjhUOTRheDZiemdOc0NLRWdsVTFXeVI5OHltaW1jWjJlQmZ3SGVPNnBaMTREYWpNZ3d6U0FFR0Y1QUV5aUhnTWdRUUR0YkI0a0MyQjhiZ3NlUzE3dHI0MEl3OUQ1SFRlQXlCY2xQMzEzdWo4SUlKR0REL3RyUEZyTVc5TUNmTGhkMk9BVVdYNkhTbmRrL2ttU0tlM1lubWd3d3o1NXdsTlhXbngyZ09GdkFiQmlpUmR0eGEvd3lUMWVXK3B3QjdiTEltSFZwOU1BTmdGMXVvYnF1dmtQMUovYS92bWVlYVF5cmtyNytPODlVWElLSHRNYmRvOEVqMUhHRVhZVkd0SGRMUWphN2YvczV5OUVKWXFSWFo5MGdSTktzaUlMWXE4UkFUcjZFWG9meUgvUThxUmhnU2tjRjMwRm9YVGtSandEaFpnMTdvOUZnTVM0ajBpTnpKR0oyYUx3REQ4UUsyTlBZc0pVc3VJc3VJWVdLQk1oRTA1SEdGT0tZTFhJc3pNM2NsQVRSR295RjI0Z3p3Qks3ODlsdmJmUUtEQW9Zaldxd29ibXZSOVR0TTRUaVpYSTRwM2xyc0hvMmtQaXJrU3NDREIvUmVicnFRQ0xTd0E4MGhUMWhGVm5UWE8yTnZOelYvT2IzOWp2bmFIN0IrMWxFR2huS1lMQW92QWRHRnRIb1RHblVzTm03ZUFvRXd0WDBTYURwU1lUR3plRVJsaklRTFFLRFc0MXovZ1VaOTNXMFVBYmxvZnJHMElwdElrUVdpalFIUytCa1o2T0ZOV2s5eGhNcnRCNG5hMnMwamxSTWNvUk5YeG55eVA5aXNXSm9NRUcrZCt5VjRoUWtqTmEyQTMzSzZRUEVvZEZlMk5MWTBmZXl4bUZDRFB3NmRtK1VEcjR1Z2dpQjZtVHdTWEJxdS9iOTlMQUhlRVlzenNBSTNxVnVvWWFaN0o0d0VpbmNkOW1TVHVDL1A3b0Y2a3Z2Z0hIMGxSdUNuZmU2TXJGd0svR0NQazZGdjRXYmpNOFEwMXVMUHhwSGFoYnRLOG94K1c1SHViWGM4MngyNi9nU2tEeDlFZ0NHdG9qV2ZhenFaT1VYYVFNYktuQlhhZUJDVzVnbU1FdEZ4VWUxTThvSVlIZEpFa3NSbUh1ek9SVTJWdHY2VTZDaVRwK0Z3RURMRlEvek0zemJneEVwU2YwbEpYcFMyYkhKaE55NDdxaFBlUFlVRTVJUStqbVBUUllxVFRQYlREcWlDbW8zam9pVkcvSFlHV0dVTWtDK0p4NUVsZEozbEVlSFdEaU5UdlZRcU5zOHBFcmFmVlBaT0FiWTgrRHArNEczeU5pbVZMeTdrdktxWUZocGlpUk9IVGJPeVd0WndXcWR6d1lqUlMrR01OZXM4ZzdWUU1nYVIvOG84ZnA1Qys0YWNEaXFYQWxhZmdIRis4cnlRZTd3RkJMVGtEa0JPbmZ5cEdoeGRHM3BtanU0dXVnVGtYb0N2U1ovckFmNUUvNHRHSFFmcUd4anhXWkhrVGJZTGlsdDBqUDR6dVBqVkhjbXl1T1JySHdRaUc0ai9QS1FqWVZyWm1CME1iQUgyYk8vYllXYyt6aHVnWTBWTW5yZ3pIT05LeXJvdkVJaFV1RjhocFZJd3hiK3NZMUllOUlkZ0pZSXFXaTJXSWRGZzl3SlpMUlNEc055ZHpYdU5tek1NS25jZ0MvSnV0UjR0RXUvOXJQYllrekQxV0h2UERBdExMbThNNkFFM1pWM2ptMGxsR1hJU1QydVBrTHEyc0Y5N0xBbU1TM0dJWGNXRW4zZ3MyM20xVC9pQ2NJWmhQNXpaZ3hlQ0djWWNhZFk0a3NoZDkrSXhDendIbWRBTWJJUyttRzBiWlVVaERUYmQrbFhUVVprWXRNc0lVSm1ka3pNenE2MnJnTWF6QWV4RXVHbFVQU2hNMjhSK0ZadHNYSW8xZGF1U0tIMHRMazJvYW9uQVZwLzhiTURwYkxWK0EzWCtCK0VHVEVlOUlaYVhEV3FEQkhQMmNkVEQ4SEVKTGRQYTlxZ3cvdGtQUnZNQjd1c3ZTelVyTnB6Q0xIcUtKeDI4U3pDK3RQVm5WUE00L083dENQN0ZqM3luWDRPOC9GTHg5RXZMWitKMUdtV1hwS0cva0kva01hb1JZT0hObUtOa250T0RRUXFoa012Um5GcS9IZU5Bck1Zc1dGZ3padDkyWkllK2RCWXdReVg3eVgxMXM1ZjFUamg3VytIanhHM2hUUmFDK1Bhdm1ZUVU3UUtWcS8vRTFCL3V4M01iM0lxengyL0pOSGpPL2pMU3REL0VwMzBDU2pLL09oMCtjSTMrRmNLRmlRcmJ5Uk1ZdmR6aXFQaC9KZ3hxcEd4cmsxV1hyQzl0QWozZHhRSHN5Ly9ZMHRkYW5Yc0RzZUZmTyttV1ZGLzJRS1o4bWF5NDhSSmo2Skl6UnQvWlVuUjUwWXY0Vjl4aGZuSmFaamJ4YnJSZlpNVUt4eFlrVkIrOGR2S2FoNWp6SmlML0hCSzdYT3U2NU1wWXF4R3RvM2o0S25lTFM1NU1JM2R1TCs1aUtkanhVT0Jnc1F4bWc3d0dWR1kvRXF0VGY5bUhkMUhLTEsySWp1Y2NhSzExaEM4eEVGN2ZSOW9TNUw2c0t4RTNoclpkdU4yQS9tOEN2SEI1b2l4ajZRWGE4WlZIazJ5eUFFeCs0RENacTZYbkQwdTY4U2hxVXQzMnkzQzZkeWxyL1ovSUVpU3ZOQ3BEQVQvQkZEVDdNYTAweU54YXlzWXBYeDJtaDBKOVMza092SFpFWTA2TVF0cHNqdk9uUFhLNkJSdlU3RURPRDlyem9kUGFYNXcrV2RNMXJtU1doYm1hblhwaitnNkJ2Mk5nOUJKSVVCYUlkOUNXdGVnR0JPTnB2bkU3MjNzQXNVM3QydGVSYjJQMlgyZGZtQjVrbUJHZGN6dVB1WUM5aXRhSkwvN09LQldwM1BGRDZ2UDI0cmJMbncxQXQwZVFyTGxDL1A2R3dZKzZJdkFtRTdLZUQrNnhBNjBwcnlYMXJkVmFEc0ZWcjhFT291Y1lDbmZXc0FETHR6dm5YendJU3F4cm9VcXFUeDlqVURhWjlmQWdLUHVHbUxVa0hiaGx3Y2RHRmtUQ0JsWUtuOU1WdWdQZGdOQVdzcHVKL1hnR1d2VXl3NWx0T09oN0c4UVo5MHpCa1o2Wkt6Y2lTYkw5eTRnNVl3RmJnUEhvRDdFbk9NMVRKQUFLU2d1L09Wb2dlc3BITGJTdzRKUVJvQlU4WDh0NVZNaGxEM20zOGxHL2tIajdyYy9QeGFxT0IxVVhIeFJ4VlNGTFNpNDJuTHd6Y25DdVArYllKNGpORTVBUDF5NktwYytoUnBCbTExRGdJcWI1R0FkbHRDMkFNZVZCSU1MN1NlY1ZzRGtDc2tYOC9QS1NyaXIrdFBjdEFvYmt3UU81WFBJK1NUTEZFcm1wU3Q5UVdkRzl0Vjd5TjhQcmVBZGx1cTNEU3FzZ0QzQUxpUEZ5SU8rR254b3lQVGQ0NzFJeGNWWGE4VlFHNHJ0dzBRNkl3SEFvQ0o1Z1FzSFdqMDFEQktBeTRKcXh6dDJKVjdtc0tCTk94YlVtOElvSWpZelhtL2Rzb2Y4dkh4dmVnaFhuR1BuaVEwYXM3dzJIZ2VmY0huenJxUDN2aDAyS243b1NQVkMraDZaSDdFUTEyRXN4OUgwRlZnMlRFL0tmMGNVMEF4RFcvaE9CY21uVW1RWTV2SHdpZEhwNjVYaTluV2Y5WjlqcGxNTUx6S2prdFFPQlpYdmpnYndGekJtaHpZQ2xhekdBd1NkTzZTSmxDcEVzL2liaisrZ0ltZnJuQ2pLZE56OE55YmRmKzU5d3VlQmkrOVc3T2ZlczRuVVR4aXFGSUpTNFZCRkp5NUhJUzl2YW4vTDVMbEw3aCtDUkQ4c25KWGhXSGRIL3d5ZlkrRm5wcGkxcjhSSzJ5eFBnSnFYRGZSdkVoRXdjeG9tT2FnMjBsZ3BYcWZmUFRaV3RzZGQ5UU9EaVhtS0hWU21XTk9PT3VVMDg1NHBxZUx6amx2cDE3ZW11dXlKcGYwOXNJcjAvWFZSN2xLRmZwWnJiOEJxZ3cweUJDRERUWE1jOE9OTk1Jb1k0ejJqelhHR1d1OGFpKzk5bDhNWWhHSGVDUWdLZnpTbk93M05qeEEveUFnbU9aRE1ad2dLVHFEeVdKblhKbTVQTDVBS0JKTHBESzVRcWxTOTgyUXJkWHBEVWFUMldLMTJSMU9WNndFQkZyeUJaQ1Z0UkMyc1JYWmlac3Y4NUxKdjN1dVVEcW9YR1M5MGpKT1Y2N2R1SFhuL285K0pXdVRqY25XWkcrbjd1aEVHTWcyS1FwdjBhcXRaeThkRk94UUo2OHUzWHIwL2pGZDFPRHlmdzRBQkhYcUxyZ0xsNjdjT25NVEFvWEJNeU9RS0RRR2k4TVRpQ1F5aFVxak01Z3NOaWRYV2JuY0ZaWDA4NVJYTUFEb1FzWHlOc3pIWDFOTHZZQ2drTENJcUZoVWNRbEpLV2taV1RsNUJVVWxaUlZWTlhVTlRTMXRIVjA5ZlFOREkyTVRVek56QzBzcmE1dTB0aGwwUCszc0N4QllRbGdTV2FVangwNXE2N3hJNzEvRG5TL00rdzlldlhuMzRkT1hiejkrSFdKT3RnVWtQTUhqTVZBRWhoN0VGUTR2QWJlZnlIWEFlZ3RYQUZGMElhL29GMGoxVmtwS243VGY5TXVSaWtrYUhSVitNeC9HQ1dxMlFwVmRCTlQwVjJoK0YyOGFEc3hCaUJzWUkySXhnWHJwWXBydXhzQk1jNHRXWUw5eHVSNlIyaW5ycnE2cDFpTHRkVEcxaThzUVEra1BaMkZ0dHF6MzE0RnRPL2dBcmtlRUZ3SE91TWpYRFpqNXJ3bmVKUHdvTi9qS01hRzJFM3A1aWhseUJkeXJvOTEyaUlqZU93TEViMEpGVFo0TFdYTzdPaVFPWjFFekg1bndIbkZYbG9FNElEa21tWlcxSWJFRGVyK3dOQ0ZGc2s3NVJrM0p6S0U0SWJXdGsvNHMvOE5zNXppWTg5QXE0WkVOenpxUUJUUm5wRDN5RG1UaU1sOUR4WmdMdllGRzNqcGZpcFpGdXdYNVloYzdMSmZzVU1KeFNhNmVsMkkvcU9mdUo2bkxKUVZjUk9WdWw5d3pVYXZuVTZSZUtyUEgxZUxvZTB4Y25keXU3L21jU0lQaXZyQ29EdytUMThBQUlBaThKMWVJOE5lSU1EZ3BFek9ZdllsSTJXTUo1S294S0J1RUtYUDFzL2YxR0dla2ZySlNGcldyanFyYnpCVXdXY1ZxMFRUOTVGWFRCdHJ1bTN4eVBTNXJGV1k1UkFoRjd1QThJQWdNZ2NMZ2FBak9BUVNQRDNJVERyelptM1JEMzhKYmNKUXdGSDNCT3EwTGtReEZpRk9CeU91U1d2dTZrN1p0aXhhQ0p5S3ZqSjNGa3BVR2tObTJ5TzQwTTFnR1BhWnlWektReXRCb0ZIRUxObHJZWmN1dmdpS3N3YWxIT05IYmZBdFlvVURCMnJrSUxiK1ZXUzJrWHNISzAzWStHbHZIKzRsZkZPYkIwVGdHaWlGUUdCd053ZGs1VU9nWW1Md0dKZ0JCWUFqcE9JRU5vRktNYSsrMFdyM0t6aGYzYkhHRzBrN0l6L3p4OS9QSDVrenlNUlQzNjQzZk5vOU15Y0M4blRJRnNSZUc1VG5CcmphSStOVmszUERISEl3TnpmSFlXdU9TVHhaL2J2dVBtd0FmQkVOc1lBMEFaQTJ6QVF3c0FBPT0nKSBmb3JtYXQoJ3dvZmYyJyk7Zm9udC13ZWlnaHQ6bm9ybWFsO2ZvbnQtc3R5bGU6bm9ybWFsO2ZvbnQtZGlzcGxheTpzd2FwO31AZm9udC1mYWNle2ZvbnQtZmFtaWx5OidPdmVycGFzcyBNb25vJztzcmM6IHVybChkYXRhOmFwcGxpY2F0aW9uL2ZvbnQtd29mZjI7Y2hhcnNldD11dGYtODtiYXNlNjQsZDA5R01nQUJBQUFBQUpNc0FBOEFBQUFCdldnQUFKTEpBQUVBQUFBQUFBQUFBQUFBQUFBQUFBQUFBQUFBQUFBQVAwWkdWRTBjR29FeUc2Z1dISkYyQm1BQWsyNFJDQXFFM0JDRHd3UUxqMXdBQVRZQ0pBT2ZNQVFnQmRvUUI4SUxXL2hua1FIaWJudnA1eEMzRGZpQVBidXErWVRVeURZbnQraDZidU1oWWhXckZYTFROYmxicFRKQnhuWmsvLy8vLzc4a3FZaHNUZmVuN2JieC9mQ0RBQ2lLSWtLZ2VYaUFpM2t1MVlpMFZtVUhFUmttb1R0MmlrMkJzeFEyV1dhcHN0Y1A2M1lNak1GUFRQOVE4N2xhclpqSGQxSEpuSFBHR0cvSk9XZThqbTVSTnc2K01PSEdGTHZncEMyTDRZS1VlL0puU2g2b1ZlMmNzTTZ1dUh5WmJJbVB3UnZ4V3g2TDkwa3VCSWVmNXhjNHVMdTBtTXZhaTNpZVBrdmdGcGVBU2J6WXNVaTQ5VngrYTM3VU04dk5KSjRtQVM0R0JyL3V2ZVFKc29PajdiU1BQKzZodkZ6Vy8yTXgyVGFOeFZTK1ZJSXJCQ3JyV2JOVEpVOUlmQ3QwalVJeTVTVUdwbnZxeitOQTNJTmRoTEpTZFNwVnJEdnV4UTNmMnMwU283VTdJVTdYQ25PWEdIeW5NNjNKVmFIY2UxSWtadzczaGtDNzlkNmFUTkxTaTJvMmdvd2JIbFNTUXowSHBHNHF5WkdzQnNxMjRiV0dySnlzUFBuQzkrQmY3NWs3Yi9kSFVBZXBnb2lpU3NwMGNVVU56OCt0dDQzY0tJR053V0RFQm95eHdXREpnRlgrMWY4TGFvTWVrVUpiWURSbEJtWmdnMVVYNnAyS2xhZDNucWZlblhxcHdIK3gzMzdmWlJQYWs1ZzBUYWREVGd4SnZxaE12NTl6cjJhZEl5UkNJcEd5V1orcnZmMGg0dEEvblByZlpXMGR5elNDd1FoRUxKNTBnQlZySmE2MklhTFdzSjY5c0dJWkc2T0FGWUlqS2gvNUxOejdGeWJxZ2RCQ2VXSkwwTk5mYlBmdG5TU1VjT01KWkhGZ0ZzcEhkU3hLVnR2QitieS9XZlYzOWV0TWN1ZDl4N0NxaUhVb0ZCdnhFQUtrRFlRaENReGR2Ly8vZjlOdm44clBPZkRHa0ZCU2N6OFM2eVNFdG5ldDBwbDg1SmxjMnZtNmQ4YVJTTVZDQ0pSVUZBTFJXb1FZNTk3N1hENUhMUDVYbHhWcXMxY1FQTVUxTnV6aXIrY2Y4dlo3VWpCYTFnWHNDVVVjZWJLUnRmWXBzMDYwZFZLZ0VlS0oyNXRveUlnMlFtTU0yd2JxMlRzallUTDFpTVBpb0ZmSDh0enlyM1F1aklIdFhudVNHSndYZXRzcHhrQVhHQ0FrOEo4NSs2K1lJemVLZ0tnOFovS0x1Zm9ibW03cmVtRnMrZ1pxeEZnNDNHdjdOcWdzT1RGOVBlOGxXR3ZKenFLMnM2aFYxNkZXVVhHREJKVnZpQmZ0aVFkempEeXY2ME5NL09EZUNVUVFlUXlaZkJwNzlQNWRjMjNUa1NIMWFYeXhZWHRmcGhTQ1ZLQUhvUUlmLy9kTnJPeWZPKytkbVpadEJTc3dqU0N4Z0NwSCt3aFAvMzd4NTRZcE5iUHU4eFR4QUpwdDMzWEhXNFNWaElDd0dCakF3WkM3cTFUTDdobFFxdXJHaUxXL1MvRy80ZWNRNGdTQW9DUkNJQVdkc0M3ZUdXZFRjcVMrcFAzYkdBTklPcVFMK2Vtcy9VL1h0TXc3dmthYnZaNUhxTmhFc3gxSzRIK09aYmJwSzFGYWxoV3l3aTJOcjdBMXJzMDIrNmQ1QlZKRVJ5ak1ack9kK2NmZ0ZMQUVWcVRFS2UzT3lIUCtlSjUrdjlUK2s1bVhBdGxXb3ZGQjZmRXYzd0FLWFZJVkp1RzN5MzYxckU5Y3NURW5ZemMrUUJjSHFBQnlnSHlHWmw5WHp2czFPYW1TOFIwang4NmhDeUhiV1ZrMXY2ZG56eUk1aHhRQ1ZGQWVVT0tRZUhoKzZzLzJrM3VZaVVOb2pFNnRTOUsrUC9QK1RGaHJPSEN0UTJJUkRqek12NnJtQ29qV2lkZXBxL0pOcGZGUzVXRlRUK25EbkMzRDlBR0twNDhpQ2lRbzhxc2FvbHdvVjVLMm55QTU4aE5FMmdHaEVvQWdlREpsTTczWUtSMlNHOXdsdVpWTEthME1VN1pzYzZiUzJqQk9DWUZyb3MySndwZG5Tang3RStGbVpXeEx6S0RUMHN6blU5VnFDWWNOS1hTWDB1dTkzdHhlVTExUkR2N01jSUFaREVHQ0dSUmxpWFNnSkVkS1RwSURBWkIrQUlRTk9WWjdXNlVVbW1yZlZmc09BcmdtZjJ6SFA2QThBRjlVQWtjQlFLdFBhWDdiVitTK2twM0p0Y2NnZ3d3aW5ZcFVwREJpakZTTTlGNmQ0elBMbUVKZHdoSVZCNmpVVW1UTHpmL0JObk9oVk96RXFuZ2NBZ2xXV0tGbmFQZmFKVk9qSVNHbDh2KyswbHdvYW9BTkdBUUl0WlVFOFd1YUs3bFo1QlFYR0I2ZjB6anArVjVmL2MvTWZjdXl0VEZhS1ZFaWpvaUlpRkphKzM5RGdQNW1lZjUxSGdPZWJTL2FtZ0Y0Y2FaTUFMSUJtR3FaWUFJVVZWQlVxNGFoUmlNVVRacGdtS2dWaWpadE1MVHJoS0pMRnd5VFVnQktUbDFnVkdnbEtGWFpEa1lkN1VUZWxSQjdkeGNFL3FWTDVEZmRFSUlJalE5QlVIaUFpc3J3SVdnZlNrM2dvU3FiUWF2Rk5nMnFqR3IyQjJlaDJselI0ZzFaUWNEb2IwczlpT1FCZ1A4QUlJUjhtMzZVTVlSRG12VlpHOXRSTGMrT2g1Q2Q4QlYySmpSd0xtL25ZbjE1ZVVEL0htK0JnREcveHo0Z0FJd0xiME9Ed1FNc3dTTEU4WGczSFlOaFJlQ2xwdHgvRTErWjV3VUZUd28wRUQvUVlBbENFQWtsRHVBMnNGRVd6eTgxZHpTMmJ2M3pWR1Vib0hQa09EdEJNQlE2SDVhWlhZRVNsZXExNk5MOWRUWlliYVB0WC9jU20rMXM5dlBiK1JmeS85NjhMb1R6aFV3ZmczR1dkWkF5R3p6dnVtNnhwZitUVE1nQnNGbnI4NS9tT1Q4T2RnS2Q2d0g4Y09NcXo1eS9kUFhHN1h0Qk9Gd2VBRVpBUnNQRXdRY0tqWWlPUzB4Sno4b05BSWRGeHNRbnBXWms1NFdFUjhVbUpLZGw1dVQvTUdrNzdSSTZDSWVJZ282RkN4QWNGaGtUbjVTYWtaMFhHQkllRlp1UW5KYVpreDhhRVIyWG1KS2VsVnNnRUR3VVRZbWVpWldEbTQrd3BMeXF0cUc1cmJPbnY2aTBvcnF1c2FXOXE3ZTRyTEttdnFtMW83dWdYaEdQMXllUUdaalpPSG40aVVvcnF1c2FXOXE3ZWd2RVpaVTE5VTJ0SGQxOUplVlZ0UTNOYlowOWxma1BZK1dVSHNvcHFxaHI2UW9NajAzT3pDK3RibXp2RFk2TVQ4MHVMSzl0N3V5UFRrelBMYTZzYiswZURJaEwyWnpzblZ3OXZQME1UODZ2YmgrZTN6NS8vbzlPTDY3dkhsL2V2MzZQenk1djdwOWVQNzRQOUEzcGRIdUJXRUZaVFZOSFgyaDBZbnB1Y1dWOWEzY2dQRFk1TTcrMHVyRzlOekkrTmJ1d3ZMYTVzLy9IL29ZckhEb0loNGlDam9VTEVCd1dHUk9mbEpxUm5SY1lFaDRWbTVDY2xwbVRIeG9SSFplWWtwNlZXNkRxMDVUb21WZzV1UGtJUzhxcmFodWEyenA3K290S0s2cnJHbHZhdTNxTHl5cHI2cHRhTzdyN2hqUnRQeEFyS0t0cDZ1Z0xqVTVNenkydXJHL3REb1RISm1mbWwxWTN0dmRHeHFkbUY1YlhObmNtNXNlaXhxUWpKeXE2NVFKeFZqYjl0QjczRnlaNTFRN3pkajUvV3RUZHVPeFhQZnAzQWdqMEN2UUxEQTRrQnBJRHFZSDBRRllnTHpCcmk1bWJWTG1IUU9qVDJ5MkdMUi8vaFJWU0tST3cxSUhHZTZBQW9BUkpXU2Q0R08zTkJGVlpIMllZbUFXVExtVkZOTnFxMExpY01jNkJYT2pNTXN0SCt5RnRWQnBxdkJqQnZ6aWZrSzdUOC8wVDBjbkxZR0FjUlJmQXN3MlZFbW5jZ0g2bkoyNm1saHhRQ05aRldhMWNEeDdVQi9jaFhMU2YxSE16WnIzSm12a2pOY2ZOQ0Z6RitUOHlEN01LY1h3MEc5TUZubldQTFI4bldQRFdtUFdray9VeVMybVVncXZMWmx1bGNUQmlRVWJON2FrM1R6MkhiWnNkTmF1VmdITlFkWjYybzN1S0UvMHdvcWRvMGFOK2Jpb2VhMnVlaE9tMW05dzZTMitkWVJITGxqYWRwU0swS1dmQ01uS00zbm1pVGVsVXBSRTRTeXZMMkhob2Q0R2w1N01kMVcxc3ZrK0NQdXdxN3dDb2RLM0Y2ZGFXM1JtNWczSFVhNENseGVNSS9qU0VscUl1RWswSjBzeDI2N01rSDlVNUNLZFpmWmlzNUk1L1dBTTZtY0RMM1FRaFdnZmtYeS9ML2t1TVZYWWgyZEFsTlUyR1VIbXZtYVJMbFVyVFhBdG00S1llMHIzYkNuNFBRMWdDQUZTTkpvaGE5MmRYU0k1K054TSt4L1NXRmJWQ3pNQlVXbDdPTnhmOS9yWVRVY2Nad2cwOFJGMnZkQjRLSkFwcFJSM0s1aE40Y001RDFxeElPdE5Ta0dDbC9pR3Z1YU0wSE0rbFZpNk55RVp5SmdjQi9KbERKWmplVmpCZ0I3ejhlaXhmTHJVY3pHTGNNWnpTZVI2TUd2RjZ5emt2dGx2bG9mMDQwWEJTZ2VZNHV3K3RmRmdvYW53SHlBNk85NGU0VGt3ejJhTkpTNnNsYUVFRC9xSXNwRDhmeVlwTXJLdWNGWTNjVXFTamIvbjhKVHFyeFZFNlZpUVlXb2wwbWwyMGpBUG5JaHdueUdRMzJtUms1Um9ERm8rRXpTck1SOUpIYksyTHRMV2NvQTljRy9uNU15VUdMbVROekUzQzVHWWJyWEdWSTBhS0x1M1BhR01Jcm1CMEpsS05OR3grSExMeU1GV0sveU1DSFdGQVFrVUZxSUFHQlYwMkR4UWdSRVk1WXVWeFlwaHV1MXBXMmFlMUlSZDBOT3k2UGs1NG91NktyYkZiVGl3ODlBVHZmVm41NUJQQzd3UllsVFlVRGd4bEFCWEN6b3diemY3TVNHRWtDeVp5TXN0eU9KMVZKWHliTmUyTVpkTWUzbFg2akh5OHVoaUJVQW9VcWdzOExtOFdEeUU3YmhLbk1CbWJ6RTdreisxS2k2M3RncnN0MklhakNZQTgzaFF5SlM2elhQVmRscGphNmZkbHc1OUljV2hTY0FoSnFFQmdPVnpLYkNRYmwzeXIrZVZ4aDZaL0lmZjBVWmxvcVJuQ0pxaHVkNTdyVDdVbWJWZDViN0hLV2h1Y2FITnZ1cjUwSS9vNmptQ0tUNGdRQUtBZXdOa1hTcXV2SFFDNjlidDdmUTAyMG5oVHpiYVE5VFZlUHJYa2ROeUY0QmcxRHFhUmp1amxhREQ0RTBBZ1FTWmNEd0pHTFdaakEwN2dWdTI3bHRTSWI4OUZ6WEdOWFI3dWhYV0ZoY0tvTUM1TUN0UENMTlBQTFFvR1ZNemF5K2gzbWczWHNtYjIvbnVJWnYvbkRORlpUaTE4WWhGV1lCMDJZeWYyNDhpZmo5YTMxazBFNXhvbWx0Vkhxd1JYL3BkYlRlQmFUV080OVE4QTE0UDcxNjZySWdRbVlOWU50aU5pQUY5NHdSTm9lTUFiUHZCSE1IREc3K2xCS0x4d0hGa1UyL1IzRmFuVXFFTzM1ZGJiYnIvanpydnV2clc5Yy9mZS9mdHBidVdHMEgxSm92b25JbTdzN2pYb3VoODlMVDlhRWRoVnF0V29SWWZKcWM2WXpJU0ZsdlFycXQxS05seU9keGNmM3kzdVJpb1NENWZwYVJZaWl6aWFCRDUwS2tDVGhaUnRqSzVPTUR2ZkdqWmVVWDhsMTBXMGF1dlhUZkJQMWt5WnMyVE5sajFIemx5NUNTQUpSc1dVVHMvRUxrKytnc1FZSzlWNHEyeHdZcGZ5NXN0Zm9HQ2h3a1dLRXNnS2xaRlZuaUsxMm5SYmFiTzlqcnZvdHFjMjlrNWRlL1R1MTRlL0pDZ3NLa2lDWktuU1pja3pTNWthamFCMVFSV2hpNm9KblZWT1NrZmw1OG5VSmE1anpLb3VaeWJSY1NaWFY3S1E2QVJUcXF0WlNUU2lzRUEyWEtPS0NtYkhkVkp4b1J5NFRpa3BuQlBYYWFWRmN1RTZvNnhvYnFUektyRXVKV0kwdEc4a0p2eERGZVFma3hDNm5KVHd6YXJJdDZvaEh5K05QRklHNmJzQTByVmtoSzZyd2JxU25OblF1bEVkK1U0UTh0MFVoSDVNU2ZoZURlVDduU0kvNmd6cG04NlJ6cWtnd0lIREQwQU9Ba0FUSWhLR0dESDhVZEFKQUdLRVoyWkQ1SkNMek1rcE5nNGR4QlhTU0ZCZ1FFRmNsa0pBZ1NZVWh1ZEE5bVZzVEx5L2Vxbm1SRUFSOCs1NEN0cE10WjB4SVVGK2FqVVdvQW5BdzM2dTg5VnRxRVRadVNpOFhGYzZ0RkI4K2tLVGg1NEx1cldyVmFkZWcwWk5tclZvMWFaVFQ3SGlKZlNXTEdXd2RCbERobzBZMVdlc2JEbmpKc3BYV0o2WDA4b0dkQ0M4WjRJNVhhTzMwYjV4bmdTTlRsd09xVll1bjFsYXRHYVhJc1ZLbENwVG1TaHhsU1JKcTFZTEpGT1R2SHBRaXBRMU91MnNjeXNVR0cwRVc2UXQyaGJEeEk2bmNKZ2dTeG1RbHJGanFwWWk1V0FaYVpTU2tYUWh2dDJYaXJwVlIybGJsbnkxak9iV0tCMUJvZTdUcVJSMUVzcGZkenA0WHVBSFpwY1JZREc3eWQwMDdXTWk4cDh1ZWJWM1lndXBIWXRMbzhHQzlvbU1pZ3h6RlJneXc0U2Fqd1RUK2NwSGQ2QkpaVUpzbkFCcVRmYUo3RThxNEFadUl5dkFXekxhbzhFQlV1RUs1MjhEUVB0MjlTWGh5bmdXcWN6Z285MmNXRXBNaXhISURzNmM3YnRZZmlkdElLbGczeE5xRTREK2U4dHdqOXBVRVY0TlMzZzNHRjBUR1MvSFNYS25Zc0QrZHVMaElBRDNJWTBFWUc2bTJTL0NsUCthOFplNy9WTk1OKy84eTZ3OHFEYU1EOFlQRXh3dGZxUFpsdUwrcEhtbWlZbUdRcGl5WU0rUk0wOEthYUlQRWl5NGlEQmdWcnRHdFZRVWpmV1dTeXZGazBHbjVkOXRxYW1xcGc3cXAzNzdpSGRiWVkwTk50bG1sejBPT2VxOHoveVQ3bHdqUzFGS1U1R2FuMmZuMS8vYjh6Y2kveGNEU3RuUS9FVmh2MW9LbmFxZFo5cmNRTTBZTHd3azVXZTAvZVlKbExUaHpVVVQ1dXhlZW8yME1BQVREbnowYjg1NUtWOEQ1eWxWS0UwRmxBMFBsSlU3dFR6VmhmZmZYRWR6K1QrdlE1WndheWNzL0tkLy96K2VxaUtQU3lSZ1BYR3JVTXhJOHVqenZnNE9kOTYvdStyWW10VElld1kyWUEybVlBTEdvQUJxWDA3azRZaDF2czFYZUFPdjRwN3NzODUvY01RNy9aVHBTa2ZhME5kTGhTOFl3SVFSSFdwVXlKSENoWWpER0lJY0VDWjBhSGk5ZXFhL3d4N21NQTRoZ2UvdWxGN3U5cytGakRaT0hJK201WC9xZDJUSEluTGZ1MFhoWCtNQm5SQ0R0QWt1QlgvSVBza3RjTmh2dnh3SEhaVHJxR1B5WEhKWmdhdXVjaGt6cHRCZGp4UjU1a1hFNHFIRE9wM2tFUUNuQVhDbVBBYmdMQUE0bS9IeXlHT1NDaXFackxiYXBybnR0dWw5SDR0bUFFb2N6YWVnbVlBU3YvSnZUWm9QcGVRbUFMUVFTalhuRGtCcklKWEZoRjFrV0N4R25OVVNKRmduRmN0NjZkZzJ5aUMwU1pZc1c0aUliS1dnc0UyaFF0czFhckpEaXo2N0RGamprazAydTJtcmJXN2JZYmM3amp2aFFaL0Vobm9FUUt6bmhub01RR3pJUUQyWnNZU0NwK0xFZVNaQmd1ZFNwSGdCWWZWU1BwZFhCcXoweG5iYmZUVHNoRS91K3ltK2ZPTUFZbnhEK3dKQVFkK1lLRWdRckJpeGNCSWs4SmNzV1lDVFRncnMvN0JnZ3NnYm9MenJDT1IyNk5BR1o1MjEwVVVYYlhMVlZadGRkOTBXdDkyMjFYMzNiZlBRUTlzOTlkd09yN3l5MjJ0djdQSE9PL3Y2RDk2OEh5cDBGeHpRcjk5Qmd3WWRzbUxGWWV2V0hiRnB5MUY3OXVQNDg2RVd3eWZudDNzRnAzejB4V25mL1hTK2YyUHhKZmlkS0pqTDgyWDBtWC81K0NyNnNuajV3TmZRMTdFbGdhK1REdXhmU0gzdTI5TUZ1akpoazhmL3lmUyt3QWRmc09BdUMzZ2hYMVAvckNBSVF4UXVBa21rS0dUUllzU0tRMEVWTDBFaW1pUjB5UmlZVXFSaVNaT09qWU9MaDA4Z2cxQ21MTmxFeENTa1pPUVVsRlRVTkxSMDlDQUdSaVptRmpDRWxZMmRRNDdjcjBUL044ZkpwVkNSWW9DbGxsbGhsVTIyMit1UWd3NDc2b2hqVGpqbHBOUE9PT2VzOHk2NDVJckxycnJ1bXR0dXVlTnVpRXhVcGx4VjFqTGRSdVBWNUJrVDFhV0t1WGFXUlpwTDNlcHhheTg0ZE1TSWRvNURyY2tBeDkyMHdDRDFoYUo4bGdXQ092dWdLVmxIaWVsbVdaNHg2WTRKRnlkZWxHaU9WM2pPUm9ndFpKT3NWS2tsMFpsbEVxUXgwMEl6OUpxdjM0QkJmWlphQmpodGpiVlcrek5WOVpwU0U1dW9LdzJKMFZENDcxbFVYd0hxM3dMMW5WbitpNE12QURqcVkzTnBlWXNybG1RTFBGcDhWWnFSWWliQlQ3dDhta2pPNnhGRGhXbHQwY1l1cVNIZ1BsNUNLQStrcnB6QjU3ZGcxOXhUSzBsSGFUSnlRcTJIRTlJYmFRQU9rS2pjdDNyMGdqWTI2SWxON0hTU0tQQ3hrMXlybEdiS2Q0WnpUVlhmY215dkZNOE5tS1k5MXZoalF4eXJGVkhyTTFwc3JJNWFiZTBTNTF4UlVKVjJxckpXYi9SaDg5TW5wYTIzSzNXRndta2tjdDVydGZxaExiMEZ2RmlhdjVwYTBzM3RVVjdaaGwrQjJnZEtGd2F0ZXpVVlBxVnAwMDF1WFJ1cVp6V2VEcExaNzZZNWR1NFU0WDFiYURkcWtQckVWdTUrdWZxV01WN0V1RnVDVlhmNFRTQ1AvMWNlOFd6aUovcmw4RW1KdDZzMTY2azN0Rjg0dytsMlBtd3UyQUtkUjFhSTd6dG9xWndvOTVPNStwVU03UEFKZDllOUNYSTVlSUppcXFxWE85dHNpL2V6K2VpcW1naWd2WHc2MDhCODdNMzE1RjQ4WEpVVWU2azV5ak5IMjdvb2d3bTRzdFJQMFNxdFU1OU4xVjNQeFd5d3dkckxWR3hab3Q3aHJtcllQZTFzQVg1SEVaWjU2eUVFc0VTQmkyTzl3Umg1WWRVUUdMWmhyRmhDdHRFOUJ5QWhTWmdseDJ5MlZZUlM5d1dIa3pQN2ZoUVJ6ME11U0ZGamhHWHdCSVR6SmlBUVVNSURWN1FNOG9BcjB4aGhHWFFDQkNsZ291K3BmMEVsaWhGNEVQZm1GRXJLckZ2TEJXYUlFWlpCaGpBSU9zNFFBeXBVTEtDTmNUREtYaVplNUV5K3RVWVBoaU1tT3RMRVI1bFlVbStSTFErTHdWSEpON0E0Mk1WNWYwUGtWSjFQTlBWK2NvZWMySEdLa1loMnlSVnI5cXdkck1aZHpGWmN2VWdaVWFGbUt1NWpJa0JEMUJoWWVlNkxKV2hjaVdpbkVrcGx2WktLdzh4RGJvWXpncGtzY2V1RUtHakdGNXQ2eHFTR1o3elFNNzM4KzJlTGpxOEVsbFBhNTVnTElvcEhMOUlHUnVBUkRMQnV1ek50YVNHUkxTMFN3OFNydEU4MGptRkxUSFJsNUtTVUlwbFJwQkcwMFpCM042UU85OVFqYWN4SDV1ZjRFamxPc1IvTERkeXZYVnVHdTRpVURPaVRnekxPN1NKalVveEx3YmpIRnNzckNPRldncHVNWS9kVFFRclhHMWROWHN6ZGV6Y3FnQk16RUZWc216VzdUU3luenlFTFdCTFplYjJaemxtdGtpWFVhTVgxVkFaN211YW5QNFFTUXRPVERqSE9pcWYxc01nWnJqdDJGWEMrcEE3dVpnVWdReFBMalo2MzVobTFiTVdmbnFiV3BpZGN3WnNjbWhkTWJiZkg0ejJDRDRzdEljakYrSmd1czNrRktqTUlOSytocXhCQ3FFajVnRktLVGdjeGxwc3VzbGw5UDdhUTRlYkFhV1RtcHB6cmsrZ1V3ci9hZGY4UkVMYmRYd2ZSZ2pBcndZUk01OVZ4QjBFNFRUUWkzYTJwNFNyQ0tZR3IzMitweng4cXBZb0Q3bU1wVUMrakdRUDU2bGZNdU1LL3JtekIwQXVtNU1mWnNZMmR3aTFRN1lXdm9pUWlIVjNQcmlsVmdhRGlIZDhNdzdKUUF0L05yUW10cXlORmlDVTBUVE9FZWVJWllIN2dVN2hjTW1YT3p1QURLNEl6Vng0c01hYjB4ZzVld05RczhBMFIwQXhBaVF3QlpMQ251bWhDeGUzMVprSkJjQ3RUYXNnUlFnaEF3QzdTYlRabUtUMDZ0S2pxUUNESGpOY2NYZmVVd2UrbHRnTXgweVhtMENEODVQbmNBQWMyTWh5WTlnaVNFd0M2S1Z0dGJXR3pxclIzRHJNcDc3cmdCMlpIQUcwRVBTM29vSXlKMklXOXB2bGlSYUFZRG1oUWxLbE1hZzRsZGtmb0FSNjhXbjJaaUgyTXFwQXdvVm9OUmNwZ1FNbHBzMEIySzVrcXFjbjE2b3dIblhYVTgwUERaUmQ1L2F2eERpdWR6TnRrcStyYTZ2OFVSTDJuMjhjTFV4VDBsMm1vc1RIWXBGOTJyYTdLL1dBdDI4bzZnWFRHWkxaMExZNkJ2MjBWQVozbkJFa0ZHWUtlMWg3czBITnFKUWtvTXFld0kzY3c2NE0xSFVET2pxSS9XNHo5L2pLUk1vZ3RSSk0vekF5MjMwVzBCR0s0MnB0SUd3YXhCZ0NEcFhzTkE1QVVER1g4YnNjc055M2k1MlpVNzBIc1Zybk9TM2Q5NDdSVVFwLzVXZGdDTHozUi9jN2NQc2tCZG5nNktmVHA5cDJ0YllYZ0lGYjJoQzc0SFFrWVlxc1l0VU4yU0dtWlo0ek1aY2tPeXhLUGJONDhJc1l2VDRWMVA5YUViSDVrblRIT0dmMER4MEQyaDBaYnExTWdKR1JrWUlnL2xiUW14OW9STzRoemdCUkl3VnNkSS9RRjdDMmVpVHVtS1RhZDAzQ1NyY3AxMzlxRFdDTFU4eGJPVS9rSitNaFNvMlBXMTFQb1dOL1JBV255MmhRZS9jWndkZzNaZW9vZDRnNFg4bTNod0wwMVd0V20vTER1cmVsOWZ3azdmRXhaTUJCWUdiU1BtNHVPVDNmV0VSNHA4UFhqVmtLbFQ1Ri8rcEdBb3FBRnpXR283SHc3RkVFdGhnZjVzdTB0cVIrMFB6UEFKL1l0Ykx5VWFET0dCZ014N0FZUzZOS3kzTTM5THRydSs0Y0JhMXFGaEorMnBob1RxTVVSS3FnWksyZFR5UVRHQ2JZTFF6M3NDbUUvTnM5bXM3ZkI1TXIwdUk5L0RTdnRXQ1QraEJNRjBTc0FJaEJ4cmYxVDdrZDlhZmQ3NkxKUFNOTTRqMDZ3WFRlaHJwaVVXSlQzUEdXa0ZtUnRITjZPSmpwUHM5ZGlkRjg4azkrdVlBY2tJYzhLYlR6aCtadmc0SklDSHhnSUZKeWtvTVFDclpadXFBNHVTSWNldEJrOXEyREpIa2tTR1htWnAxTWlWRm5EMjV1ZlBuM0RvaTA3QjU3WUYxcFE0MlRFT3V5UW5nLzlISzcxTkU0dXgzM0dPVzlvU2dtdWJISmRCTm1ldWRMWmdKcit5cklKWWRCYjBVRkt4a3lwTStoY0ZCcWVKU01uNEJDU3pmNUwzcWJzTy9ZSXh2dVBKYnFiSHpaV2JYcy9MYVVLQ1NLdlZBTW0xS2Q0K1pFcnJPR1p2dEhvcTZsRlIyNTRWaXFkWHBuTzg1UDJzRGFBUENuSGh0UDV3K3J0MlRjOHVuTGlaVzhscWZJWWgwdnJuWTNlY2lzOStsTlVxYktzd1ZYbktQa1pFdm10UlJVMmpvT01BMEd5d21FTHBoVDRtUGxvaGhuSVk0aC93Yk14U2ZXZGNHbzFSUndhTEVObTJjUWRVeWovSUpxNzhFejY3RS96Qm9qd2dkVUZ1cGQyckJIeXBJNEJsWnpZYmVXck5VV1FNckE5UmsxYXpSNkNZZFY1ZEl3K2xaVlhaRXRGOWNOYk0yL0hxTEwzUGJvQkxRdnBoU1ovVGlwMjIyd3ZuUEx4d1ZyREJXaHZLNUxPTm1XNnRSanR5dXgrMjRtYzdJdGtvSFlBWlowRVlwS3ZhMUhqSjFpNW45anNUTWUxSmVXREFoSXRWZEVSMitCWWgwbldhMXZPR09YdUp1WCtpUmdHN0x6SHluaHh1OWhiK1ZOUjViRFNZKzE0aHNlWGJQc1lPTFVWS1hBWEZTcTNQb3JZVTFCL1FGOExHSmVkdVNiNEJPeTNmTFZ5VStHWEcxcVl5TVJXUGN3TXRpTEpIM0RnMFRPL0FQSjd3ODRIVGIwdGQ2QTBWRWg5eXFtenY1MGlYazhmbHlCK3d5S09zSHM1d2d0cXdlRktUM1J5T1FsWWRwNjlqSlltWkxCYzhBb3YxUldYa01peTJldU1KdDNLZVM2eXl4S3VVTnhCbVNOcU5EYTZSV2VLTWMzQS9YVUZjZDlFWHFCWkJ6TjZ1UWN0VjBjQVhabG5hdWNPdUhvUmVtckxoTVl2ZWRZVURXdXFaemU2OXNoMnpGMFlaUmhCb3d1eUUwdXJwU2p5cldTTFJDS1JqUTR2WVlQeksrb3FZYm5teTNPc053aGZlbWd5a3hRWVQxdlRFU0V2YTloTjZpQk9MZXdhTnQrU2t3QzFIVkxiSWVrY29qOXlseEMzOHgrYis4UUhoZEVIZ1Mzc0IvYk9jR2RVYmFWYXdvNUpVZ0xvTWpKTXBaSkZGZWtDbFJzaDlQVmFNdzlOVnl5V1NiUWk5c3cyUzFXWFZJZVAzTktiWHZrZ25iOEQ3TWtEc3F3Tk1aSG9pNjI2bndYcVc1b2U3Tk9WV2lLWTVOMEMrYlg3RjVwNTN0S05jNThQclBGelRLT29EaldEVGJ0eEJkMFpVdFpldE5wZGFRT2ZudTFCcndHeTNmNzU2RlRwYzNOazRsaWI3MzBKK3FpRS9OL3o3MTNqbk5UTTh4K3dmenEvS2xjd2JBbElya1VPOEN0dkliYmlMU3BJbHlQSDFHc3VNNndxR0hhOW9tOThycWUvdjAyd2RCNFg3YnM4YnVZREF5OWVPQWhrd3AxUU81a0duMWpOMUVwVWpDM1kxeGcvVTN6R1UwQldDdFpxalBSdkExMWkwZTVTZE8vNkVnMXB1YWlNbGFFUDVLTkpXNXMyaDZsWm1YSGFNVUdRTDFCNURobEFoTjNGUktUaVNCbWlpL2ZqSERLMWJQUjNuYUpNMWJBTWdXczVCcDBqaWFuWjZrMDV0MmtVVzlUY0pxeWNyV2pMcllhR0xBU1cvWHladE5LN253QzJQQ3ZCcmJmR3hkemg3YkdoMFpldVZvem5SbzZSdkQ0c2swRC9mM0JwNDJkWUZsTWNxdHU2VmFYbjdweHg0bitLMVJiaVpMQWlsd3BNYzYxa2FsSXMxRTZ1S0txUmRFSFhwK0ZyTXB4ZWdhVW9QcVZBM1B1WGp2WE1QaW5oMG9KSmFMMERSZEZlOFlZMmdjOUxHVGpnbndtVEhUN2RBam14VE9XUk1hL1c1YWplUSs5SUo3bUQ3WnordWdxQ3k4ditQelVFM0o3OS83bThEVWFnRVg0ZUl4U051T2dSM2w1SG9UOXk5c2ZHL1ZDYkg3UjBpMGpWQ3YxS0gvcEV2VDIxdlB0bDJoZWNWdEtsSStJdE9hUGgwSS9nRWY4SVNTTHFGcGFINjhwVkgraUZHdXlNY1lsanNiMXZDRk9hc3l2dWpiVnVlNVAxWVJSTWxINkdGN1dxRWFHWFJrYmhqUms5Q2UyeGtUSFNmdUwvZlZFS0puSkRsY2RtTDVoNEd6bHhXUDZTalV1T09LdzF2U0k4ZGRWMmRXNW0wVzFaVHA3bmx1aUZ4UTNvYndOYk5iRk1PK2FDTktRN1l0Um1EWFZFY3h3bHkrSngyQ1JDcWc1YkVEVVowQjVCT2JpSGN0d2dTZjM3ZFJDcGVkUHR0ekNUMDg4ZDc5dUZldWI0WjQ4WW1qU3pVVU9GZERwVE1NR1ppLzlWeVFRdlJxWUtZYkg0WDVKd2ZodWlTRVNMTGY2N04wT1p2cVhuMU1mV3JkUm9EZUswNXlsR3IxZjJ6WmtkZXNSNzV4TjY1TUx5RERXMVc0dEswbE11WERkRmd5SlNlR01pa3ZET2o2YVduTkZiYjRRWmR0cDUxQVdIRU4zZUw4RkhTUW1sYU9ScGxQdC9FZVZWMGdzMDVYWDgrRStuTDNxRmFTWkhGVjlPd2I4aVlXR2VtTDh4ZTVybE5qVk9wd3c3RlhaR1JLZmVLTG91bXh2UVBRTU9BR1RmckpwOWNsMzZjWWtRSjRjRmZlanQwQi94QjZic0wyNGN2eEtoLzcwSDZyZzI1dTEzbzNtTmxzcTJPbW5BRGFrS1A1VjVaUHdkN0xRbDhXKy9oUlJvTTM4ZytOaVlwOXh3Y2pqdTg3R2x1S0grTkNvY00yK3RiUVI3NElES0dXWWlWMkR3amgxN0JwMysrb05kdlh5VHc5NlN5V245RGlZV0dRTVJYUGNOVVhSZE9zaVUrc3ZZcHhRYXBEZmtWdnQrT3F0dGNpeUIyQVk5SGdNRzg1OVR6TXdXTjdVQWp4bFQxVjZBY3p4c09WcStvS1RyUzB3KzdINGN5S3NnQVplY0R3cDlUK1MyUGJMMktkbnRKWEN4M0VMWXVtSVlENHNjMTNOT2EvZkNsSWlUeVB5U3dOa0ZhdDJnRmZCSXJoWlFNc2ExZUwvNWxvMndTcFNERlp5eWVSQm14YURta243OTB4OU90Yk5qQ09QejNGTzZ4YnZoZ0tnZllIVGFNbTIxRGNNUHE5S1FZRkpaN1hYQkEwamxRRmRZVkxKUHVDT0JWV1p6QVZ5RlR1M093R0dLajVQQmdITDlPY2taVmd4TlZ3UmlMVEN1U0VreE54TXNULy9KYWgrSTVIdFdzSm1nQVlSZEpRc0hHaFJVSVBHd1RQYUpuMStZYVFWbExGMnJTK21Na2hLT2luRGs1R2d6dUFDS0tJdWZqRWpVT05UdnJvSCswMzI1NjJNK1FHQ2dpR1VuR0lrRVg4cHRYdytLWW56SytPME5uWkpnRkx2UkxFWnJic0U1YlFUeXdQc3dXaUM0MERURHN4QUlRNUJQMUlDL1pjMHZ5bnFteTZBc0pxUEcvUEc3MHAxaEtabXJTeGdZS3hRbnVXZW5MTWh2OEdtR0VJakhrTWhpNEZSSWordStNVEc2WExFM0szaWtwd1ljS0IzSnBKSmV5R01nS3ZGbEhNR1VrUmRoVHUzc2NuRHp1emNkTnVzWVFrVkpxQlZNYmZwUEQzbVFaMWJoU24weFhxbzFxMU44NWg3N3ViUUJuRHFDZUxBYkx0aDZjaTB1azBUblpsaG1mSUhtVjk5dStLMCsxL3RQcndpNWFtdFZmTXRteVpzVmdQM1JmcWl5MEZHY09xVzZvK1E4dy9VSmg3c0FnR3BBSzYyc3lEaWFORTUvRDVFU29EaHgwa0IxNGlNZ0Nkd08xMjhRQm5uYko4Z1BncVYxanBKeVk2cTZCNjlTaWExNDBUY1Q3OW1lZkMxbzdTOXZFRUV0aWg0MG5rNGYzQ0czdzNzaUlDUEJxY00wOVBjQnZFVlVrRllUenBzbVBRTXR4RmxrSG5USFJRSGg4OFc3SE5TcDEzL0dwYmtDOFZySVlNWEJNdy9BcEJXcVY4UCtDMGVPRFU3b3dsYjBtSGJ4VHNhaWVaZ0t2WllaS3luamNKUUlUcWZZQ1NFVE9SaVFPbElnZUdWR2syZDRoczFYd3V2OTBEZjBrTGMrQU5QQStqMnE0RGcvMXVMcENqOG5SOXZFTFJlQ1pDRTFCMTB6Ri9GbnQ0Mk95d1FzMjBRSHYzaEQzNHlEbWcwc09SS0tMaXl6RGhPOFRNQTZNRFpLZFF1OVhpKzFiSGpUaVFTVnVBYVhEZUQ1dExTOUlVdTNEWWF3WlRTbFpYU01ZdlR6U2UwdG16VHFEK0Rxd0hqbWd3aWlNcDZGd0FLaVVGalRFWE1jZCtIRWlOQUpGOVI1NGFiVDhXRFp1Ny9ETjQrdzI3cFZyL0kwSWlwdkdGd2tlL1hwcHBrUGhKRlNpcFhBN3V4cDQ0eWRiK29ZKzN1ZlFRcis5cjdmR2ZITEpVZmg1Ni9QMU02WjdvVGt0TDJaUE5rL0dhcDhkZWxWSFhDSFF1RzZCeEJEUUlKOTFOcmQwV1B2eHNwRGdRS0p3ODdXeUJyaUU2RFdzRVNZbE1ORVVRR0tZVm1FRjJTU1k2VnU4TlBnWitnelBMWWh1NlZsd3hpTFpkcjVQV3Y5MnJnVXVkemxaWlh0U0dtKy9YRWxZLzU5WE5rWkY0MjU1YVJwNUM2dFBMbzRXVFJMWVFGVjNJbzF5NW9qUUx0eGl2RWc3R1RkbXAveHhQUHNHbXNCSW40L3Fyb1RaMXd2Mk5tbTMwTXJPZTU5RzdoVG1xYklYNmZuSVY1ZFFKRTdHcThOa0lEV0VDb1ZOR2QrWStWV0dTcjFYZi9EbnRWZi9IemVTbFNHV3NaVFdXZndydnhZZCtIbUM1T2llc3ZzcCs2MUFSa1g5QStma1hVMmJVNVJqN00zWjEvVFd5L3NKdE5rV2FBSmhYNlVSMkFLVXA5ek1RN3JNMVphMW5xTURIY0s2RGVyc1QrU21PUVFTZXVtbzlkZlR5aVF5dnZ1NUp2M0dNbzRXQlRIejJLTGoyNDdmUm5Tb3F3eWpqdER5OHd0TW8vc2tBQ3JwQ1cyTkkrOEM1bFZENUNjSmI1MDdRdXJaek1oOVJWWE5rNzJ0VmJGNGdyN1NyREtWeXVjTE9uRFRUNlhpRXV3dTY3b1QzdnZnSnpCekY2bFljRXlLOVNQcjllSThLdEZ0bzFHUExoNUk4SjliWEJ0ZUFyWk5McnR5TzBjN0MzdWs5SWxrTnJFSEJzMkZXN2d3blM4Y1VSUnhYeEZsQzNHWlg2S3RaNTJHK3lVVGpENnNHNmlyRnp6K2VGNGh2dGhsWk8xN2RhekJTN0dpNVpVMXVkRDl0ZHNzQVhIZkNVNHlYamJmVXFyRmgyTVZkMDR1TTdIWGtybFdtUWszUnhJR09qVXNDcHhhRjVXK0d5WFRRcERjeDBDbWIydlZWVUxuUHVLeUYyRFZZTmFaK0s2YTAyMmtSb0I3Z2tZRlJWRnhIOWF0aTlkY0ZCQjVzVkdvYnlWSHBoTHdIVVc5dktyeVRaYUpMMUVRUlJOWTU5SGJrZVBwbFdESXNXSFozRHNlSlh0dnBnWHd5enNTTzJhVmdCT2dpeVFzY3NlK1JyUXlhbWt6cE1ObXNTRWIwTVYyTzZrdkVGR2dNL29yc1NnRUFHYVNGTzYwSkZYcTFBR1cramx3S28waGYvVGRUcjMzRTJvdHJEWDNndkRKUUdlVXR3WFdGMnpvMDlEV0xLSEgxK2ZabkZMWnRkY3Y4N21wY05qQThpeW9uR0ZxSHl5ekJVMlI3SVhkYyt6eDRncFJLWnZuMlR6cEZjbzVrLzhqTWIyT2JEallLVnVCd2o1V2F4WFhrc0p4SXlmbGRuZ0lWdXNsVVdaSCtCT0h0bnNNNnFBeVZZdW52WUpjWEFUMGNqaVpmUU5SZnVNVWJSUTNIZmtzZndjdVk4d1BtZTk0K0lSUkxlSUVnTU82dGNUWmlWZ2owZ3Z3VHJaYzdJd29KcXp1RCtZOW9vcUczL1NORVNWMEI4b1VDUy9qSVBpZGppbDNrS1VMN0ZLdzJXay9BemI4TkdEKzh4a1kvV1dLaGxlWWN4ekwrUS9yVmNFbFFsbHVBZjRtdjVtQmozbGJHcTNlYlA5cGZZQm9SQmtDaFI1eldKWHA0clJxT3FkZGcyM3V0RDBsS3BTQ3VxeS9OOXBwcGk2b1hCeFZWV1BqbldhdFZiNDhxVE5EOE1iNDlUbUYzQ1VjOUx0ZXcrNFBFQTh2eDB1UlQ0Qm9CKzNCQlBiQ2ZFTm9ibmFZOWVjclNEWVBiRmNtWWxWMnlZV2ZVaEx5L01GMkxPWXFSN0xZclQyMTBQUlhBM2JIN2RiTDhzaGg2Vkt2U3lkb3c5VVErUWtqblYrZjYzdEdRWCtzN3VJWnBGNFBHK2p6bVFicXZzbHozSENhUUwwbEphRFYyeXBXN3huM2ZJWVlGQVJHTFg3QkViT3FKbm4yLzJLRkw3c1JBemhkS1ViUlVHWHNTL1hiWjhVUnhFZ0xkU0ZLMHh4ZEZSQmF4SnNrdndiakt5ckNYVldKQjdVSU1iOWp1QktodVNLR2Y1ek1BR0RWNDdaSTgvc3lLejFOUG8wYzlRMDBad3JDdzlWQ0E4dnNYSlJySHhwTkxwTTZZcmJTRXpPbDVEVlVPanYrcnlXNTJ0cURJK2tVai9LU0pGc0VRa3dnejdlaWw5dk00Z2l4eVZ4UEwxVFZWbm51dUNvL0ZtVnhzS2xFNk9UeTVXT25HS0hBTEtYOElpSDJRazVhWWFkSkhyOEZMMGR5SGE0MlJRbWFLUHhUdExZNW9PL2xnc29PUlZWM3JTQ0JWWnRldEM5bEdEdEtiVkp6ZjJncVlZMWtkbk9KVFAwcXMrc1JGenlQUm91RDJVOE5ETE1uaktZVmxDQkh3WUtJdHdsQW5lQ3NISUNLZGFyNmlGTXhkUDgycGVBQ3U5c2dtMVQvWmJpVzBpdG9HM2FGOStvdjZ2alhJMFdIYmVrNElEdUxZN2Z4eGpxdk5PNUpKWEtrYXBqYnV1VXVNemkxbnZubkZPM3NMejdVYzhMMTB5ZHk5QytuMDh0VlRJOGE5Qmh2Y2lsaG9iSVRpaERkZXlhUlM5KyswSnhDRnVPY1AwREFSWk9mR2RPd1VobW1rQnJwdkRMazIzUnFYM2k1a0ZIMkRURGZVdHY1M2duMnU2WmN5dzV2OXEvYXQ3eGxHYzkyOU9yZW56V1pmWVNlNmtXSkxYMU80SVZkaW8vSnFBeGpZQUhUdFZyVUNVUUtueTVsSnp6YlVOUXVtL0JpRnpwNnpGdEhUcjYwMGJ0T1pmcEZZTWZYOHdFWmZoSS92M0xhZFUyVHBXQVRPc0M1ZjAvelBpSGF1d2NleVY4YmdYTlhmOUhzNDVNeVZWNEtlakJlblFuVnRMcDFmVFY2QmpNWHdFUHVNcFFFWS9GbExmb2haeEhac3M0K00rRkRGUHFuYzJRem9tcUhodEwxRzkwdnhKL25iOG9Lb3Bhb2kxdk1uZU5ZYnFodVZKQStFRmdYNFVhMlNHRVZNamJTZWRSWWZJeGFoZXRGbms1Mi9PNU5SMy9lTjNvcXUvQWg3VDN3UUQzbzBtYjlZc2J4OFNoUUIyTTA3Nm10LzkzMkhBWHNyZC9MNFNLeUV6L3g2bEJWcEk1Qm8rbWFJQ3Yxb25VbGZrN3FjNUE1QlBwY2ZSWUVjOG1jWGZFTUxxK01MQzZlNVY0T3NwUEdEWE43bDk1RStoYTZkZE1idDRjNkRHRHJEaWRLZWxQaVBRNFFaOEVtUEkzQUo3T1VYMnMxT20xZ3VpVHMyS3FQbyt3ZlZ3aUNkZXVvZ1RraXI2Vlp6T1ZiU3M2ZGs1V3BjaW9zaVhMUlhzK0xacmRyVVY5ZXRZaUVwQmI3VzJ4WnhqbGNOTi9QYWN6OUt2RFpVVjhwV1V4ZWd5NnhMSHFpN0hJdmxYR1JiRmJ4dktpem16Q1lycEpVZm5ENzEvMHFCODE3U3o1Z1pkZy9rRkR0NVl6ZVpJSGFCWXllc2pVWkRsaS9iRWRBWEszRk8yRE9yWk5hYkpGVHlKN09kUXVnQmcwazU5d3ExTTdRaXhpdDhndGZNYkxNWHFheFlXZmZwVWdpamsvOGU3MFlsRmg1V1FRZS92LzA2YjF5VDlHTytaQUs0RWlBaHpHK2YvY2kvR3R1WFl0cStaMEJSYlhKWFhSRVpkN2RCL1A1MVA0TnVJRGFrcEM3ekRYdWE3L1N3cDdHcXVkWldmcURNeEc0bSt5eTF3aEI5V0pUbmV3aCszaVJKOEdqQ3VFbm9rWjZzaVpFT1A2cHFVYmJNUnc5ZzBIWGt1ZWZ2YmNPQ2Zyc0tqdVJhdXdSa3VYeVhGVCtuZGdPYkVuNllOaFRZMy9LSlNjVXgvTzNXcE9CbW5yc0ROM1R2eEdIRXdDMnFKblV2TnBZYkd2bzNTUkovSURlcDlBRVR0K0E2MVJVKzdMc3g3VWlWbEt2bGQxbE1yUlpldk5mT1NucmFoZ0M3Vm8zQWUxU3Qwb2ZVVnlJbnFPL2NHL3F1dkUwVE9uYlpwYmk3Zk51akVEbjk1c3NyeEMrejZ5ZFdaMFBibnhHVU9yVEdpMXBHTDA4SHdPaEVXeGdGdExGZzJmUVFFblhuRXhTeWg2VmhTZ094Q1RaZzQxSnpWOWpHZWU0Nm91SVEyR2M1djdBbW1OQWEwN0pTMll1THlEUWs5eHR1MnQrZlRjMHV3elp3MmxZZ3ZQbDdKVnJ2WFMvSU84SXgrYUxuYnZPQ3RkRXZPV0xRTjJJdTlLUjdRWUsyRXVHTkJBV05NeVd0ZVR6R09hb2VpSVJ4YTMvVTBMQ20wdzZFOE9CcFhHZmNBLzlIV2N5ZE9hSjlGYmtPaG52Y280SENSUUZEV215ZEU3RGkzMGNnTkoyaW1Sbm1kTURRdWZvOEdsbHdhMUVYUkg3Z2lpQTN1bTNxdTVHWmdhRXI2VXFra2huUm5nVzBIelViTlhtbUQ3Um9GbFlkMWlRS1ozWGozQ0liUVllR3FBd0FmY2txakJRWGNpYlZkaVZVa1piTWhIbG1PUHdXbVZGWnMvV0JhN1ZtYk1uNmNXUmFCaHp5dzZOK3NpVVhseFhhQnR1bE4yR1R1SlZnRzlNQzZxTC9mcGxTQ0pMUGZaaU41d2ZPaWUyVjBueEZKeGR3YjA0TWMvQXV1QVFUZlc1bHdlVVRoZ0xQZWtBbCtZTThzK0txbmRQdTBPbGtqeDl6ZEhTcEQwQlpWOXlVSko5djRpNkN0V2pRMVk3NWZsMkhFcHN1OE1Sd29JWmZsdFQ0NjlCV3FZTzB0a3N2endVVnROSFM0THB4REhxWGRpbUlMdHhZZTJHM29IZmVuN2gzNzNDd2QrOFR2RE5ncmROR3pXeTQrWHZaR0lnQmtKTkRDYUQ0NFhwRDZvbWtJLzc2bU4wMVlrUm1xdHVEUnNONkdrSDNaOGU1MXNMZmhnN2dFaTh3Z0hwd05nZWlkaEdBR1pXeW5vUENjRm9zM3ZBbkI1RFJLby9aV0o3VVhLUzJzRlo0c043cy9LRjBNVEZxT3BKaHhmamlnQ0RPL21vcHl4eENDZXFUa05DWGtJR21WRFlKV0NHdXF5cEUyUTluMTNtcWh2TVlZTm0vUDdIaGtyNHRkYmJrWWhRTC9UWWNhODdBcW54TVRtQ0pub3UrZXMrVzB6UU8za1Qyck8vbDNkR01IeXZnejh0QWhHTFJqR0dweUFWd3o0bEhLRkJYa1BXVDMwdWQ2aFVneVp1M0xqMmpaVXB5UnlUN2NaK0NkV0pXUHRtcGRNR3E5VGIySVpJdU8vbmpic1dmTldVMmxZYzlzbkdicEcxZnJLdm14NVZ0YWhGVEppemN0NGlYM3MvNzBncThadmRNempQZjNjR2Uycy9tQ01DMTFtTEFjYVF5YXltd2wxM3h2cUErOS9rL0YvL2RlSTU0anpTc3lnRzJ2VG1uYllMN282azFrT3Z4bVJVTjJja0N6LytuN1V5b3dTZVhJNnYzc3VBdHp2YzlJelZnM3VXMG54SUNLOVhvM05QZEVxNE44QzBpcEkreEM5TW51NzlGaCtDUjBQOXNCaXZVenZnTnp0b0twOXZzTkJhQ2VVR2ZkTGhpdEFJV250d2dVZHdRYTBjNUwrckFZTVFudlhySzg0WGRjSnhMbXo4V0Nnd2JYMnRoNjRvcEtmUmZtYi9zZS94TkdzWlB5REt3VkpIWEZKZnFSQUZaVG1PR0lsMk9OZlI1QWpVdlZQZUFWZ1cyaVF2RUkyYi9hMkJlekZvSXBGVjhoWUlXbnBqWENEOHRha2hQQkYxNkQwdTFoNkt6ZDN5dE9BM0tsSzliRkpOUDBYVkJyN3BPbTc2SUJsN2d0ZXlQYWZieS9xazgzOTVUNVhUQ0ZIdUNxVlJSdWR2SE96QkZrQlRTVkxSWDZFTGhMRlFvNzVrQk9DcUd0UTU2cWhsTThUR2x5VDV2aklGK2hsbGszU09WM1g2Z1FydGphZUFHY3NwYjMvTS9OSEt5Y0svN2FXM0s5L1JkaFk3Z2VSU0ErRFdyc2NJMnNMTk0zR01JRXdMRXZWTkE1eHN1YnJ2RGdGYjhGNXc2U2FUeDJNNDREcmR2RXJvcHl5S2N4RU1GYUU5V1NYZ0tuT1dxREMwUXY3TGN3RmJBTTZrQk4wOGZLVG1EUG8yWnBlQkhnc1gvdGFTNVJqMkNsL3JZcnVub1hMY3JJZVNtZUUzck1LR3NQdXA4SWNJdndLdWp6VURqRHR5NGF6dm9nK1M5bG5PUDJjNEo5bmxVcjROcForb055akV1a1NMenRkeWVLUFdvQi9lT3NKMlUrOXZtOW4zZmE4QVhCVWh1WUlsbi9Kc3hRZU5DakJnM3FOMnhPSnR3V0JGdEE0YWdSNkZJa0JvY1k1cVFMZm8wcUV5cTlac3ZrMnFTd3F3WFNWWHNuWXFmbEw5cHJaeEd2NjlRVUd6SUk1NWJYOW1TSFZQZHA1SGs5bVNsUktGUyt6d2dodC9xRUMyUExwaWRCT2VxN2NtVEcxWmlHL3M2TVNjRHMrSmt3TGRpUzlqQTE1aENESlJJR3JIUW84UU5XT0g2a2FxTU15VlBuN3VJLzV0WnRSVmFCUUI0T0tPcFV1STlwY093SC9sVC9RaWh3R1M4N3pGeWVRZ0tGRUU2TkdndzBXd3hOOXN5RUY4aUlHTmRJSWJPVFMvMnh4VVZFbks3bTRzNXhTVmpNODR2VTRkT1UveWNIV05ydHFZL2pQbXZZR2pMbmdhSG52MElpc0dBeG5ReFhUVElud2FBMEZ0Mlk5OXF2em42eE9NVFQ5WWFhQUZsUTRqY3JRTDMrcDZ5UGJORDVoUmZiSHp0dWhYU0NxY1NVOTFRS3pHTjV4MjlEV1ZVWEJIdjk1TmQwSzc0ME9iNkNiQ2lHSHJGS3JwQ3NqaFl5RFZvcFhJbmdtRWI4OVVWc0l1RDRyVWFyZlFBMm4rWlVzWGVIcTBLeVB2a0wrNG9QanpMYzRVQmFGYlBDVFdlOS9YcXQ5K2FGR0MrcFAxR0o0azNEOFowQS94eGJVRzBDVGRjSjBFcm1ScHZjejBoSjdTUVVhT2J3S2tYRlpTTDhTWWptV2FnYVliWXB5NlBmalpGbTQ3TFV2bDk1d01rNm15ODJmNXMySkpKbE1HM0VsNGpBWUM4TG9uUy96NU9kMXY2NG0xWisrM0dxRU5HNDFxYU1XOU1jbVZsWGhYOEpxblpiNFF6Q3F1bENKWGZxbG1UZTJxSHJJdFFsL3NKRmNmdzVqK0lXRnVzaTZyU0tnM0ZBRktKbXJIN1ZjNVlYY2hOcGw3KzFtNzlUQXhkWmZlQVlhVUdyek51R2JIbHVFbjlPYU9Xd0RqNjhBak1mbTBVMGlNUWtqcjUvUE43UGthc1J3ZEszWVNGc21rbHEzME03clZzUHFpUEpUT1BzZGg3SEQ1M2ZLM1ZNTUkrVzF1MEQ2YzRKOWhsY0VpNVFuL0JxSGM3ZWQ0T1AxQWNKdHRya1Z2ZlVkZEs2SXJlaW9XcDNaVHIyK29ibFpHY1ZlcDNhTm1sMk05UFZRa1czQnNQMlNObHluM1hhZWN5eTNVK2w4YnY2VWUrWlp5TlpFSnZiUU5jWnpmWjYyaHYzeEFZbVhQTlZzdVhDNlQrUElMZlphaXJhdFBWM3kvQTMyaG9FaTZFb3gxTWIrNC9KQ2t5L2prZ1VzbzlMSzc2SUUydDlsK0s0VllGVDN0U1YyVWFWaFhleXRYcW42N1BocjZYaGtOdmVOZy92TERxQkRJdEowWm85b2FQOTFjWms0cmJIK21SN2pXV1BraXliWGhKczlHVVl2RGdHcG5NRzAyRU5YQkowaStJSFlpRFhFekk3T2JrYjN2RUorUDcwNzlVQ2Q2Z3diTThQRWlJdE1VcWlGUkV6MGx2dXlOL3BCdkVFUjlCT1RIaUx1VFYwRVU0L20yRVZQR0poeEU4c1ZhYVdCWFdRdXREQ1BkTGV0MXB1ajBVWTZGc09tN25wbmZScFk4M2pHbk5CTWNCaVRIZmV4QmpablF4R1hLL2hqRGpCOHY3ZTFSSFJSQ0NEZnkzRmJ3MmJSczVtNHlSbUp1Um9SelZsZEUxMFhyUENtUzRzaUtFTUZvM3drMHBhQzRDVFozS2M3NkdyNGNnZThvREVTTUxBT0MrdkprTkk3NmRBemtTRi9DemNOayt6T2pqYTczYnBUWCtBTjRzVnFoeXNqVTlmcjBTalJTQVkzNUpvWFV0dHBlRy9DQlRyeDJ3MXFDS0tOa1lpcm5RZURXSVdjVGM2RC9wTktnR0ZQcUM4bnk5T2dGTkljWVJwS0lyYkZKZURSWEZGM3lMRXk0Z3FUNnBjWk11dHpNeDRZVnYrU3hZa01CS1lUV3ptUkhHTTRZSDNIR3Nzd0VoOGEyVWQwWnJaZkc4NmloMm8wdk54Ky92SDVidCtmbk4rUVJRbnRjdVdjUmVjMlBhdHl6dEp6ckt4UWZ1N2I1emlmelZjNEp1TEI3YUFieXpQNlNzd3IxT0tqUjNiV3drTi8zNy9rdHRFT1NodExYbFYzOVUyakd1QXY5a0UzSUZUalk1cmNPQ2c0RDFPNG1yTkR5QjQ0K0Q3YVYvcDZ5Mmp2am15bVU5Rnl2NTlBUU9rT0k4SlVEZG5laXV5NUNwaXR2UnQzRDh3MTBCNVlGbGJGUUpoS1hPdXlBQTh3YTIrZVVBZER5WmdwdllZZkZwZzIwRG5RMEcvTlc2SDdORm9ydjlsL2huNnpYMU4xVS9mTlBkMDViLzVIN3FQOGlTMDRHWDFOMkNIb3VKaG1GTEJwcERJa1NMWTVxRXBZZzZxb0MyMSt1cGJ3N1UwNGJTUHBtSGtvbWhkNXpDUjA0TFR0RVdFaVZqY3hDMDJJelVPMHdIbVBaNzk1QUZlVUs4Y1dXd1RtU0tPSng4bVNad3A0a0ZJV0huVnJKbTBTUld3dmdIeE5kdk04U1BUSUdQSDlHSk96TG9taDRTbEpBLzBTVHF3aERTbHhtMzF5UUNVT2VualQ0SFFzMHhUTEV5SlVTajVicnk2V1N4WXhhSHRUMG5mU2t2YWtwdTFhdjJXWnVrU1dXTUFWMDJpS0ZaTFJaSGpQMHhDOGhwVUdDbXBsNXJ5Q3FYbTFib2ZPNnRJblg2Vm9FNVF1czFwVGdNaUZTdmoxckkxTGVSYlBJcGFadllaNDl2Q1hNQjJabXZDR0c0eklvRFduRDRubEtWeTFCSXpMNE1FR3B2ZWMyUENsdi9HT1ZZSE1GS3JrdGNsTERjYWtBWGxWNUJ3dzJCT2JLekRUN0ZGZFlrUE1WRmFicVo2QldCV05kL3EvMUI4WWVOQW1wMmVWdWcyQmpaWkdRMUJsVnFtQ0xuWVRkQVNkMksxUXNESkVUWmFtUXExYmc5cjlNUWxjakxPT3M2ZVIwK2NjNTg0Z2dMaHY0d0txQVhNd0xvcmNGaG05aHk3S2JBYWFjV1FNQVdaL1lTVXAwaTEwUjVLQW9vZTRXR2NWNHdWc25MeEV4S2ttZHFyUy9aeXhKUnkxSTBVZ0x3Mndtb2tySllRV2RtT1pYR0ZNa2FTVEhYNTVYRUdBTThiNm5qRk1qYzd4eS8xTGlpc0dlYSsreTdOSGtPeThDbElFS0lSM0kvdVJ2WCt0U0VmZVdVRWVqMWdROWVoYzFRKzNrNVVKWExHY2w2SGgzOURIQlV2YllMaW9yall2aGFSOS8vS2RsR21BSlZZRXBPRzJDRGNaWXhqTjVWa0dTVmFtVnFYaW1Ka0N1WWlUL2lYRmtWaGtKRSt0UlBTT3BuSkxhaXJjYXN0MlN2Tm50SUN1QTFJV2ZGOXh1aGdxUG1EN24vVmpLb2pGS2V2U0RnU3FGQTY1UFU4dVZTQ1pCcWVlbE9LR3pUN1J0NlhHL01acGwyYjFBaDZ1b1gxWng3cXJxSTFVYlI1eHlhSmdPOUdWMjlxVFU5b3pvOGdvTnBuRk1nTXNGWnNScWNoaUFhNlJIUkt4Tm1jZmZmZUVYclVkSE1pbDF3K3F3V3JjalprZEJXSkZXZGxRbWlFVmFxazYyRklGcGFZWkRyWXFTc1VGY2VtMVVtRUtXeTdpY0dVaWRrcjdDaWxpa0dZaXNGUUd3NWt5R0FMSGNWb1hvWDlKb0RPeU1xOXJjbjdwbk9ubFRhMUxPK3VzcHpiTjlOZkxFRmdxc3NFU3VRVVd5Y3dXWU01UE1yb3k4VlFKZzBrb005cnBGTEJqUFV4dXYzMFMwcGJXbXY2YVBxQlppWXdodCs5Yng2d3BtcmZBQnFEVlBpd0JlbThFaDJxV09uWFVGRmxXcGx5bnpvUmRuUzBWcFkzVk1DMUMydjZtZFNjMUltQlUyTUhyNFBmYlBBZlh1ZnI0MEtZZHR6cGFCcmJPckRQMUN6UDlsREZRZHJxNFVHK3lUSlBFN0xUN0tnUlI5NmwreWVTWXBGcWtvYlhIVVRIOThJSnBiUnNyUk9nbnU3VXZFMUt0bWFrNlVtSXFrcFZHQTYrNHUvN2k3Q3A0TmFKOVBWTC85eVh6K0pIUi9BZWdhUFJxYzNtbGljM1RZL1lwY3lWSVRYTjd6MkNKRHNyazFQUjBrSHMxV2RMMDZWdnFBSVRqNTlHRWlrVG5oSEpCRVh0ZFozWHVySXhKZWxwT1psS0tNajBCQ1haeDlIRmRaa1JvVHNxQkl0ZVdHRURoNkJab1lxYWtuTnl1a0VhMmlDcmJSR2F0MGNBM3BkQXRJYm1jaVFWclhEbWdhSFFWckxqekNINzBQaGNHUmFOSDRlSTdmOEYvU1lFY1oydXBUbHRYdEx6bnh5N0lJYjJqVDNZNDZSbjYzTWdPZGJ0bHlKd3B0MnRpcDVydVdxZDJMZ1JGbzNiYS96VDdxRjMydnd4OHJkMUEzbUJhWnRvY0tFakVMZUZNVTFHZ0NyNUFyNEtmMk84SlNMWk5HMWFENjFjbW04cUk5ZDJZdnpCS3ozNzhjSWxDUTVVQnVjYmxyQnphbGNVWXFScktHelVkcGVNakxqUWVDZEFkaCtpazBLT0YvYk85ZS9NVmp3NTVnNHdpNzEvV0hDZUgvUVFtNHFhNnNybFY0Wk1XQWlEZ1M4Z3BQSUNpdFJQWVNnZXBVN09ITjBBY2hYM0Z0UjlEUWRIbzNldzhTbVNZT2dscG5OSTBQYnhxcmxLcTUzSkVSczFjRU9lOFZleml3ZDhJck5sME1jdVh5cnZDNFBPcHFqY01lWVoramY1SFVQQkhoYTdXRUxRMHZYQXd1WXBoSDczVFd0RllFUHZIREpWSXdXWmxhOVZBZ0ROM09QQXlVNlRZSUVqai95L0lYNWpWNk5wQWx0RTFWY1U1NmpMRksyUDR0ZVcwMUVZNlVmbEVubUl1dmhpdFMzRzJWZ0hmcXF2SXo4alZLc0RHUGNNUDI0Y3ZFaTRPTzRZSDJtZUNvRmNqemcxZWNGa1p2TkdyNE5VSVdGbzNBa3UrOTA3eFRGQ2F2czh5WFVrVllOaWlxMGpkaU1yeWpaZlJSOHl3ZkFlWVJhdkp5OGlGMzFhZk5CZlArekxuaTJ0RUI3NGRLYmk4TGRRZWVuVmIwUklZRUVZa3RpUUVQaXUySlVzczRGV1A3cWx4d2Q0RlJ2Q3VGUFdmN1RGSFBBVy9sQzM1YS8rMVArZDhpZVZDQ1VqY2p4QVJVQ2Mrc0xxemR6V1lnRU5LYzdZMjJoRG9SdUxFV2hQTUphcnlCZTdZZFROajlEeWJKZlZmdmRhY3FjelpwT1NwV2FtTXcwQ0xnNDh5YkR1c05IU1hOanFwdExWdmNrL2ovQ2FqVWxXYVc2QXFVaklVOUgvZXMrUlVJTUtWTlMvOHY3VzNjZ0dqMVJnWnBZQVUwdEpEMG1LWkl3SXlrTExLWllDQ3EyanQvN3V0cnd5ZWRzMUsrOUZHeCt1TjlrVGxIOGxTUktrdHpvY04xU0FFSDV0UTdxdUZZSkUwL3krMXBLUm02dktXS1ZON2ExenRrNm9xOENpelhzbFc2RXhnc0lzQm9yT1dRRXZjY3lFdFZPdXVoV3IxQ2lSRG1wMm91d0FDZmtpU04zaFpKVUxSOTg2Q3pnWGRrOXI3Uyt5ZmsyMC9kMHl1TXZsVEpRbHh2NmJLcUhGcWJWRkJqcWtNbE8rMEptSlRaU2NLNnpyaWJTeXRSTTZidWlBZGlBc0k3d2hoNzlrZXBQd1dFdFFMTlVDOTdsN29PV2d2U0huc1pJV2RGRlJVa0YvcVRWTTZzSmVrcHd1eDRQQmFYbDdCZlRsOTVpOC9mcjVzOXJ4VExjQ3BINEJhb0g3aHBIajlaM0FNSzhsQ25IbElobW9TTlo2aXplWWdNbUY5WEh5aUxvdURqQnRsVVFabFF2WjZ1Z0dvc0U1QkptSWJOMmN6TldBRDduNVA3NVRKUGYxMTlkMzJNZmxPb2pHVjVlUWFTcGNZU3ZKempLV2c0dXBWRzJPNXlkM1dQMmxLWjE5eFR1WVAzUzhVdXVKOEIxU3V0TkdVNzlNVllQZmx2MnZnOG81T1VQSHJmS1h1RHNPMllleUZWcUQ2amFhMEtnelZTSUc2RUJ6QXF1Y2NzTFVNNEkzVmV1WDlwWkFEcW5IWFFLTzVhK3Q1SUEwbktHTVJGMlhKak1rVFkwS1lWNzlHVG5zZDN4Q1RWYVl4MWl1TWZjMEtwb2tVVlRwTEdzTjgyNy9XVEphWFFLQVlONzFiM0FxMTdyQW0zZHdON2FZbXZFcE8vZFVYUGdLb3VHSlgvZVFZZTdKZXBPQk82V002eGgzcFg4Q0VjMTl6cDloSFZLTHprKzJPODEvQnltbGZFVWpmMlluUmFCUmFiYm8rdEVxclJhWjkxYXF6dHNRV0swVkFNK3E5LzNPaGU2QTRCTVZRdVFjSzkzOGU5UzVzM3FoaW9MaSszT2FOWVBRc2RIMzBnMk55YmtrL3ZzeE1tSnFiNjNVR3RBaURPcjVBdFlJSlhSTWdjS2duRDFYZDJzaG5jS05EdGFIUlhBYXZzYm90RDVCMHBDS0JXcFpsK0JydndmdlZsQ1VUYVBna0hmRHRCSjRiYkFhQjVUMkxneS9RWE56MEs4OERIMkN3cTRzNmsvSkJWVnNqajlFNCtZMVZyZmtvY0RLQXNTQXJpbXlKRUloRVpsbUtzNUYrTkl2TndOd2o3SWdrZFFnN1NKR05FKzlGSlpNaWsrK0JRRndwRkdTYlcxZHJtdzFOS0VlS0czRFVTa3NVVWFxUXlncjNTNHRFMUp6RlpsSk1jNnQvRWFqUHU1QlVRd3h5YW5VaFYzVExKYmtSUVhEenhMcUpEbG1Nc2ZpV2xraVhLZVNwQ1V4MzJFYnRJbDhQVkVPT3Rjc0MwbTNXZVZMWnVFSkpRTXdSQ3NVMW1mU04yWEpmS2hWTFpiSi9UVmFCU3ZtZFhMN0tabEVnK1ZvTjRsVElZT2NBWEFDS3NnZFZpNldMaVhPVHJXbXRhcTEwODZ0dVR5bmF5TnJHS2dDK2RkL2F2clVhMlRNNTRMV3JHOU1QdityTmF6ZUhzblpHUzhJUHZUMzVVSXNOVDNCL1VTWG5xZXJNeUZTcFdjSithazVENG9JTlVPTysrczNjdG5qbzFFbXJzZFpPTk54TURpSlpDUCtSUEN6aHVNV1NPdVBWSitDUmcvQmJ5dU9VZHltL0xkMUhnbjI0di9rNlp5YVhULzR6Qjg5TjI5WGRNMjNIdWU2ZDRCVnNLR2dwY1JWMm1NdW9ia1dVZ1plU0Fza0dpaVFCU2duUlc1OEpGa1dRdzJRS1dLdVFsMmdrZk05QXpvNTAxVXU4dE5JVjgwODJTWm8rNFZCRzVNb2c4MWdxRGFIR1hRYS9MQi9mOXM4RllLTEhML01LZStEYk5kWnRHVXVzMEtxT1hoYmlxczlkZklxWjhpT0RvOWlaTndSYjFxYXQwNjdZSWNyVTNmTnBLeVlNUlJBV2hZRytmSTFPQXpobnRLWEZXazFwa1ZaVFVxVFJsaFRYbW5SL0p0SisxOFVaZ2F0bXlERjBHajU5L3BnNEE5K3VnY2Rnc05lV1VxaTNJSUd4ektoMXp1R2RhZzZmKzVVWmxmRzhnN2xIQ0xpNnNnU2RCRi9OSjE2YVFPYkdjTVBDOVVIK0phSEpiZWZHTFZveTV3MFZmNDN5THo5QmtRNXVpM3RYZHg1WURiYWxUNEdrbU10VzJtVWIxMWdwYUovRnQ0MkR5clNmQzMxdENZK21ndmFwdHR5Nmp2WW9QREFUaFpXOFN2NWdCUWx2aFRFZlZwTUk5L0VoOUxEd3l5OFVkcGFMTDZZd1pBSVFZTjNGNHJJRE9VRWdQZEJSMFhLTitoMDVqNjh6SFYrZ1d5alE4OWxDYUw1UUR5d1NCWjM1Kzk3YWt1dGxJYktQa293RFNZZjJ5Tlp6QmR3TVphUGRibk5OdTAraWhLclluSWE2MUovUDRmd1pVVzVlWlZUa0N0NXl1cjZzdnNiT3BDcU1UcW84T2R3ZXpveFFkL3pTdURtR0l4Vm5LaUdqeXU3dW5nVHF2OWdPck80TVFsWlZJMUVNWmxYaGpyRDFydmI4Yys0VXdzNnZLVEN0Y2Y3QzFTYlZsNlhnLzBMQjJHNjR0U1Noa2tVSVhlWjVHRG1Rb29DY0d5Z25wRHpLSmZVTG8vWWpvNXM1Y081NjcxR09MYnltaVdVcFpTVktHU3RPOC9qT2dzQlNCdU1SNnoyZThJUzFMSFQ3Y05oaU9RT0g3TjZyMnVWaWpzUlpkdDZiYVo3NVZOTUxYR1VyUWNnMC9veHU3N25wUUlHVFBSNHdISm5CdDdLQnZpUzNidHdFNHI5VVR6UVJYNnErVFFGc1RFWmR5WDhHeG03V3NpODFCUkpUbUFXdGZEN2lHRjdpeVZRbWxJYkNxQTgzeGNqWEo4K3c1dWNtdTJFZ1JKNG9tc0lCMU96K0x3Z2xrc2ExM1RNbFpxU09meDgzOGtSR2tXQlRiVVcvK3krTGpJdGVBeUk3SkY3N1NONFJpVWhJdFpxbHlpaW5vQmxidmViLytpTEh6S0pMaWVUclpaMVo3L080ZWtSNTJITHB6WTVtRVYvaE9VVy9pRnVaY1NNMmIvMXQyNWF0bTQ5djNocTJmTGZsR0dNVnNGek9uVTB2bUszQ1dkYVZMWFlKRlV5RjNaekhYYmN6VTg2UTUxVVo3LzlXV2k5aDVFdlNuUEZHR1FjL1NJMlZiSjRoV0t3WkEvNkFZZjdOQXM0SHBrcTdOQlZ1bUNUK3BXYnp1aG1INEkrK09XelY2dWVtQW1tMmJYbk9qTmFhanR3RW9vcVpHNTg1WTlHY1o4YVVneTB5UFg0OGdQUHExbzYyWm10ZWZSbWNuZ0k5dlNYUEY1VzNkdVJ6VVEycWNKWk9wOGpRR2cxK2VqL3ViUjU3ZDYzRVlKNEdVbzJIekUzVXgreC9jbVlJUlFTcXJlSTJHY0lYZURxRFZpN0wzTE1pL0pTK2p0a2pjK2Q2M2hkUkNsa3FaZEZjQ3M0WXBUL2hDZXZSYStiSU14a0lHM0RabXRxdk44RDI3TFQ5bEU0RGYyNndVaWJRV0tJTkRBT3NzRTVyamNOL1FTbXlDaE1aMHhPNEVpVmR3Y25xaGxnelU0OEJKRTBmbThTemJCR1F5NEw3R2UwcGNlZlNVOVVBMVJ5V0kvMDRUeml2dVRUSHQzUis2MVRUclJFY0ZjK1Z4bis1YUpqeEh4N3c0UkNzUmd4bXJwbGJqZGNrSWZmemt5Sm92RnBLeEZSZkF0L2JiOHJsdGJEUHoxTU9EbVVwdFZHbC9ubEsrVDAzcUV4Sk9aOUQyTGpTU2RNcjNKTm5GT1hUTlVGVGMxVmkrYzRjN1F0bG9hY3FmdUVKakpKdk9ORTF2WGxadFRIRDZKQXFETGt0aGh5RjFKUURucytTNS9xR0xzdVA1WTA4QTZGNkE1QjlPOUVHNHlvaVh6KzJCbU5BNjIvR1ZES2dLRUtQcDYwUG91ejlnTk5lRWNkVFByQ0NVZ0pSeDVFeDVPMHQ0dGVVY1dKNFlFb0FlSFpCb3ZuN2xaUEtaVFN5VlBRa0J1WWFwc0hZaXRPZHZrSkZNM1RjdDV6QWlvT3UvVGJIQVdZNzZUcjExaVg3c25YNkQ4MlFyMm1UL2kvbEt2L09BN3JMZTFEWWQyV001Tk9NTmo0L05sUmNiN0FsdmJsaUxHOWRQS1duWTdERWJyZzc3UmVGdHN5Vm82K1VXWk5Wbi9rcThLRHpSZ3FnUkZDS2pKcFJvdEZwOEdkODFZNWVaV0ZrN2tmM25QTTJUTHlKT3BTZnI0Ym9RNjRoT3FRR2JDZGR6VW9aUXVaZTdHUy84ZTgvcDMxS1RWUHJKYUc4WFovWlBqamU1RU5wcEt2NGFPNytLVm52TDVuSG43Tmlub096YjFrU2JtcE9RMnJxZmNSU05FNnR0NWxWaFRVUWRKNURVQkxiMTdZdFMwN3BpNDJ5N1Y5N2thNHJwMURNa1RmUEFsaDlKNWNvTmhha1pUMzd6d2hKRDJvbERTL2ZRMXBhZ1h3N3Z3M3FXRGt0QkF3aHlTV0dJbm12RTNPVGtiRFM5OGFPTHdXek1YbE91Y1F0M2xwRnNGYU1hZVRVNjdjU3d0VWxMRjRGaWl1L0F4QmZLZzllVC84MmFLb0k4ZW1kOWg1S1hJSEs5MmZHMzlSNEc5MW1LV21kMzlUY05ydllHbE03VnpNM3kwb3JsMm9tUExNbUttOGtTcTFTWFo1WkE1VUJueGtSR3AwbWpCSmhVSGlmYmdxTlQrNWRoclJFWkh5dFJBeHhNa2xlT3FtTXg4NmxGd2lsREF0dFVJaWhVNWZaNTBOd1JrWXkyeWJiSHVYVk1abWptMkRvemozNDN2c1NPSmFmWTA0WlhUeUFjbnNZYmN4eVRQdXlKbng1SitWdGZ1TjJaQ2lvRWZkRG83bG4xajRORFkweHJjeDV0ZTNFNGQ1MWxGVU5tU0dJMUJ1UzlreTVEQzNHQmtYa0I4ZmJDSUdsd2E3aWE4N3hTaHQrdnRkeWhKTlhWWm04cms5ekYzQ3o2U01ZaXJFRGNvUml4MVhvY1M1WE9mTWExcFMyd2p4TkUyajllMEZTUS9mNnNQQUFBakU0TWdmdzFOY2JNYnVKTlltVjA3MHZqQmlOZVJIaGtKZGFSSnErTDE0czFiYi9VL1VIL3dmdXFZTXRYZTA0QzJ3cHRCZitiNGpiSEdkYjNQNS9POWdkTDlhSXM5dkQ1Y3MweTZiMklIdGVQbnM1OExDRnFqS2w3STdaQlBlS3huZk1udS92aHJhbW1wR2hCZnFpRmt0aVRjTkhkUHIwcktENjZDaWdKYjdnSDAzb2U4VGt6Z0dpcW9aeFFnVnYwejZOU2ZudjRBUktrZWVDVzE1S0F4Wk5ZSk5PWmpiWHBaNE5XOEJoc3lCRGJyY3dwMjh3UkQ2VWtvY2hDMVcxdmp6MTE1RnFQTHREaEVuUmdVTnBoWFh6ZkNPdGl5Y04rMHdVYTd3a2NyK2VYUVhDTURZTXlWVTlXR3ROS0hkOThzT2dnajJvTXZ6YmtWejZjS2swVU9tNytPK2dDeGhUZVBCdUFyamxWSXN6R0pOcVgzYjJibDJlODEvRnRNbTJjVnZJM1dEWHN0RzlVdUFwdDlHYk1jMFlyMmN6R1ROZ0hxZ1dLNEk0N29DbzlyWEhnSmQ2ZXJLaGh5ZVV4Q3hIRDd5NkxxbG1BK2NQczFHcHZJZlBZVC90Wmx1WEFMWktpZ1NlczFMMm9nZG91QzROejJrUGE4bHh0ZVQ5WVVYS0ZvN3FNaUJOODJzZ1NQVkNBOVNEUVBBTUQ0am5TR0pmRzBDNmlUZHNqdmhoWFlXYWkwN0VXNVhLcEcyOHJGTHMyOE5MNDlWRFZpZitCM0MwTHY2RU4xc0taSFdiRFBRM1BFRmFSOG1mTkZsM1lGM0cvMC9ZanNjK2F2djY1aXZleTgvTEYvUEcvdmdZY0R3c0xWVDU5Q1JWNE15eDhWalNBamF4SWxQS2J1Q0xrZSs1OUdwT2NDdFZnL29HK0c1VHA2L3huMVB2NXFveWtudEZoQUhOenFwaWYvbGk3VjNkRVg2VmI2MmRnY2pXVDlVZE1hNkJRNi9memZNdGNQd0Rxcm02TG1sTmNaRUI5dm5CSEQ4U0NWKzV1aFJlQ21MOVRlR2RFamlkY3R4ak96VytPeG9KS0FSSGNEcmJQTFJ0dmg1aGxDU1Y1RW1RU1oxaE1aODh0Snc4ZWxKeldMcEVibU00NlU2cklwbFZYZUJNcldUUVU5eUZCU2xWMy94ODBKRUN4U1Z4WUVCK0FhMGJXYnM1eU0rK0dlYnBpVytFTjVkdm8wQXE3MTBjUGNDajNsTFZxaHkwWTljUmc4V2ZlZHNBWlcwVkFBdkVBNVdjSy92V3NzazlXSXhkd1hDSkxaeFpiNzFmTjJtRDZuVmphQzViQ2tJTThVajF0MlYvbXhrRFhGaWlQOWxTczBlYnpiVk91dERHeTVCcWhCbXVGYndibzNKV25JS2hhUzR1TWRVOTdmRWphVUthOEIyZFllQnBTYWR2eURrVUtNMWU0ODd4aHNXeUFjWGJwMGU2M0Jrb1VBMW1TRFZKc3BoUThyeXZ2MEprZzdTalVLT3ZraHFuSXVLazhVaDgra1F0NmJaOVc3ellwdE42VUFsNGZ1NDlZSE9QWG96cEhBa1BaSGIwOWF1U3BCa2J6SVpDYXM1Wkhsak8xd1IvUEVPbG5PN3JscUU5a3FkRUlNUmZ2N1dwMEZSNm5JSWMrNjBQM0hLalNYcFJaVWdET1ovWHdBVDY4K1ZhT2h0UEJmeEg5Y0ZQc1V6Qm5FTWVJT2N4ZHhRZVBEMjRlMmJ4R0N0VXZzSWJQRE14RXdpSlpNT0ZSTVBmT3RPdENMcW5pNXd5UHA4L1JYbzJMSkpBVFBmTzJYb0gzY1g3bkttejRVcXJ5SklYaW1IZDh6c3A2TE52dzhIWlVFZ01KWDEyV0NGZHoyS0c4bXNpSFF2dWk0Nzh6Snl0bS9HYWxEczEwclRFMkZ4V1BkdWdRSzVIa3ZZcEZiS2wzdlVJWWlJR0d6Nm5mM0pKb1MyVmlnN3MrZElBcllsT0lsWFhEZVorV2Uwa0hmY0diT0pWSHRJUW5EcFo2dU9RdXV2MGd2K0UydUo3VU5UMFhQSWE3NGxtMGZQTlZleW5lVkV6SnQ0cUlndWhwRG1iaStneG1WaWFmMXMvWlBVS2p5YmlVU1N6VFduTmxBY2ZqLzkzMXV6UHFleHRHcGhDRXBLVUlQMXkzZlJ6NXRsbkd0M1REcTVOaU9qeGJqWk5scWkrcEpqTnBUT1dlZjllQXlicXBvTEREeE5sU3ArZXBGOU1rTW1HKytKTmo0bE1qbEIxUUIzZjd3R3VHcVFCU3YzUHNvYTZaTzdkYXhoUFZrdzVLVENZS2hGYXNobk9kUWxxUnIzUGF5RVNpb013dmtwS1NZa2JIaGV5SWhiOVgzbHRqbWxKQ05kbmJHYUNmN3dwYUVZT3gxenFoTWpnanovaC9LRE1DaFY4Q0xyWGxzWHNWdzc5Z1Rtb0R4UDVveGRYZWFuK01PWVBkZnVDTWxkRmNOL2ZTTFpqS3JTNUlGYjBaaldGZXVLYUZaNWFpVWRhWXF2YWxLcEpVeTc0YXJZK0phUmlhem9HdTZaTTduVVhkWFczUllkVlRGZzlSWjNucFplVWZpUFJtRHhVb2NCb1ZBUDFaYjBseHpHdSt6MHJpbG5SK0orT3I0cCswZ1pDWjNqVGR0SjI3VjhKc2VYZ2tJbXkwK29acWZHSjVEVTBTOEUrWXVXUU50dlA0c25IWjJCRkdUZzhoS2FrWmVIVWxVUFNERzlpU1NHZDd3TU9qRUIzNUpCdzNmck41bWFGOEpXTUtoN3MyNWIwMHJQNXIxR3RXU1ZmdFZhMWRvM2MxZ2dDdGtNeG9jV3FGZkRmdXZlWGtFZ2l4T29FS1JGZlRxdkJsR1hxNlJJVTU3Zkt1ZkxXQzJYUjB1dUE2MStXb2YyM1BaTXlHaEg4Q0tROG5QOHJEeCtXam1SS0N3U1N2LzE0bEowRXY1dVVxcDFSc2FpQ0tENHNCdjhRcmMwYkdqWllWOTBidUdKMUQxUU1XQWV1Z2lVVFJBTXVYMjYvTDJ2QjNHMzJ3TzQxVkRiUEs3TjhqVSs2Y2tGeXo5WlZTbmVOcFFMYW9UWFE2RFZXaWJScHVMWlZlQjNXQ2F6b2V2aWM0bXE2K01zNWF6a25EWFNOWUwrc0lkaXRjUmJua2ZJbWt5Z2NNbldCRDN3RUVEY3VEUHJ1d3MzU3dtdURlaW16V1pScE11akw3TmpYL1RPWVRWRjhXYjZhUWVjSnpPUDZKUDAram9xdW1TbzBNMjJia09iZUkxMkJUV3U0bnQ4bVZjTzlJVkR5M2JudUg5MENIZkRJZDNVQmlXNkVpSVFOMHV5QWM4NlprUjBRejluTFRoVHVIalhIaHB6RFp0dldJc001NTJrbW9xK05qcHhOanFTY0N5bU5NQWw4ejRvOUNNdldZZHNwa2EzZ3dMbXpHa2FwdDBhWjFlQUF4eHFZdnJVSEI0RFA0QnJJai9CeGozd2J1aWN3RU1iVVlPLzhLWTRwdnZuZHdVeUVDYndYVGhuT25ockNzREpBc2YvS0pabytBWmRFdUlicExteGxkb2Y0Z2dsSXY1VmhOR1VJalVaemIweEdZWWJKQkdaMEhVcTloWGEwN3VDQkJ5TGpUVkcwTEMyMVVKYWRXbnBOS0sxSUltS1ZmZ3dxWkxMMEUwSVlxV21aRnk1bXpwRm1zOHBZaFBXVjdvS1lIeCtzdWgxajRyQ2NXZ2VEQmMxbHBySXlmenR0SmM2WWtnb0J6M3NOV1h3VjJQamhlOERYZTdkaVZLRS8xaDEwUzNQdlBLenVhZlU0MnJvUkpQNFc4L3NkZ1h0ODAvN29Ka2pYcDczUHAyU0tISDBpUjJiRXlkRk9kWWJpRUNWdStCZ2pOZzZFRFB1RmpJU0Vsdml2N1owaCs1cmxhZkptU3JQc0ZOQlkyeXoraUtQcjFQY0tuckhKQWp5Vm03eGdac1NxeTRMQkJ4Y1lyT3RVcGxvSTB2V1piMUtWdFNXbE9FNXRjS1JrWldwS2QzeUNrazBoL0RraDZDWXg0cytnQ1grQ2QxWWdsYlNNNzZ6N1Q4WVl2NE1QV1BvTURZdWExdnpLRkJ6M3NPaHRYSkRsVlhOYXZEcTFjbzhyTGphVjBCTVlzRzR5TGNRaktqSTBCRHlEMkpYKys1cm9hYjlURTFWc29WZ3FZQm1iWElFcklrT0NKbEJJUk1xNURnd3dYWENudXl0WUZYL09Cb2N1c0w1R0gvN0MrcC8xWHowWkg2aExnRlZWRFE0MTR5aS9TRlJzTklKL0VoakFGWXU4RFJ4bE9OUU5WVUIxR2JvbUZqS1o1V3QzazV4VkE5SVB5QzRRc0wxSnFtYnY5dmFpMTd0THphNktneU1BelhhVlYzeTRzZ2ZMMmw1VkJ5cTU3Mm9nd1hHSCtiSWplcG5YeXJqMnZaZllNOUxQL3hTVHFFNmNvRmZDR29YU3BWUklJbUx5YzJXS1pKRXhoZDBoOFpIOGxzR1lGVS81Rzd3WGtrTGlPNlR5Rk43UStvdm12T3JKaFpYVnJYbkdrb3I5Vk41cDdlUEFxNkJ2K0VoMWk3dWlwajB2djZiTlhYRXBWU2cycWRSaXN6QlRaTlNxUlVid3ovYnJ0NXFHWVNNdlkxOXZhbWVwcS9hc01MMlp0Mi92L2xlak9hamphbVBOSzFiYkd4clhwSUhpOHRxRjVSQ0dsNlkwUktpOE9hbVI1Sy9wLzM2Y1dKVElxT2kwbDkwbUdiY3ZJek5jRmlrREtzOVU5OG5BbVloUlM0MlMya3JheXQxbExSYnRnZjFWWndWWlJxMVNCR2ZJQmFmdUF1NXd4ZVUzd0tMaGhtcTBTK2JxMWNYdVd5aGIrSE4wTnlXSjc2MkpBNFRxNGpWL21mOHkvbVg1NjZuOXFjZ2lNb3JNb3QrT0FuM2VvK0NhSEVXaG40ZEJ3V2JRNE5hSkRaTDhHRlFzM0hwSVEweFJxT1NwMGVXbkZVTUhZcFlwMWdVaU1sRzNCZWk2VlpKTTIycGhWU2FTS1ZWSk0rMHJoTldaMXN3OEZhdDA4ZytCMGQ0U3ZGZU5obE9UQUN4WXRRaW5iU3d2bXhKcXY2QlZhdy9jcks0cjlZVmNwV1crWFJKQlprQ0doTGZhdHhRZzNTcFRtbERKRnlyNFFpVkxhRllwMDRRR2hsRE1FMmJ4aE5uSlFpTkwrRWN5VHJFZ24xbjIyTitTaE5WVkpmMUI4VlVsK0VGcFdVQTBhcHhvazZWSUxTNlRxODdTNFA1b3dDVDdablRXbVJzcWQ0d0N2MDVuUSsyNnhyb0M4OExDWCtOL1JFalgyK2l0T3IzOSt4cTFVU0NUdW1TUzJSYzF5eldnQ2RmUTBSMWNiNGlTSndaUkl3SVVVZkxVMElidTNrWVh4STZCdXBFNXNYdlFKUG43WUVvMDhRcEp2akZBYWNpVjJOaHFlZElUZHpaSUdqRXM3dHhkWkhENXFCc0wzUEhvK01yZ1RPNlc5c0JjaG9FV1ptOWFid0F2SSt4Y1NwRVlybVFwNm41dUUxczFVN09NT0d0ZjFKaGxCYVlHUE5sZXdUdUttd0UvcXJwc2hXbEZqYjNHWlhLVnVjd3U0NW0ybXJZY3BISFNmZU40bzFLcTQ3QkZrQWIwQldib08wdEt6UjFjSE9lblgxZXV5NnRQSU9EL3A0WVI0bUM1Z21vaEJFV2MrdlorcFpPVWYxTUhvN0N6RGEwVjVZYTJiSkVTdXcwdDJjb1lpbUVBem82SmlqY3QvSDhrd01SVnQ4NE13cElVdmZtWHpzMFdhQXdhZGt5ZVdIMGthWDdLeGdocWZHc2taMjZZVGJjZ0Z5ck5CeThDK2VMbVNyZTRoUzhRdDdncnhjM1V3R1cvdk5HZVZpLy85ei9ONlMwMkxvTkxKQmswYXBLeDlLYm9IeEdveFZlWFpIbGtGVmUzYnhYWi9wbTgwUFpQOWxicDIwT2FTemp0cGFQdlFhTlpycytZVlZxVzExZFVtTjlmVmlLY3FZRE1UODByQjh0dlpFWFZaaGZXQzdTNmVrRjJZVlJ0MXZYQmlsVm1JTUIxYnIwOHRIZkhxYzdHTmFjODl3eTlQMldlWjVuL05SMmVaSDI5S1JnY3BXbmo2ZWJqRGY0ejhsVmZQcStGNC90U0N2T2xYUU9HcnBkT1gveUh5TzlhdU1LNklLeElwdW5TdDF4ck1pa3ZZNlI5dCsrNk02UUJVVFNKUCtSeCtlbUtvMWpjMGRQaXNvY2Z6ck13b1lHRkJRV3BXREZ4Q3dZSFNwM1l4dzBKbnp4eGZoNlRWenlkaFBXcldmNTBja3MwQmwrZkFLU0hKbWlacU5ScW5FVVZ6aVN0VTQ3NFlhMkJtSkM3OWpVZjR6blB5d051bzJFZkRQREJGWkh1NlRYWGo1TUtBVjdNWWR4WWFtMTZmSzBGUTRTZXJkaEs2cmMrQzhUdGphOUxwOWJSbTgvZWdaMjB3bmRVRy85V3A4Umpnc1Y3ZnJLdEZoYzh2K1BWZ1ArVjJoeDIxVklmSERjTlRmSU1Ec1ljOEV4VFlIMjBOZXhjTGFoV1NxUzUybHEyMWdkcjlVZzdnUEZkNVkzMkNFT3owRnljNzFKMkZVaFdZZzU0c0t4WUR6czhvNWFUcTVWSXRibnM2aVcrT0E0TGpVbEdCNE5NWlhBd0ppb056Y0g1TEdGWGEzT2wwbHh0RFVmamkxVjRzZzRBZG8yb0ZkcGJjdStHOEwwUUhnS01uNC9pc0RGQ1NtZ0J3Yzl5NXFJcWhnR21na0graWtpaTJpbFF5OUMxdGo2QkgwZGd2ekNGVHZJaWlMcTB0YVVGR1RlTWM5UmFOa2VsNFRhNHFTS0Z2Ym9XUDZ2R0xWWXZmZGJsNVlmenZsMUpiVUJBOWdsYjIxTGJZb2ZucHpYdklhNUt3MkdydFp4eHd6alMwcksxdFFWcHFLUitBa2tORUI2U3RrcDdaZTlWUGxQK1hHbHNKdUhTMjR4NVdPYzhQWGFSdDgxbUM1R0Z1TWFPQks0b0hPZUhvNW51MWlDblhJSDFiTHRZa2FiUlY5V3ZXUEZRVDF0ZmF6QTRiQ3RxYXc4UjBzU251WmY2NHJnc05OMHJPTmpqQUVqYVRycVh4RXg2RThIRVhaQktYMWwrN2tVY1lIZWxNYmU2eFJld3pQQTNOQ2J0WG5NOTlxTEt4UlA2cUFaVkhiNk1xeUZCdEFhcWtpVjhwUTlXSE1WaWp6MklxSVY2Q2ExY2hIZ1VBTHZyV0h6S1VUdkdzblY2b0lxSEx5V1VjdkZsZFNvRDFWK05Bbm1FNjRVeWJqODJkK2xvTlhWZWo3d25wMGZSMDJwdVBha2NEODZMeExzSVc4QUQzMHhUNjVmTlhDbWhkaDRHaVl2TDh4UzErTnhPQnZTc3A4dTNlVVZUcTdJdDJkVHFKUXFhYnhGWk1zMHRCcmpHV244Z1ByR2hXdFBSZW5POTZWaUR1U0gzZ3o0U202NEtkc2hyMjlQbEVjV2V5a0lvZVF6UW1zUWx3b1ZxemJYVldjNmRSNWZNZEkvYnh0T2dKSW1mTW54Z3pEdnQyUjNXdi9HQW4wYnlYbzlvWDQwVWNIYjlWUVdaeHkrWnhoL3dhNEVXbTFVVWQ1d0dCUnJwdmZSQUl3MDZYaFNYNVo3WlhaSWpnVTNTZkZkZFNXK0pxelpmQ2hzbE9TVXp1MEVvcnJpbElhKytkMjV4QXk4MzJ0K2p0YWU1MENQRXRDcG8vc2hlRmJsZFZGd3IwRmlNZVZaMTkzeU4xYVFRS3pVZ0Z5ay9WSTZVSHloSFJsMGcxT25pRU9RbWdqd0RzV2NOTDBiMlplMS9pL2dRWkNhQ3pCOXpnSjYxdjhMcjBJeXNZWUNSbEJiTW1YYjQwRFNkUEk2akw3WjJsdWJQNlI0K05NMGdvM0FOeFdoWHZranliOFdGdFB6dTZROHlDM3FtRnhqSFdiNEVrRDZPcUQrTmpKcTF5dzRmQ1JzMGdJaVJkQ3BXVDZ0ZWNzZ3dHSFlrWWdva2UvVk9WY05TODFJdmlYMlk2WDh5UDI5Zk1xY2hwSDdKN1BiblpoQy90NWc1dTkrOE0yWE9QZlB6NEdpbmlWSnREbk4yT2J3RVEweVJTU1BWbzdHVjVwSS9tQnF1SjA5Ykl4RktRV0RKWkwreXpkQm0vL0pKSkloUTFkbFVHT1RzYkt3aVFDRG1hL3VycnZVaERVdm10RDgzLy9SaUVTL0pVdlBTQnE1TGdlNC9MQVJYbDhORE1FWTdUZm9RbE9ZaTVwdys4dzdtN0R2bTUwSGtYRlBtL3VScGE3RmxtN1B3NExITWd3L0FlNnM2RzUxQmhaMU5WUVNJTk1tL2ZETzAyYTlzTWdrQzFlTnovMU5mOExId28xM2pwN205STQ0QjJuOTNEVEFXNmpDbG40ejZ0L0NVRDZxditlc1JvR0Y4aTROLzFaek9IdU1rYUE3Ly9rRkQ3TEhsVnorNm9mZi9oZHRsOXNHa3dWVEM1Uy9MTkdxTlZPbHM4K0tYVGZJT2U1citQb3d3SGs3OHZSZm1HNWVJMlpnOUZPVXMrZFJQTzZXNXQwYkFzNXBHS28vTlJPby85dC9NcGlEdjkvQzF4TjdjL3NiSXZrbSsvNUEvdndYdllNcGxKQitEbUdkcGJ0cmJQTkhDTTRoOS9wc3VZMmJvcU92ZitFMmxNa1JLSGxla0JFZTA4dElwMVpWRlU3TFNlSEtTSWx3cVZYSEVaVk1xcTBxbWlpa21IUWVGRGtWRkdqSU10NmRGSjhpaUVQNlBqZC8xSFY0MWNzaUx6TEVxNUJ4ckxKbGpuYzJ4a1FOS1M4OWVEc1hUTUltamhkdW1ibHg1NGlZUXVlellZU3U0akxSYmlVTlNGUk9JRUt1V09RYUY3S1pNZXkyZWp3clhYZ2hhY0ViRkhMemtMdk5mYlBhdlZrT3pqNEtJTGxleVhSckgwTXNvdDM5enQrbHlSNXAvK0Zud3c4R2ZsekZVdUFpbHZ1eGVjNHhDd3cwRnZxUDJVZkJ1Zlg5SnRoMWRwbURLRnBVNTdKSEZNbkJzMUQ0S2JRNVkvV3A1OFN5N1VjK0tzcitxa2ljcmxoYTEyTFAxTEQvNzdSb2xFSTBkMDhpNVFrcjlJSHRIT1o5ZkV3SnBTc1c4dHFySytXMFZLYllrdVEwYXNPa1ZTV0E5N201dlozV2lMVTZWYTlaRE9TWjFuQzJ4R3J4ZndEOGl2UmJKNXBhMDFQTXV5ODVFcHZPTFdrRHBzdCtkU09YK09SUm5OeHNDdE5aREUrZllBK1F0RFI0b3d4Nnd1TFE2TlFyTUJMUFluZlZTRzVQSG5Kdkl0T1J5RXlCclk4RlVpOTRSdUFxdjA2eHpYTTY1L3ZQSS9weEFXQzhSRzJEcjF0RHBOUHNjaDN0dTBXUzBBVWRnNEJQQm9rMkxCUHdqWXN6S3RRZjNjK0ZpbDNVQ0FXWVRBSktTclIzT09TR05GRHM1WGQ1ZHdIVk9XWG5RMncwMjZaNGQwbFpnUmRvTFpvVk1aRThYd05jVmFqUUM2aXJCSk1ybmhIUTRXV085S0wzblgvTzhwNEhVcisvSVp4cGdFeXg4V3hCZzVER1NUYno4QU82SEpvYUJteGZ3UFBlNUUwRHpGbFpVdUNza0hsSTQ2b2pQc2J1WlVodmZscWUyZ3FJM0VLczFvSGttaUhrY3BLZ3FWdm1wMklVMnl5RzhsaWJwOXR3VkY5dDhlQUFCR2g3bG1EakRta2hnV2FheWFJSkNMcitSaGI5ZWY2a2xWRlIrWkhzMU1COFl1RWZvNE4xMjNGNkIyL0NjeEJVSXBvT2gvV1dialB0Vks2aXFPWUszMlB6cXIxMERpWFlxcldEMy9na2ZUOU5KVkw3RnpwQzB1djJZRHN4VHFmaFNIaGV2d2QrSFlTUHZib01ENEUySDhCSmZUdHB4TFJpZjZMQm10OC9DWTNETGRWNEltTDZuMWhHa0NrRUZLWUw1bWphb1Q5SXpWVlpkM01aYXBJL1JVelZXYnNlYUlzalFicGlSd2VaYjd1MWc4eHpiSGp5QTVGazJOMUFENUVHQ015ZVR6UVVaQ290RFFodUlVWkZVUWZqdzR6RWtzeTNjUWpjNW5ZNFIyeU9PSGJURkNuYVFsZllXVEJGR2txUW14N0RVUGxhQUtuQzJxVlcyRm85aTlLSW9ObFZOdEtQekxRQ2pTWk5vcGVzWEpVQXF1bFZIMkZQMGd4VGQzQXoyQ2dVQ1E0L2MyREpieWx4RFpHQmZieEtINGlxc0tmTVBBYzFleTVpbDgxMDArcTl3OHUzZkpYZVFFVWZna3NxZUlDaFdPKzNSM28wTThlZU14cU50SkUxSlRYTGIrSFB4SVV3cThCMjlkbUFuZkdjTDJKc1p6RDZnSGt4aHpaWDl5UDVZNjQvSVJ3ZnNHRUFPeGxwdklaOHF3ZVlydU9ZSTR6SGtWcFQ5RDJ2QUFjMThPeDNXcFpIMmc4aDFhczJUU1FHaCtIdmcrNkhzb0tOa1V0cWxNWkxGUkszRmJNQUlvMXBUUDdSR01hT011U0F6a215ZW15MDJTVTdhSG1zbTRXWXN5ejNtUnM5Tk90SUphbzZTRWlQa2RuQ2xmNDdNQkRHWkF6YjEzdWRCM0JaRWJJdlArNnFDamJDMDhkd2VtMndvTlBCUCtZZlNzTzZValRBZkhvUGJLekE4Z0MxMjVXL05JVGpqeW5xeEE3OVl4NnkzdHlTeTVack9IemZuUnh1TTBkWU95WVpPaWVJRGZueHZpOTlCekwzRWJVRHVQMUROc05UdzlMcGFTTWVyc1p5MmhPd0tEZGtaYWlsTnJ0WHJ1VFh3YWRoclNEZ1JZanRxdUVEVnhVRU0xTGtmSFNjU2R0NmJVM3ZoQnpBdysxemdkWHRHL3FvM2g1Y0F2cFJSSzc1Vi9mMzFDOTBUZHprSDVwN3ptcG53dmJCOTdDL3ZYM0dFN21BSnoyVzRzWDlwNjFoTGJORXdIWFJNS3dIdXByKzF6M3I3NDdrS1VOM3MyLzJ6OVBWb2pPYUEvQWRTTms2bGpKZFp4NndmTzRYNnNrY1lCd1Z1bmtOZzV3SDJ6Ujk1ZzdlRElyWHZ1LzR3UkpQa3JScUZza1VUS1RkR1IyaFRHTW02bEpaSVR4Rm5xbnZZdXVJL2hVWUkzQlk1YnV5QjEvYU5ENjNSQlJYRHlKYUptc21sWm9jb3FhVk1VNjQ1d2QyNWdWcEtLUTJZeUdJZk9yNVorYjk4eGYrZnhSMXBoWGtaR1hsUHEreWYxWlpkb2l5eUQxSkk3OFJidmlUN24vbU1vWkhLU0lta0NUd2VYcEFZRmpRaEtEQWhNYUVzZ1hZUkUvOHhLZm1IUk9wZVdsQjRzNVFTRnJqdWIxMlROaWFhMmw4VmRsQjVBNS9JSVJiSTM3RWM5eC9KeFl4aHV0KytNTkk1TkVrb2IwbXVUTUNITVlzWjE2elFzQjBlUVQ2MGlBbTRzSmlwVktJeEtKbkpTSGhIaTc4VlJjaWV5Z3ZFK2VnallwK0QzbVAwek1ncnQvRm1QN1lDNkpSdFFqM1dUVDhSOTVIL2tHczJXSFkyMER5QXgrRGJXK2ZXZ1B4Z1B0VzZENzVKc2Y0Rms3aVRiWUFxNFBta2JTLzhJelVRSWppZE5neTVnZVlZNWVSRjJ5MEI4ck5iTzR5M2R1WWpyVWo3N1Q4b2lUVFA4dkxiODF2ekkwQXlNc1p0SmJjSG9jWndUVmxOeFZ0ZlBQYjNHRElHTkNVd0J3b2lLU0NwNUlicUhNU1Rid0lLcnJhb2ViVjNGcnlEQW4rUC9CNmx0T2d4bHlESEtQQkRHT3dGbXBzWXpDQ3BWVTE0akg0QnZDOE8vaEg1SEtPeklPcEhobitXR29QL2pkR0R2Ynl4OFRyMTFReFlKU2MzYXJCZ3JWcWlQMW1DNzJoOURTVmJEdGdtSnlkUHR0NmE2RDdEK3BZMGxCNmwyc1laLzZaWnFVY2JTcDh2cnRMbTZ3b3E2M1ZPclF1NE12TjhGdVNTRk1ab1ptRzJ4UHUyL2JiRXV6Q2JhWXdtS1JiazV2bElQSXE4YnRsdm5WR1VGZFVFeUpKUit3N1hkcytodWdHYmZ4dldRTmdhNVhld1lDc2dUNGVBVzNVTnp0amVtaXJXT3A3bGFXN0RsajhCZWFHTUR6M3ZycEc1MUJ1T29YYVlxQjF1dUp1Nzk1RFUrRjkrNm1vVHRRdVFoK0J3MjhYcjRUbUpzL2VLazJHaTR3WHNIYWJNODcxczQ3ZmE5SzJBL09ibWR0UE5uUVhUS3JSMXhoZURuTzdOTzZ3TkZ0U3NncWx6b2p0UDdpWHVtWGZQU0YvZzlYc1h2clFmT3dLUnhYa2x6alF6RnNtOSt1SDMySU81K0tERTlIZGU2bXB6ZkJjZ0w3NnFZYTIvK0hSdjZHSUR4SEVsZFhQaWRCTmpDZjNGc0pMbzZuMWkzaE5GT2ROM21EUFB6MDhINUgxMmE0WFY3Ymk5SFBySmZnQUp0eHplT05Ec1c1Q01mWGhtM2dLeWNVa3MxemxvWmlaVWMwNEVZZG10SmNjY05Hc0dWQTNJM3hvWUdpRitEVFJ6QzNRMklhUlJEYzBnM3JrL0lLYWtaWEhsdDBuZjBKWlVOdzhOY3BTdWRaUVhGVUJWWW9WRzhJV3VCNGpBNWpqSWdUeW9BWlhsblRhZDN1ZE15TjYvc2FyVThhVHhWYm1uT1d0VkNaUWJuSXZqK05zOCtWQ2U2bm5COHRqQ1ZObVc2WTNMaTYvR2ZSZS9wS2lURmd1SnNOSjMvMTlSa0lia1VaZGptc3JYUERTWi84cUpMZ3gxcmFKVU1iV1BUUmw3cEFtQVBOKzFOTGFjb1hrRVplelhKaFV6RkxVNHJUMWM3VU9vL3NHbUR3Zmt0bmRDWjRKQVFyYll5QmFCeEprZ2ZBZi9scTZseDBpZ1dJbUdudjRiMExRaEQ0ZUdIbHNZSTlFcXdwdEhPeUQ5dGdDaFBFSGUrY2EyR2FqVEd5RnpaSEZBRmRkZXpWY3lTVVVHVWxFTHJkWWNnZWNhV0JFYWpJRXRCKzJDN3hGamJBbXVscE5iSTFSTE9xQldpc3FSS1FqbEIvaG5mQWVpTFJ6akc5bEV5TnVjS2YzWFFnYmtQdUVlSUQ4K1EyNGlRTk1YUlBTeTcyYkw0eHlRUFR2ektiZVJkeWdTQ2lFUjFCYUMybzMwNEpYckRlYW9ZdjlxcnFOS29CSVIxR2FDdWlpdVBqZVN5ak9rUmVnOGpUdzVJUFNSSmlESnlFLzdEcVFwZVNheUxvL2k5eHY4enIrSm9EVkhPajNGY0doaGNCbmZYTUdXSXlLekxOZ1JtNzhOcEhtbWEraUJRQitvVGdaRXA1bm8zSUFjK2U4UzhpaTh4QlJlc2cwNStiL0tvMXlUWElhWnlDNnFrK2pmd1VEUTk5OUhCT2NXMjRuMC83Y2VPWXp6M2xad2FQeWNOUXgxSXVzMytCM1VLRThyYTBzcmI1Q0R1MTl0aWRXOW5UZkpMd2REL3Z5OGdydzh2bFozQTEzL1VQd2RTU0trdTMxWmt5bFVDVFBVR1JtcWpFeWcvZXUxZGRBMGFBVnh1NW12Z1c2RjJmclZDdVExQXJpTDRPMzQ3Y2o0aVgrTGxsa0k0THlDOW5EMmk3T2xIYnQyZFhTKzBwMG44YitPeVZQM1Q1N2l5QUY3VG02WEtmOTNRQjN0VURzRm54YkE5b0twN2NSSjBXNkF2Uk1WKzZGTWlHSGI3aUtGZFpPK0xTZmxleUFhVWp4K3JFQ0phbHJHc2FmYnpYSStpbWU1QzJTeUZLWk1zcjVCU3BncGpUNkVVOFN3VVFMK3V6RGlOVXp4dkUwTmVGV2dWcVdkeCszcFhFeVRoQ3J3aWtUSkppZGVIYWhSYWRTQitMcE5FUnkvbkhTaWVaL1ZaSFhVYkZ3aDZrV2gyYUxONnA4UHUvYnMrcnhuOTU2UG1yMjc5bW8vL3IyN2JkZnovc1BHUFJzM2ZONjRkNk54OUJrZlZxOWR0ZmJhRDJ2V2lURHJEdTc2ajlEQUIvamtVOTQ3YU9QbWpkZURTZTRJa3BzVTZTQkZPSUI5c3ZWWFQ0Zkw0UVgrWjlzNTlnOC9XMzhHTUJ2NStNeis3Q01DWE1oSHE4ajY4YWtkM0orRC9BUTg3QzY3TjdpLytET28rd3lRejJBendLMkRBQnlMM3lqc3paUTNBQ0pBektoOTlHazlFZ0dPN1dybmdIY3BMcnVyeE14ajVDRE53Qy92ZFlhUDdwZkZkV0Z4VStLd3VESHNjNjJQOHozaGZJOFJHTTd6M2dlNHpXT0FmZkd4aE5vbjF2OHpOc0VaUTJzM0pTTzJmZ1VabTJFOXhpclcyWVM2cDZBT2tOaTNIOHUxdmllMG5aN3l5TTBuOWxWOHJSOUNBK1Q4cHUxK3NUNEFYWEdlalQ5NGZxMERBNjVOY1cweWk1N1Axc3NNY0ZEa3U1RFE3eU1hOEFQV0FYeER4UGVoSWU4aUk5QUE1bXkrUlM5ckEydm1EbG9IUTNuMFNkcmpTQ1RJU2ZONFRVTnhReFJ3bnQySm9NZTBrelFNdEl1NVYzZXhLV3I3RndSRUxWN3liZmdKK1FJZ1ZiQTZiTkN3TEt4TXdXck90TVlYV2NBL2s1TjJKdEYxWkN4djdiVzF2TmlGb3VPb01kdzkxL1p3WjI1SXA2VEg3UWxEbE91MTBxQmswSEUwMytQSGJNY2tzK0ZqOEtqeGl0OTY0d0NQbk1nMG5CMDNEUUhzam9pdGhTUEUyYVF3T1JxSlE0RHZKME1GNUZQU1NRaFhuS2Vkb3ozd2NYdFMwTU9tOG16Q3VRUTMySUgwV0Y4K3MzYzNybG5qMTNEQ1VGdG5BS0d4a1ZFNlZRSXRIdERhOURmbXJmOTdKcXo1R3dUNnNPQVNIdkJyajZ3d0x4b0poQytyZXJ2dTZtSlZMMjFQMUxtbVpmUFZUOEI2bk1XaHlqVUxadFVUVzBNWXNPZjJuZGl4L3VOVm5ONWZPNHQrN3E4eHNQc241d0xGdnRHODVFN29DbWpkME1wRmkyekhLTFRaWVN1Z0ZXZVJDbFBLZXdMKy9STENFeUNmS2YzZUtBSWVUcDFMZCtPUDNmVWhYUDlqelJFb1dvOWFmZWhzb0VpNjg2OXEwM1VYWWYzTDFZZWhCWHgxR21zM3VmTFhPNTAyYjgwWWVmSHlwMWZmdlhyMTAwOG5nTlh6Snd0SENRalgrRnN2TDdBNThDdWNJMlFiTEdNV2NOblFQRGlrNUxnbzZ5cGVRTmFXeXNWSjM5SytBYUxXZzZwNmlac0lMQlI1ZHl3WStxeUxkWGdiMGJsbFRhUEZjdEdTRHhxMXFmdkYwM3d3Zm9nTElVZUZ4bjBBUnVBeHdudTllcWVpMENoeWlNY0lPRUNZMGRDQ3o5cEZEVFdWallJTElKTzZHMXdBUzhPbDlYdHhFTFljT29kbTRCRUFUVktoZFBNUUJTN3ZIRno5eFB3VVc1SWdXNk03YkR1Y202MFdKdGxTOGhzbTV1QU8yUUI1WmNPY0JtdkRhZnRweUlDYjhLS1FodXYyNnhEZW00WUw5K1pBYzRENlZ1VEZqZDNDb2FaVE9KUjBRSjRGcHBVNmhQOXAzM0VTMG12RGF1MjNEa2pna3dDUWR1UWtDREhvVnA0OGpnT1FiMEFsK2hMSWNMdFpHdytOUWJjcnRMMVp0N1NoRkFLYUc3ZGJ0S0N4Vkc5MHB1NE9oQU9xbXdGbzZQQVkvT2JXYmJFZGVTWHRKYTBtZFB1WC9DK1lZVjRrWkFTcVd4VlV2dFJSV1ZYWVZ1T2tXNnFoalVCMXFaSUxHbHdWWHRtRktqQlkzZlZPYVEzNXk1SExPbHNRSWh2SXJDeXNtdHF3TkZ2MHZVbjE4OGVUVG4yZ2xoZ2lzNUtzd2E3WjVMSkU5azVUL0ZSVE1vaVpWMFJRRW9od0FhVWt4TmtWV2NFVW5qSFRlelYwU0ZabDBWV3lJM0ltY1hQTm9qemFHc3QzWm1XTW1pVTNpMFlCL1o5bDB0Qzc4TnYzL3lHQkV5QmtBclFXT2ZEK3pBbDZhQzRTbWp1ZDdwYUduc1lEemlMdjl3U0Vub0ZtYVRvTFdmbCtPendxRGYyS0JBdG9sbzYxKzJGc2pTajFuKzM0eldGNVpyM29JZmlid0FmSUh6VXVxMVBJcmNDZlRveXpzdWhaNEIvYTU4R1lLMm50Z2RmZ2wyaDBTelZuR0poNE9teTdvWVliQVFDUEt2TEs0V0dvWVJxaVhzd1R3OE5RSkFOSFgzWERlaGpVNTdmSmFST1hmS2VKN1RmVGRrUlhXRHNweTh5UjdSbHZGNHBkUkp4RlV4STJtY2d6cHpDV25GTkdUVExGTFIzRmI1Y2FoM1JUSDluNXU4WGpuZW5kSTh1SHVNWEVVbjFiYks4NXZINlFiV3BkV0tJLy9SelYxV2FabDUxTWpxVUduOS9OWEhKQlNlNDJVVmNsVnYyRWtIdk0rbWZLQk5PdjFRRXppTnVZQTRXSnJpNDFsL2U3eHJrZGtDYkNYZXBYdkx1YVBLYkhiM3RxdDduYjdJYjUrL3JCVnQvaUpuUFRNWCtncGVGN2MxaDN6ZFFaeG5QR0RIVm90enBJdXliNXNkbytiV3grb05iVGYySHB0aDRQRDYvZFZoRzhHMzdabjd0NEFlY2FkSTN1elZDUkZCWk9GMlFGbjEvZEl4TDRLQXdTbm1ybkpSdGJYMnRQYjFIN3VqWFpNRmU3MXRNdndzOFRPQk1iN0Joc3JXZHUzTS9vTm5jM3RJaWpZYUJGQjFDQ3p1NkVhWWpqZUpIZFViVW5lVkdsQ0Q0Sy85QmZzL2plNi9zVHdIS2dheEIrVmlBNkZEcnFHdlgzazM3L1F3STA0Z0UvTEJhcmJFUXVYTGgwQVFHYVhZbGpsbWxqd0tmem1rZG5QNTVHc1BrZzVCeDR2MEN3VExxWG5NNGR0VjlxQWR0ekR2M0xjSGVhL2Jsa1g4K2hxS2pxTi9IakVpcDlST0JVVGhiT2JqanI0NkhxS0wwMCtld3BBR3VjYkFSQkZjV3FZcTN2dzlXcjY3V2Fyb1BKVnpsNVBMaXBhWE56RTh6ajVsNWxuTmQwYVc1eGJJQlI3ODArQTVzdjdlTjlNSkY1M1lkaE5CL2FPaS9LRHRQQytkN3NOOVBNQVdERk1Pb1NYK1FaM0FvRW1FQnl0dmlyZk9NdkJnSk1ZTnlMRnJ2ZVRyTWJnQUNTQ01jYXpVVVl1NC9MK0RDWEFzTGRXMGpJRmh5RTA0Q0xBVDZvRjdERTh0QUlRbGhmeHhNU0hyTk9jdDBiMlhqTXBkNnc3bGp3UTJFY2lmV1lvVU1GKytWeEd6bHRkSnh5RmsxRVhpODBDUlB1SFZJdzJ2eitWSjRqWjZNdW5SaXdzciticEU3SFFVaElIRENlNnNnNm5MU3lNUUR2L1BaM2hVTElZbDZuV0gyMUJJdmtFd1ZhRTFYSEF0bVo2WjRqMkZ6WHR1VkgvRmk3eEQ1TSthNVdFbmFkZ2c3dkRiS2YreFZ2MDY4aThjZHBRa0diWFBsYmF1L3puWWFsSCtaUmhLejBLaDQweXY1NW9hM3VnRzJ1ZlkvdkJaT2RLR3VkYlhZcTl5OEhBazFlYUpSeHI2Qm1zZkVjOWRGZldwTVhDUWlJWFZzSmxpeGsxOWovbm5pZjQxTTF6cUQ5YmsvTmVmNnFMSTFEeTkyOHlwWnBZNXVKKytvQ1RrZVpQTm5mcFpFdkJlZFZneG1USHJlTGNSVGhsUHZqQy94WEpxak4rMFFEa0NlQVZsZEp4NXA0OG1Id1JDdGxPbnp0ODN3V1dpbDUxTi9ibXhFc2tZL1hQWkdOUHVvMHd0cjB5ZXZReVltU0dUbkFrMVF0M2tXOW4vb3phZFZIZFhtU0JFWDM4QjFFTTJuU3lMVEtTTHhQRWloaHRjeE9NQ1JPUENISVZlTnJBeUsxZ1JOWnhocTVOUjgwSnlPU3R3RWRmOW1yZHE3OVpZbGM3OU43VzVrSHQ3TktITFcvQmU0c1dLVW5tQW15TE1IOFJ4RnU3SGlUN3lWMGJ0aGM2RmdtaU5rZDhRby85SVNCdS9JRVJmQmltbTR2NlFYeHRhSXJDRFBUdE15RUlHWXloTnZ2TzRsNDVvQ2VHbGkvSnVGaFBEUUkzUmpJbXNVQ2tZa2VHUHM2YU1XVHhuYUhNQjU0aVZZZGt5N1JZbWdoQVFmTnRVOEpibGwzOEdNVVpEN1NFNjdPeE5tUHNnTUZlREl3YkxPdkVjVjBXbXhOQTIvd0tQdWh3OFRhck5taVpIWVZ6SXBhSno3Z0IzV0lxTUtGYnVZa25tWUdKSHlCRHhRZGlWV1BVWlFaZlJnbU1oL3FuVmxqRjBmbFllS2kvYzc5VGtxWlZJbG1tbGJTSkE4TVYwMGhvSlhqSmVBUHVaMy9Jd2NGMlU4ZVppT05CL3ZYZFQwYXpvR1BmWDBmQjdGVzdMYk5KTkptOFBjMjB1Yk5wRzNSTGc4RmdvZFlCR1NKeHNHUHZkNzVpTitkT1NVZEFRZktlZ0JyQlRwTFpxYTdNaXNUUkZuY2xWOVlhVGd3NjBrUkZpcnpiTVlUc2s3ZUxEeTRpL2xJMy9BbHRpV0FqWmhvamsvbkV2dVNGQ2lJdG9GSEtYeTNTNXZ6dUxOclR4Y3FFdEZGUGtvQ2oxcW9aTUVrejBIb0VGcUZlVDc0Ymt1UXVOZEZkQUhmM0NUdkpHL3dwL1hzQW9UbldjZVdBL2JjWVFWOHRuY1VBY1o1SU9kdEJWaGY3QllHT056VktrYWJsNkhFV1d0SklBSnNLSGk0ZWpWenJIbTQ5bXluYlhOemsyUGk1cWJOQW55RDNtSmdRd3V0NUxieVRJdXRGbDkxbGZMbGx3UU5aL1lydEYzRk1Gd1c1aDlnYlZJRFpsM1dINlFxS2t3cE4xZUNJdEVGTXd1L2tWRFVxTnN1dTVETlVSclJNMlJ0VkZrQVIrTzJ2MllQWk1kMTErL3lacVM2UGgrZVA4aHFXWVdxdDVZUFJKNWFUeVppSmduNnJvQmI2V2psYU4yOUZwT2VMekFaV293R0FkOE1oOHJZV2pDUWp4MzV0czFOVGY5dlpBVGo5SkpyZDRoRks1Kzk0Q3M5UUNCV2w4RkdwV3FuV3ZVU1h5NHFWNTVYS1hjcVZVYTRURlJtMDZmQXIvZVF6UVU4UExXSitVMm5IN2Vlb0NmdHRPNEFkbW5SR3RtYURhb041eEpGU2x4K25hWVNNS29tdi9iMUw5VmFMWWVyMHhteHBocllPNVYrK1RVbGw5SkpJRkxpYnJYV243NXdiSWVuYllBU0F1WFZhTjVZZ2VHbEtwcFVJTW1URkpGVjVLTExVaUtnU1ZVaXVWblBUaXlTUXRKc0p6eC9yaEpOQUlEUHNmVXBIZ3dpN0MvWGFNeFNtVEt5RkdwQmNOazFOZC9vbUdwMDhOWFhxRVMrWEpPWnNiWm5HWTFjaHVNQ25MazBVM1dHTzNsMk5pSXZ5RTVSeVk4Y01WeEt0dU9RN0JDa1FQb3hSQU1jVkE3S2lES0MzWUdSbXhLU1pibzA3eC9lWlFWLytMdnQvMmhkcXJLa1J1a3M0SlpHUk5YcWF3TEFmTG5PQWliaVNGVU9xUzY5emYyamNkdXpqajB3MFc2TUx5YUxGVG96aVBDWWxGWFF2WmNZVHU3SUc0Ui9HL0FyUStMTGZham1LUHpWejJrOWxyNnd1bk5ORFJjM2x0ZTRPbHd5UVlabElOUE1pMis4ZURJRlJQbmJpdHNxM0NXdGlPcktQazFjanBZMlVTUlhZYzhvNVlKTW8xWW10b1AzLy9mRE1qcDBzZU9Ua1Q3L3pscnZiL1pmektJczFoVVZCVWx5UlJtN0o4dko4aHl5QTBqWDZwVDVURkRrMzZGcG1IQzZjOXk0d0xYZ2Y5K2p6THUzaityNXdYKy9NeXc3QmhwakxjMW5jekQrcWd0U0d0djNkSnBwWHk2K2lESC9GRWtZQy9MM3dwUFd4cnNQVFlsYnNiK3JiUjVja1V2eGdWYW95bGhzUmpsOXpVVzBKMDY1d0JnTlRuaDQzTzM5OGVDeFl0WjAxSjhUdlkvN1l1ZDVCcUdrbG91UkpMUy9OQ0RFejlmN3BLLzM5b0NTbUhMQ1A5T3hqRmdpUzlzYzRRa0hvenhDZ3VvbStjWXYycERRNmRoVWVRV0g4a1NuNjVoVEUrSjFuVXREZ2h5OTFERFpRV3k0Wi9pMG9qRGY1a1VVcjBDeWI2VS9Wb1VMS0ErYThDaDdNb3F3YVllbk45YmhOU0ZJTlNHcy9IOXMwTXdnd3k5elNaSG5mTDEvSCtrcnhVYVdYSnlKODU3SzRYajZvSmZQd1lmSFRkZDZld1NFTmFlZ3ZMQUo1a2dmN3dRaWtSR0p3V0FML0wzREpGUnNrQ1U0a3FUcnVwcmxRMG9Qd3hFYzZyYmk5aUF2VjhBMmEyemNrTjBuRXUrN0IrdVRnZkx3dDJEaWFqY0VCa3dNbUJBbTkvZng4bVNHKzc3MjkybnpLdmNqaEpKSlhyTEsvK1NFV0pTSGhkdU9BTGFmTis3SWN6cWJqUXJDK0NEL0xWNFZqQ3BHKzU0SkNzdEJzYVF4cURqUExaK0hIL2tGMWtCeGFBd0tVOGYzODhoRWx6cHZKbUk5VWNtZUhwNFlkazJ3THRBenlxTVpQMkdhNzNieWUrMGNuTTlKRHg4TVNsa1p2S0g4blFmd3hOZ21lS0JhOHYwbm9EMHkwQmhQRDErUFJXaE1Nd29QSkhFZUV6dzkwQ0RHKzROS29FUlNUekdUb2dTSkpSOGFFeFZaakNSR2xwNFc4WUZ4UlV3TGUzODc4OCtDb0ZoeWRDUitJeWtxS3BxQ1QvNVZtQ0FFN1BzNjhZdis3M20rQ240WTM3RUlXWjlCTEpReHd4Q21tNDd0ZU9vSjFBZTg3MTRsVllIVkFkcE54YkdWeENxOTE2c0tXMG1mdE5NMzk4c3QySmU0ZElabU15aG5mOFczVkhaeldmdXFhbk1sdHhwU0RCZnl6dG5EZHVmRXFzcDNVUGFKOGNWS29rSlV1MkpadFdLU1BBeGw1WU9vNFN2QTE4NXppNms3STlpZHNrNXlnM3lDM0VGMnlCenlESFVxbnoxZG1nb0cvdEd1M2ZPTmI2YlRVODFKWmN1TVVQbkVLbmRwbTBYYlVLS1VNSS83RmtZS000MDZsY1FDaE5vKzZPbXBGZU9SZkZ5Ni9COGRVeHZ6dzM2VnRhUzVzcnk0elM2c3ExSm9JazdRNUh5eFZhWVZHc0IrekY4TnVPanQvbTVTSjl0TWVrdEJ3U2ZkSDUyRkZlMkFzSDM5a0xFRXR6ZUpzYm9RWjNTckMvWnRIL09rMUQrdnR6Zi9ZVDVPZnl3WHB6eEsrMTRPc3YzVnVzckV4VlM1VmNtSXpuWmkvMk1qTStzNkRodGFQcUk0dlVVajBpbUxxTGs1RWxaRHRFczlxSmQvdEtsVTdNdjNaMVZXM3NGMXgzeGovQXl2VUlPWEpzbjI2OTkxZFVxdWZqL1kzdjVUWHdlSW00YndhQUZFNUM0cDh1TGg1YjYvd1JPTGVuMnAvdmk1bTE0WW1QWEpCNGY1K2Y4MnNZTy9MNzdPOXJqZ2tRQUE4QUZvQXVCSGZaMElnTWVOQXVaRmJpVlBNWmhmMFpVQXZOcFJodmVSYlp2RS9udlliQUlZdHZFZm9IaFh6R0dremJ2Z0F5V0pndVNWeWVnallGWklIWjIwcGE2WEp3Wk5VVlR5RkNHYU1LR0s2MklybFR3U2lDU0pkZWJSYXhXZXA3S21VZmx4ZXhyV3pHeFp1WGtaeXFsTU9rY1pOMkZyVGczUG1IQXRCaTNOaWtzVU5xeUNtckdyVTQyYXRMeFNPd1NaVzF0R0ppajlISzE5ZGhsVEcvYW9mZU5KV2t2clpNKytFeG93VFVWS1ZLVWFKN0dqZndCZ1lWc2hrY2k1WnNrSEV2ZFcxcFROSVMzaHhEYURCMXkwTktrY0RIRURiYXQ4VTZsMjRsWUtGcEpZZlVYVHJKalVrZEpFamFJdGh1Z2t5Z1dxVTZtdHJrS3BYcC8zMnVQR25qOU0wZEtqd1cxR3NhYklUVnBPR3dXVHl0RVV2eGwvRWNlUmFwb1NnaEltRHhzbFE2cTgwcXhGVmIyQjQzYUdKQ1pOTlpCWnk0bTZWcExFaEd2VWhwV2YxT0tVNTEyWlBqUU9WZW1zdlVIUnRRYUFOQXFqYnVza2FneXhXWmdscldsTnA3ZGZtNm5HbmN6bEdhRmJiTVd2ZWdDKzFzQUVKSWtJbHBNMnRxc3ZMM0lXVzJKRzAzMW9HYlUxY1JTSkRSSlBpS01aaEp3VDF3RFFHYXJFLy9RRkFCd3cwNjBtODc2ZHJUNmVRUE5yZWVldG1XVk9LYmRyUU5GcVI1Zy94cDdqanUxL0dnQmZmMEw1NXV6SmxsSGtTRDVIOTV4aHgwYUgrVGNva3F0WldITHlaQjgrcXJSYmRoZW02a3E5VDRkZWxzNGxyalN6TkMwUlJ5RkttRkNpU09iSlNKYUlNeld0RWpoRTRUTWsrKzRxUy8vWDQzRUROS1hUNkVSQmlDVTZxWnlzTUhVaURvZGFMZDNWYjZVbEt3SjVjajFRU0VXUTlEeUZiTlZKQWVaR2JZbUljUlkrMUJ6Zzh5VXFpVTNNQUhWTTI3ekZSVVNraEhwL296eHVnTUUyOXNJWnlqT3VCZDUyUmVZRGlKWmtLNjFzWVY3dVZFczNTVlBDaTNvN05XS05UMStlUG52Y0FQc09MWnpWdFo5ZFkxWjFpQlFsbzBobGs1UFExVUpQSzVNZUwxenB2SUhZRGQ1NmZjSyt4bmpjQU8rUGIyQXZYcUVpMDJUYVNXaE5EaWRZZitUTUwrR3dVY3RDb3lLMHhRZlRJcEdMUmtrd2FER2xOZE5mano5NER3amRrUTAwK09KeEE1Z25XdWZ3a0hVd3d0T2J5Sk05MU52b1F6dVg0OC84RGNDdTZGSEFLZWtSdEVVbU95cklHZERRcnQyb1QrOE53UG84U0hJSHZ2MDgxZVBFcFZ2NUJiL3poWk1JWWltZHozMG1UK21kOUw4WXZncm9QYkRWTDRQaFZJZWRKM0tmenI2MytDRGVDNEJZbjN2TzhRc29qcjdrR1kwZXA1L0FrMjY0QWpSYllkV1pVWXVreUtqMUh3RDR0d3YxRlVCcEdpQWRzNlNyUUI3ODgzbE5leWFieGEyTFM3M20zMHM4Ym9DWjFOYm5LZFlVaFFzWituemd1U1JtbWM5dHUxcGJMTkdnMmN5Ni9mTS9TK3I1VWt2THJFTlptOWRCK2ZWdHlVc2trWDZkOUEwRkFPWTMxQ29RQkFBRGcwcDZJUUdWUFFFVjhJbWZoQURyT3d4QWVmZ0NBQnFCTlJBRklzQUYwU0FBUEJZRFJPQ3RIb0NPb3VzSmVDaXJYb0NHbXE4M01LTU82Z01JYUxTK0lBdE5GT3NsUWx2RkFiclBJdjBBdzJkVS8xaWh6ODhHZ0cvb2NZYUE3ZlMzWGdHRTVDVmVCYXprblg0RGZKTHZGNzhGWHNuUEg5ekRnSWprbjdXejdZVEFZMmRVWWVoVHQ1cEZrL0g3SXI5WUg4MVlpQTFrcFh3cGsyVUdWUDRQQ3E2Q09GNkdFSUVBUjhIYW1ZSHBUSHBFcFNZQS8wTG1nUHZ1dXVjeElEY0JZbGdCY0VHQ0F2QzBFQldnb1NqZ1FsSjArYWFOYllDN1E5OVdGYjYvN0hVZ3ZuKzV4TFFZY2E0aTBYWHZYbHYzN3VkZnZtQ3krUGE4Nk94WTVZdU5uV3Z2Z0Mzd1V2ZGFabzdzdlFWZzVQUGlvT1I3Z1ZBRWVTTlV3SnIzWlJQKzRreUorTjZFUVRjRDlqamMzSU92N3lOY2F3M3VXeFVhN2hYQTRJdXY2eUFVU2g0N3NRTUkyRUx4NzhKRmtTMkt1c3Q0enJtU05vbFVha09uMDFOcFJlbXM5U0t5ZGN5MVJSa0IyOW5CZUJxeHo1em8zbU1NdXdMVENUTnNGYlhnM2pWMkFQclRWTmRocFlLRDRwL0hTUzdFaU14ZlZPSThWS1VIZzRvNWRTRXp4UTJKVmtpSTM2RE5HUDQxRUxMNS91TnpyUGprbGpJejVpM0ExUjNEek1MNHdEYjh3U2VDSDBsKy9MOWExRG1VTjNha0hIM3dLbEJnVmdVNVdOVk13dGNyTkozeU5iVUF4TTRNZkFlSHBlb1pCQUhSUFZ5Qks0QmtMcEFJd2VDS0NSUllyL2E2TlZtbUNuMFpIWHgyTHBXUERSa0N2SlMrS0pNNWltRWNZWTBOazhqbUl0eVd1aVkwMzUrcHY4MHRvQWpaeHhzUzQwSEF1QUh6UkE4TjJwbGorNnFqQ2dRTHZWL01ZY0x3KzVtcDd1NXFzWTJvYU1VVlhJMXFZOElRMm5lUUVXT29WeDNwL2w2RWtvcXJRbVpLdG5paFBiZzZVZWx3dnlaRGpEdUVZQmt0WG11SmFJQ1NDS1BtVnFMYVE4bE5vbkN3N09FMzNrMHEvQ1FpTEFOMXRhQ3M3VGh4UHhCT3JFdW55b1RwdWpKOW4weDlmNDNCQWE1aUxheFhIdnZaQjQ2dkZrMG1vTjBXbzc1Sm9DZEp6OG94bVpvRUlreXdwVEtOYURUd003WHdWMC9ZaWFsQnFKVlhKNmJFYklXUldsSG54YzJxMm5ZdmQ1NjdzOStOcHNaTjF2R2sycGROeGwvV0lwNC9XNzdncmZ5eHo0Q1BBQklBOWVkZGg2MHByQ2Y5aWFsSzU4SUQxYzZzelFTYjdLN29XQ0ZVS2ZZYVI4MnJDWThQVnh4TzBoWnpNQWxMQnI0S3EyZ2ttU2lTWEVrQ0tRN1pueHdwSVZPSjFTWWY0U29Kdno5VGJ0aVRPVjhVOHB3MTBkOC9KangzWGNlWlE0aXRVMFU1amFxdU9WZnVKSlJlLzd5ak9CZ3ZyVmlDbDBLQmRQWVlEMHB5L2lMQTlkc003R2dLUFpNTnE2blV4aWF0NTd1ZWpGVG1aei84QVVzc2ZsaXpwUE5aWUExblFVWWpNVVFOeDdSRFVvcllPdmVXZUVPY2pIZzJtaEVTelEvK3VvaEJmTGRCdDNPbmlZNkpoK2hyVkNsamFXTWtMaFlWU3p1MzJqckVmcEpUR0JSWjBLNnZDbG04dXBwRTFQQ2RsYzBFZ3NyRFNncjVDM3NaclpOVnh0ZmpVRDdSbHBrZGVhK0dYQUN6cnRJa2p4VWlrcVJqbWJBeEhtc3RMWE8zSm1Vc2owU3JWVm9WMUxpU1JjSUhPdXVLbEdUTVJIN2QrYVd5UkpVYVNWTk5wc2pPRTFleVRNWXhRcjdFY3AyWFRGTU1oVVN0NU02YUVtVGxlOHJKOGtRUDdSUFFaQmttWEliN0ZEQTU4TGxsUnRMVXFjWDd4Q3V0dmRLRWVzVGdYdkZxNmtWdEtjV2drbUhIbGtSaUZPWjJKaGVWcGZlSUdnbkc4dmc5VVJpc2hnbGJjZCtMZ2FqMERqMWxPWDNKTE1qVGhuSFhSVkdSam1EU0JVSXg3emJINm1lS2NSZ3hZZ3FLZXdXaDFuWTBYQUVJVlZnSTJtZ3FZZDVSbm5NQTV5U0doamY1Z1N0cDlUSXk4SnV4SjhFVHVpSDFNbU1FeVJzbXBjd2xFMmFLVWhpSHNMMVFVZ0xhQ2tMaEVjeVIwSWFHdlNHUXU3a0RrdnJnYjZqcEpQL0RoWHRQVUZLallScitndGREbGVUTC9ReERTM0lCNU92Zkd1ZUlsWlA5VGE2b2QvRnRVS2ZNZFFYR2xIL0ZXekNINzJmeU8ybzlkbGx1K0duM1JVNUNuRTk4ZlB1cG9qRkRlM0dtaElJUkgvdktRamFCMXN4QWFET0IzNHlkdTlSQ0F3K0hHbmhEZWE4Ym56WWtyQVBSMkVMaFZxRzhoZFF3enBhK3lacVE5enBjQ2Z4TWlCYk5JZXV3ZUlDcm4vNzZpekpuVmV3S3A4b0ZCZ0Y4ZWV0NWlWdkwvQnUvamlXT05WVkhlRTBiU1N2cE51VUtPQ1llcW5LMVhrdkx5eEFTVzNiZm82OXFoYlM2QW5Oa1pQc1djbU1sN1FYcjk0ZFUveXBGRU15bThOM0VqTUVMNFF3ek5rcUpiSVZmdnhHSVdjSFZ4dmw0ajBabVRMRXRsVlFOMDdFZU1xcWFYd0xrN0tlUUU3NW5SbHRWRzJ2elNJV3RyVjY4WkVnNlloUHZpWENYYmRieFdER3R1RFpxV1pwY3h4QzFzeUN0UGpHMjVFa2tENmgvK3dKL044eU0rQ0x6RTJvNVZ3S2MvVEpydy9wbEFOYXlXeXRGa0JPSDFHTlp4VG5jYmVsWTY1bElZeGE1UlZTUmJrZzhoN0QrdUtxcjAwYm9wUElhWnNlNkY5WGh4MC9GNzMyS2dkcjZTRnFtSmVsYU8zNEdmOHU0VUlhRHpHeHRtNlJTcGdhQktnYkQ2T1dLVEorYlJ0T3lXSVBDUVp1T2U5TmFlemVDeG9qempZeks5ZGFrUDRMNFlhMFBnMGZJUnlKYSt0MnMxcG96eUFrNldlbVhYMU82K2JpTDZVVmV3ZHp4Ynp4anZCbmxwZUxKZkZXN2d5WVJWN3FwVTlZSWp4a0toUlJrS1cvQ3VMZllzY3BqMDU3TVdOWEkyRm1UcFlkcmN0M1JiVEtVQlBQUHZpSktYYXExYWJhZFlyNHVWbGxXMzJXRlhiSTYrZGJCck4zS1diUUZSRW1Pa0RnMUp1N3hNL05TckdQbEwzTzNZeThKaWtkY1dGRlEvL3h0REtvYjBVS2NTendQMlhSb3VqR1dLc2FxOWI2NVk1Y0F4MXh5NFJjY3hQYmhJdTNtQ2dGVCtjbzcydzV3bWRGNEtWV3FNLzJZZHpFT1JjcE1NN3JFR1N2ZVdBbjFNd3I2NmZ0R1hiWldGNWs3Z1RjbzIyTEVkV01PZWVMOElLYmcraCt5NDVwQmxZMi92T05ZdW5QVmdxYXVsNXo5V29kc0xHMXVkOXd1WE1wSi9ycjFnNGhvcmd1UndrendPNHlSazlXWVpsWXNOa3djd2pCZWg0d3VoSG9WY3VzdW1SRU51dUZtWStTdktuT0hGVkNvbmlOaUJuRC8rNnMrU2Z6NjRmTE9FY3ZzdUdObEpxNU5lM2hFL3c2dHcxTVFTV0VBMnFFclljVUxFQ3lMemZIMVJGVmVjb2czWUR4c2VCWDJQOHJxNi9JVHpTN0ZpdXQ5V3Q4eGwyQ2ZpaWI1bjJROFVLc3lGSXlzNnpmS0Noc1duckJBQjB0WXBueXdvc00wOXYwR244YXpsQUx1UCsyeWpyUktjaWY3bFgyYStEMTY1QkRxMWRBZWI5azNtOEMwZTByMjl2TmtRdDJmNjVKN3pHaWtmNDVwdEU4T0FRVmJ2TkJkbEdyMm5TMEhCMTJZR1JOSU1WanE2cGpOckJZMFE4Q2NNZjhXSnpSOTFMT0E4RmdPT3AxU2xnOTJIUTcwakNiU21yREtTTTRHZCtkVmpjNmpBbmVNVnZ0dkRUaWEvZkplQTBBS3VsY05HWCtEQnlrN3I0U0hoQ0ExaytuZUpPOXNpMlVjcmVFWVNqWnFIRHpxNGU2ZXYrNUtLVU9PNlpOc05aV2laaThHSG5jZkNDc0xGY2JmQllHcEdETUhvSzk3UXpXUlh2emRRRi9JUVlIS1o1OUplOVpaMkUwN3FDUVkzbWc5T2IrbEdsZHo4QWZYNUFmWFNIK1NnMGFEenFTaFVaTjFoQm9rMWU5Rmw4YVBWaWxkTnJhb1huMThrM0E1NUQxSHN0MU0xUklnSGdCM3VSR3hhZCtyRVIxTzMxT2dIN2xvT3ZSV0N1UzQ3N1lQc2FBek5nSmdNcEdGWUxNRGhaNGFXbWJBR3JMeWFHVW9XNGJDZ1RRYzIxTHYzbVNaejg2U2NjT1ViNlY2Zksvb0VNKzNURnZyVG1jVlZaWGEySnNGMmR3NGoxNTdkZGhaejgvTGJJS3pIVHdIb2xXRWN4eG5VQ1E5c3NQdWxINlpVeWFLMG9UcXhmbVZkMjRHK3p3V0xsSkk2a3ExT0luNno3clBPWk1KdHNYT3pLQndWRm0rdUJxWTFnb1Zua2VaUVdNczdqbG9hTzJTUmxCZDdaK0M1TmxSVGFkV2FHcm9oTXI4RkRpelVKNjcrN3VlUDNrTWxQdnR4NDBvT2ZOMXpSSldDb01Vbk1YNGJSMHRvMVd1My85S2x4L0NxNjlBaXBBSytydEtwTjlNczV5MHpNOW02N1BBV2p0c1RwdmJmVE1zVG52cXZPbDBPZTl4Zkh4Mit1U0xidzdhNDZyTDlpcFJha0NaYjVXNzRodlhmZWQ3MS95aXdrMDMvR0FmdHc4MkdIUExiWlYrOVp0NXFsV3BVYWRXdlEwYU5HazBVYk5XTGRxMGU2TkRsMDZUVERIWk1SdE5NMVczSG0rOTgzd3h1R1lzMjNINzZ5K0RSeUxuUkZCcC9qNkR5UUpBQ0VaUWpKMzZ6SVhMNHd1RUlyRkVLcE1ybENwMUp1dStWcWMzR0UxbWk5Vm1kemhkMVlOb2RBYVR4ZVp3ZVJaMitaWUNZYkw2VmlLU1hOVi9NV2wzRHh6MjdVZWpVMGVPblRoMTVweWlVQnVrRU05THBVcU5XTnVnR2kyV1VlZFNqM2ZXT1VIR01SaGRtV3k5bzI4SUZBWkhJRkZvREJhSEp4QkpaQXExWnovWjBudno3c08zRjE4OGlFNngyTzA4UGh1aWo4UklMSkdXa1pXVFZ5aFdWRkpXVVZWVDF5REdOYmR2WUVpVWk1NlE3WG9XYWREUTNLSkowMDZSR3pYdWpPcUFyMm5WSmFwTm03YTJkcTNzV1d3T2w4Y1hDRVZpOGwxMHdienJ2NHpWR3ExT2J6Q2F6SFpnUWRqZXdkSEoyY1hWemQzRHN6L0YyOGZYRDBDRWlXblJIdi9NY1QyZmQ1RUFDbkJ3OGZBSkNJbUlTVWpKeUNrb1NXUUtsVVpuTUZrQUNNRUlpckZiNFlyTDR3dUVJckZFS3BPM3luVXIrMnV0VW11ME9uMWIzQmhOTFhKdnNkcnNEcWVMUm1jd1N6eXdPVnllaFYyK3BVQm9KUkpMcERKNzloMDRkT1RZaVZObnpsMVU5U2lIRkxCU3BVYXNiVkNORnRPNTFPTUVhVENtQTB5Mk9lMWc3MzN3MFNlZmtTZzBCb3ZERTRna01vVktvek9ZTERhSHkrTUxoQ0t4UkZwR1ZrNWVRVkZKV1VWVlRWMURVMHRiUjFkUDM4RFF5TmpFMU16Y3d0TEsyc2JXanNsaWM3Zzh2a0FvRWt1a01ybENxVkpydERxOXdXZ3kyNEVGWVhzSFJ5ZG5GMWMzZHc5UEwyOGZYejhBRVNhbVJXM211Sjd2NThXUmtCVlYwdzNUc2gzWDh5VlpVVFhkTUMwQUVTYVUyWTdyK1VFWXhVbWE1VVZaMVUzYjljTTR6Y3U2N2NkNWFicGhXcmJqZW90ZGZ4bUVxeWhPMG14di8rRHc2UGprOU96OEF1YW93R1ZWay9XR05pM3JMbnN1NURCZVRkdDM3ejk4L1BRWmlVSmpzRGc4Z1VnaVU2ZzBPb1BKWW5PNFBMNUFLQkpMcEdWazVlUVZGSldDV0ZaUlZWUFgwQ1JNUnFhYWV2cE15YlkxTWpZeE5UTzNzT1FZaG9LQkh4ZGtHUmJKTDR3eE0wTUtLVEF5WTN6TWtLb0dnbVZnVjhhNWxhMk9pVWJkMjYydEQwQmlzVklzd1Q5dFRFOUxINDdvS2hHUlcvNmhyVEYxcFpUd1E2R05DWGNVTU5FVU5xTkVvcE41N2l5M2htRzlWZzBZdjlDaTRQbkcwSkZBMlZKcUJ5V3VDMVBCOVBxaTFYZ052UVVrcmJuQllSVjRvYkdtY2dRMzdXa1pBamN3bjlrV2JpMjJ6aExWcTVwenBEcmRPVmJuU3FGNnRkaTZzNmpWenpKM2hNVHE0MFBoa1Y4MENwSWVwYmNSU0hnOTJXNjhJSCs4OC83dXlOUXVabDliTDNXN0svVGpKalFUUURURjc1U3JTdmd3M2lBVXRMWFUrYU5rcW1ZN1BmeUNQc3Q4SFluUll4REJwTkZPQlZOdEJFVzczdFoyNG9zMjkxdWJ3M3NyMkh1NFpHVzQ1bGlFQmJ2YWg2NlVtNzYvbEhXQlFqMkxEQ0plZlBSVDhWUWZjZCszK21TQ2dpKzJ5VGFzOGRrSmZRa1U5VVY2VDhmc3hTN1lUUGZpSVJGWlNCa1pXU0gzZVVibWRKL0w1bktmYmRLVUhHVzJ0N084VE9yNzM0OUIvYkEyRGVKbzQ0cnRRbk4wNUI3WmJuS3hTL3U4WVlPdHJxcE42algyQVlEb1BMKzB6Wm5QYXdmNkY2WDJxVTVBZkxrTjh3TFpCVmgzMEthU09wL04raEpDcU1pU2JpbGU1WUZ1V0s1Unl0WnhBUENBbmxWbytkYllzVTVpOHptVTN6aVpOWFdaa0ZFbFlNWkpJTXdVL1ZlVzJMY0pkaFJqcTk4L2ZNWDRlNzJ2UFJvSjgzUTlsZ2R4T05UV3BMb1pkSHhma3dZUVlVSmR4aU1xT0FPOHBGUzlwU0c3OW1YNXNZemFub3F4QytQU2MyTk5jclQyZXZCRjNIY1JXM3RCY3ZYWkdwOXFnYlZ4UG1pZzBhVnNkUS9BaExxTUM2bTBpYTNzQUlnd29TN2pRaW9kVS9rQkVHRkNYY2FGL0U4OTBIai9aTTR6L3pUMHZjT01CT0hzenZQQmloZ3NrM0IvWGg3VElZbytDVWNxb05BcnFJL3dzSE9NUW5qQUR3c29NK3lCNjZSOG5RZW5jbHY2ZmF1VE1EWWxuNnRoU3ZFZzdyb2xNeGZLMXFqTjFHK2U2c1I0bmF1TzVXdXVoeGwwbUYvYVJRQk1ZT2Q3cEl0anh1eVlwREdoTHVNUmgxc3FiV0tyT1FBaWZFWWV3ckl6NXc0ZStMS2Q0aG55blFmOEtiM3NwWXlVT2RCUEcwMXMraHRuK3ZjalhHb2orV253Zm55U2xiMU1EbFF1cldNcU9BaVQ1L1FiWmtJV3RaM3d0YWxMTm5DNVZOL1dKbXZaZVJkdCtpR0h3Uzc3b3ExSkdpSk1SbjBaZHE5N2xjbDErWEpNbmRIWGtqUzBXMGJFQ2RXbVVYTXBiV0lyT2dDZW9ZZENiZXJJQXVveUxzYjhrTm8yS1cxaVJ6NEFFSjNteDRodU8rVVFqcXh3dVpCS205aEtEb0FJRStveUxxVFNabUcvekgyUjFZNGRGWUdveTdpUVNwdlk2aDRBRVNiVVpWeElwVTFzWldjTExvUXptS3hsdHoyRXVrYWpidFloVXRjMDRobjVqaThIemhSS1NJUFRTakhHR0dPTXB3Y1JoQlBNTDJQNWRYUjFVM3VwdjZ0VzNjaFh0N1FTbkhQT09SZENpQnlIUndnaGhCQkNDQ0Z6TGxwS0thV1VVa29wcFZSS3FVbjlwQ1BkYkhOQkthV1VVa3BwclZkNnBqRkowRnBycmJYV3hoaGpqREhHR0dPTU1kWmFhNjIxMWxwcnJiMnd5NFVIdnRVbjNCOW12NFJJamJYMHJpeTArZjE0dVhmdkZITWRlU0diaXhnOGkxeVNjd0Fnd29TNmpBdXB0SW10NEFDSU1LRXU0MElxYldJekxocENDQ0dFRUVJSUlZUUlJWVFRUWdnaGhCQkNHR09NTWNZWVk0d3h4ckFnaEJCQ0NDR0VFRUlJb1pSU1NpbWxsRkpLS1hWWDdnd1FZVUpkeG9WVTJnejdrcWY1UVVKRjBud3NGMjNaeWtOcU5LZGVwUTVsblhFeEdQVDlvWjV5dWZUanJVbllqVGdLUUpvTmxnMGxaZGFGbFNlMjd2bkhFWHlhSld2ME9OOUFLN0JjVmx3cVppMTVRT3VXWmpNK1QrSkR3TDhNNksvZkZDSHZ2ajZLSGtnWmVsbm5IZ1dZQmthZkZ1ZENQaStGWnpLTTk1VUF2NUdILy8vK3hlTGJDK215Tld6b0JuRStWMWNzb0ZzUlI0ZHEzbWRwVWRheU5YT3Y2dmRSanVIK3BCKzN6S2VmdUd5b2F1dW54bVlQK1Q0QjVnSUFCNG9VUEFjQUFNMXhvTWdCVUxCY0xuZk1Gb2hnaUVCQlNRVmh6U1U5a29HUmllMFE3WTFoQ1NvMmRGd2lHZExiUTgrVk80NlRmdnQ5Yy9SM2VQZTFlNnRmSGZ2ZGo3dUtKYUNIdzdlL2FyamVPeW9BQUFBPSkgZm9ybWF0KCd3b2ZmMicpO2ZvbnQtd2VpZ2h0Om5vcm1hbDtmb250LXN0eWxlOm5vcm1hbDt9PC9zdHlsZT48L2RlZnM+PGcgaWQ9ImtlaXRoLWRpYWdyYW1fc3Byb3R0eV8kcm9vdCRObWFpbl9tYWluIj48ZyBpZD0iUjQ0MDk2ODU3OCI+PHJlY3Qgd2lkdGg9IjI3MC44MDAwMiIgaGVpZ2h0PSI5NS45NDM4MiIgcng9IjgiIHJ5PSI4IiBzdHJva2U9InJnYigxOTAsMTkwLDE5MCkiIGZpbGw9InJnYigyNTUsMjU1LDI1NSkiIHN0eWxlPSJvcGFjaXR5OiAxOyIvPjxnIHRyYW5zZm9ybT0idHJhbnNsYXRlKDYsNikiPjxnIHRyYW5zZm9ybT0idHJhbnNsYXRlKDkwLjQsMCkiPjxnIGlkPSJSNDQwOTY4NTc4JFIzMDQyMDczNjckUjEyNjI4NjQ2MTIkUjEwMzYwNzg5NzYiPjx0ZXh0IHg9IjAiIHhtbDpzcGFjZT0icHJlc2VydmUiIHk9IjguNDM5OTkzIiB0ZXh0TGVuZ3RoPSI3OC42NjY2NyIgbGVuZ3RoQWRqdXN0PSJzcGFjaW5nQW5kR2x5cGhzIiBzdHlsZT0iZG9taW5hbnQtYmFzZWxpbmU6IG1pZGRsZTsgZm9udC1mYW1pbHk6IG92ZXJwYXNzLCBzYW5zLXNlcmlmOyBmb250LXNpemU6IDEzLjMzMzNweDsgb3BhY2l0eTogMTsiPkNvbnRyb2xMb29wPC90ZXh0PjwvZz48L2c+PC9nPjxnIGlkPSJSNDQwOTY4NTc4JFIxNjUyMTk3NjQ3Ij48ZyBpZD0ia2VpdGgtZGlhZ3JhbV9zcHJvdHR5XyRyb290JE5tYWluX21haW4kTm1haW5fc2Vuc29yIiB0cmFuc2Zvcm09InRyYW5zbGF0ZSg2LCA2My45NDM4MjA5NTMzNjkxNCkiPjxnIGlkPSJSMTk3OTg5MzM0MSI+PHJlY3Qgd2lkdGg9IjU0LjY2NjY2OCIgaGVpZ2h0PSIyNi44Nzk5ODYiIHJ4PSI4IiByeT0iOCIgc3Ryb2tlPSJyZ2IoMTkwLDE5MCwxOTApIiBmaWxsPSJyZ2IoMjQyLDI0MiwyNDIpIiBzdHlsZT0ib3BhY2l0eTogMTsiLz48ZyB0cmFuc2Zvcm09InRyYW5zbGF0ZSg2LDYpIj48Zz48ZyBpZD0iUjE5Nzk4OTMzNDEkUjE1NDMzNTEyODMkUjEwNzQ2MDEwMDgkUjk5OTk1ODA1NyI+PHRleHQgeD0iMCIgeG1sOnNwYWNlPSJwcmVzZXJ2ZSIgeT0iOC40Mzk5OTMiIHRleHRMZW5ndGg9IjQyLjY2NjY2OCIgbGVuZ3RoQWRqdXN0PSJzcGFjaW5nQW5kR2x5cGhzIiBzdHlsZT0iZG9taW5hbnQtYmFzZWxpbmU6IG1pZGRsZTsgZm9udC1mYW1pbHk6IG92ZXJwYXNzLCBzYW5zLXNlcmlmOyBmb250LXNpemU6IDEzLjMzMzNweDsgb3BhY2l0eTogMTsiPlNlbnNvcjwvdGV4dD48L2c+PC9nPjwvZz48L2c+PGcgaWQ9ImtlaXRoLWRpYWdyYW1fc3Byb3R0eV8kcm9vdCRObWFpbl9tYWluJE5tYWluX3NlbnNvciQkUDE5ODY1OTA5NzMiIHRyYW5zZm9ybT0idHJhbnNsYXRlKDUxLjM2NjY2ODcwMTE3MTg3NSwgOSkiPjxnIGlkPSJSMTcxNTM0MzY4NCI+PHBhdGggZD0iTTAsMEw4LDRMMCw4WiIgc3Ryb2tlPSJibGFjayIgZmlsbD0icmdiKDAsMCwwKSIgc3R5bGU9Im9wYWNpdHk6IDE7Ii8+PC9nPjxnIGlkPSJrZWl0aC1kaWFncmFtX3Nwcm90dHlfJHJvb3QkTm1haW5fbWFpbiRObWFpbl9zZW5zb3IkJFAxOTg2NTkwOTczJCRMMTUxNTk4OTEyOSIgdHJhbnNmb3JtPSJ0cmFuc2xhdGUoMTAsIC0xMC41MDM4MjYxNDEzNTc0MjIpIj48ZyBpZD0iUjEzMjUwMzg4OTUiPjx0ZXh0IHg9IjAiIHhtbDpzcGFjZT0icHJlc2VydmUiIHk9IjYuNzUxOTEzIiB0ZXh0TGVuZ3RoPSI1LjMzMzMzMzUiIGxlbmd0aEFkanVzdD0ic3BhY2luZ0FuZEdseXBocyIgc3R5bGU9ImRvbWluYW50LWJhc2VsaW5lOiBtaWRkbGU7IGZvbnQtZmFtaWx5OiBvdmVycGFzcywgc2Fucy1zZXJpZjsgZm9udC1zaXplOiAxMC42NjY3cHg7IG9wYWNpdHk6IDE7Ij55PC90ZXh0PjwvZz48L2c+PC9nPjwvZz48ZyBpZD0ia2VpdGgtZGlhZ3JhbV9zcHJvdHR5XyRyb290JE5tYWluX21haW4kTm1haW5fcHJvY2VzcyIgdHJhbnNmb3JtPSJ0cmFuc2xhdGUoOTkuNzMzMzM3NDAyMzQzNzUsIDYzLjk0MzgyMDk1MzM2OTE0KSI+PGcgaWQ9IlIxNTQ2MDAxNTI0Ij48cmVjdCB3aWR0aD0iNjAiIGhlaWdodD0iMjYuODc5OTg2IiByeD0iOCIgcnk9IjgiIHN0cm9rZT0icmdiKDE5MCwxOTAsMTkwKSIgZmlsbD0icmdiKDI0MiwyNDIsMjQyKSIgc3R5bGU9Im9wYWNpdHk6IDE7Ii8+PGcgdHJhbnNmb3JtPSJ0cmFuc2xhdGUoNiw2KSI+PGc+PGcgaWQ9IlIxNTQ2MDAxNTI0JFIxMzg2NDA2NjUxJFIyMDgwMzg4NTczJFIxMzUxMTk4NTA3Ij48dGV4dCB4PSIwIiB4bWw6c3BhY2U9InByZXNlcnZlIiB5PSI4LjQzOTk5MyIgdGV4dExlbmd0aD0iNDgiIGxlbmd0aEFkanVzdD0ic3BhY2luZ0FuZEdseXBocyIgc3R5bGU9ImRvbWluYW50LWJhc2VsaW5lOiBtaWRkbGU7IGZvbnQtZmFtaWx5OiBvdmVycGFzcywgc2Fucy1zZXJpZjsgZm9udC1zaXplOiAxMy4zMzMzcHg7IG9wYWNpdHk6IDE7Ij5Qcm9jZXNzPC90ZXh0PjwvZz48L2c+PC9nPjwvZz48ZyBpZD0ia2VpdGgtZGlhZ3JhbV9zcHJvdHR5XyRyb290JE5tYWluX21haW4kTm1haW5fcHJvY2VzcyQkUDExMDY2NDUzODQiIHRyYW5zZm9ybT0idHJhbnNsYXRlKC00LjY5OTk5OTgwOTI2NTEzNywgOSkiPjxnIGlkPSJSMTQxODk4NjcyNyI+PHBhdGggZD0iTTAsMEw4LDRMMCw4WiIgc3Ryb2tlPSJibGFjayIgZmlsbD0icmdiKDAsMCwwKSIgc3R5bGU9Im9wYWNpdHk6IDE7Ii8+PC9nPjxnIGlkPSJrZWl0aC1kaWFncmFtX3Nwcm90dHlfJHJvb3QkTm1haW5fbWFpbiRObWFpbl9wcm9jZXNzJCRQMTEwNjY0NTM4NCQkTDE4MzI0Mjk1OTciIHRyYW5zZm9ybT0idHJhbnNsYXRlKC03LjMzMzMzMzQ5MjI3OTA1MywgLTEwLjUwMzgyNjE0MTM1NzQyMikiPjxnIGlkPSJSNzAwOTM1NTQxIj48dGV4dCB4PSIwIiB4bWw6c3BhY2U9InByZXNlcnZlIiB5PSI2Ljc1MTkxMyIgdGV4dExlbmd0aD0iNS4zMzMzMzM1IiBsZW5ndGhBZGp1c3Q9InNwYWNpbmdBbmRHbHlwaHMiIHN0eWxlPSJkb21pbmFudC1iYXNlbGluZTogbWlkZGxlOyBmb250LWZhbWlseTogb3ZlcnBhc3MsIHNhbnMtc2VyaWY7IGZvbnQtc2l6ZTogMTAuNjY2N3B4OyBvcGFjaXR5OiAxOyI+eDwvdGV4dD48L2c+PC9nPjwvZz48ZyBpZD0ia2VpdGgtZGlhZ3JhbV9zcHJvdHR5XyRyb290JE5tYWluX21haW4kTm1haW5fcHJvY2VzcyQkUDE2NDEzNTkyNzYiIHRyYW5zZm9ybT0idHJhbnNsYXRlKDU2LjcwMDAwMDc2MjkzOTQ1LCA5KSI+PGcgaWQ9IlI4NzkzNzIxODUiPjxwYXRoIGQ9Ik0wLDBMOCw0TDAsOFoiIHN0cm9rZT0iYmxhY2siIGZpbGw9InJnYigwLDAsMCkiIHN0eWxlPSJvcGFjaXR5OiAxOyIvPjwvZz48ZyBpZD0ia2VpdGgtZGlhZ3JhbV9zcHJvdHR5XyRyb290JE5tYWluX21haW4kTm1haW5fcHJvY2VzcyQkUDE2NDEzNTkyNzYkJEwyMjYyNTA2OTkiIHRyYW5zZm9ybT0idHJhbnNsYXRlKDEwLCAtMTAuNTAzODI2MTQxMzU3NDIyKSI+PGcgaWQ9IlIyNDMzMTQ3OSI+PHRleHQgeD0iMCIgeG1sOnNwYWNlPSJwcmVzZXJ2ZSIgeT0iNi43NTE5MTMiIHRleHRMZW5ndGg9IjUuMzMzMzMzNSIgbGVuZ3RoQWRqdXN0PSJzcGFjaW5nQW5kR2x5cGhzIiBzdHlsZT0iZG9taW5hbnQtYmFzZWxpbmU6IG1pZGRsZTsgZm9udC1mYW1pbHk6IG92ZXJwYXNzLCBzYW5zLXNlcmlmOyBmb250LXNpemU6IDEwLjY2NjdweDsgb3BhY2l0eTogMTsiPnk8L3RleHQ+PC9nPjwvZz48L2c+PC9nPjxnIGlkPSJrZWl0aC1kaWFncmFtX3Nwcm90dHlfJHJvb3QkTm1haW5fbWFpbiRObWFpbl9hY3R1YXRvciIgdHJhbnNmb3JtPSJ0cmFuc2xhdGUoMTk4LjgwMDAxODMxMDU0Njg4LCA2My45NDM4MjA5NTMzNjkxNCkiPjxnIGlkPSJSMTQ2NjExNTA3MSI+PHJlY3Qgd2lkdGg9IjY2LjY2NjY3IiBoZWlnaHQ9IjI2Ljg3OTk4NiIgcng9IjgiIHJ5PSI4IiBzdHJva2U9InJnYigxOTAsMTkwLDE5MCkiIGZpbGw9InJnYigyNDIsMjQyLDI0MikiIHN0eWxlPSJvcGFjaXR5OiAxOyIvPjxnIHRyYW5zZm9ybT0idHJhbnNsYXRlKDYsNikiPjxnIHRyYW5zZm9ybT0idHJhbnNsYXRlKDAuMDAwMDAxOTA3MzQ4NiwwKSI+PGcgaWQ9IlIxNDY2MTE1MDcxJFIxMjQ2Mjk5NDE2JFIyMDIyNzY3NjA5JFI4NTAyNjg2MTciPjx0ZXh0IHg9IjAiIHhtbDpzcGFjZT0icHJlc2VydmUiIHk9IjguNDM5OTkzIiB0ZXh0TGVuZ3RoPSI1NC42NjY2NjgiIGxlbmd0aEFkanVzdD0ic3BhY2luZ0FuZEdseXBocyIgc3R5bGU9ImRvbWluYW50LWJhc2VsaW5lOiBtaWRkbGU7IGZvbnQtZmFtaWx5OiBvdmVycGFzcywgc2Fucy1zZXJpZjsgZm9udC1zaXplOiAxMy4zMzMzcHg7IG9wYWNpdHk6IDE7Ij5BY3R1YXRvcjwvdGV4dD48L2c+PC9nPjwvZz48L2c+PGcgaWQ9ImtlaXRoLWRpYWdyYW1fc3Byb3R0eV8kcm9vdCRObWFpbl9tYWluJE5tYWluX2FjdHVhdG9yJCRQMjEyNjA3MTE4NCIgdHJhbnNmb3JtPSJ0cmFuc2xhdGUoLTQuNjk5OTk5ODA5MjY1MTM3LCA5KSI+PGcgaWQ9IlIzNzcyMDQyMzUiPjxwYXRoIGQ9Ik0wLDBMOCw0TDAsOFoiIHN0cm9rZT0iYmxhY2siIGZpbGw9InJnYigwLDAsMCkiIHN0eWxlPSJvcGFjaXR5OiAxOyIvPjwvZz48ZyBpZD0ia2VpdGgtZGlhZ3JhbV9zcHJvdHR5XyRyb290JE5tYWluX21haW4kTm1haW5fYWN0dWF0b3IkJFAyMTI2MDcxMTg0JCRMNTMyOTA3NzY4IiB0cmFuc2Zvcm09InRyYW5zbGF0ZSgtNy4zMzMzMzM0OTIyNzkwNTMsIC0xMC41MDM4MjYxNDEzNTc0MjIpIj48ZyBpZD0iUjM0NTUwNzg2NSI+PHRleHQgeD0iMCIgeG1sOnNwYWNlPSJwcmVzZXJ2ZSIgeT0iNi43NTE5MTMiIHRleHRMZW5ndGg9IjUuMzMzMzMzNSIgbGVuZ3RoQWRqdXN0PSJzcGFjaW5nQW5kR2x5cGhzIiBzdHlsZT0iZG9taW5hbnQtYmFzZWxpbmU6IG1pZGRsZTsgZm9udC1mYW1pbHk6IG92ZXJwYXNzLCBzYW5zLXNlcmlmOyBmb250LXNpemU6IDEwLjY2NjdweDsgb3BhY2l0eTogMTsiPng8L3RleHQ+PC9nPjwvZz48L2c+PC9nPjxnIGlkPSJrZWl0aC1kaWFncmFtX3Nwcm90dHlfJHJvb3QkTm1haW5fbWFpbiRObWFpbl9yZWFjdGlvbl8wIiB0cmFuc2Zvcm09InRyYW5zbGF0ZSgzOSwgMjUuODc5OTg1ODA5MzI2MTcyKSI+PGcgaWQ9IlIyMDM0NTg0OTc0Ij48cGF0aCBkPSJNMCwwTDM5LDBMNDUsMTFMMzksMjJMMCwyMkw2LDExWiIgc3Ryb2tlPSJyZ2IoMTE1LDExNSwxMTUpIiBmaWxsPSJyZ2IoMTY2LDE2NiwxNjYpIiBzdHlsZT0ib3BhY2l0eTogMTsiLz48ZyB0cmFuc2Zvcm09InRyYW5zbGF0ZSg2LDApIi8+PC9nPjxnIGlkPSJrZWl0aC1kaWFncmFtX3Nwcm90dHlfJHJvb3QkTm1haW5fbWFpbiRObWFpbl9yZWFjdGlvbl8wJCRQNTA0MjE1NzU3IiB0cmFuc2Zvcm09InRyYW5zbGF0ZSg2LCAxMSkiPjxnIGlkPSJSMTc5NzgwOTcyOCI+PHJlY3Qgd2lkdGg9IjAiIGhlaWdodD0iMCIgc3Ryb2tlPSJyZ2IoMCwwLDApIiBmaWxsPSJyZ2IoMCwwLDApIiBzdHlsZT0ib3BhY2l0eTogMTsiLz48L2c+PC9nPjwvZz48ZyBpZD0ia2VpdGgtZGlhZ3JhbV9zcHJvdHR5XyRyb290JE5tYWluX21haW4kTm1haW5fbWFpbl9zaHV0ZG93biIgdHJhbnNmb3JtPSJ0cmFuc2xhdGUoNiwgMjcuODc5OTg1ODA5MzI2MTcyKSI+PGcgaWQ9IlI2OTI3MjAzMDkiPjxwYXRoIGQ9Ik05LDBMMTgsOUw5LDE4TDAsOVoiIHN0cm9rZT0iYmxhY2siIGZpbGw9InJnYigyNTUsMjU1LDI1NSkiIHN0eWxlPSJvcGFjaXR5OiAxOyIvPjwvZz48L2c+PGcgaWQ9ImtlaXRoLWRpYWdyYW1fc3Byb3R0eV8kcm9vdCRObWFpbl9tYWluJE5tYWluX3NlbnNvciQkRTEyMzAzNzQyOCI+PGcgaWQ9IlIxMzUzMzU3OTY5Ij48cGF0aCBkPSJNNjUuMzY2NjY4NzAxMTcxODgsNzYuOTQzODE3MTM4NjcxODhMOTUuMDMzMzQwNDU0MTAxNTYsNzYuOTQ0ODE3MTM4NjcxODgiIHN0cm9rZT0iYmxhY2siIGZpbGw9Im5vbmUiIHN0eWxlPSJvcGFjaXR5OiAxOyIvPjwvZz48L2c+PGcgaWQ9ImtlaXRoLWRpYWdyYW1fc3Byb3R0eV8kcm9vdCRObWFpbl9tYWluJE5tYWluX3Byb2Nlc3MkJEUxMjMzNDU0MDI3Ij48ZyBpZD0iUjI5MTgwNTQ1MCI+PHBhdGggZD0iTTE2NC40MzMzMzQzNTA1ODU5NCw3Ni45NDM4MTcxMzg2NzE4OEwxOTQuMTAwMDA2MTAzNTE1NjIsNzYuOTQ0ODE3MTM4NjcxODgiIHN0cm9rZT0iYmxhY2siIGZpbGw9Im5vbmUiIHN0eWxlPSJvcGFjaXR5OiAxOyIvPjwvZz48L2c+PGcgaWQ9ImtlaXRoLWRpYWdyYW1fc3Byb3R0eV8kcm9vdCRObWFpbl9tYWluJE5tYWluX21haW5fc2h1dGRvd24kJEUyMDU4NTQzMTI4Ij48ZyBpZD0iUjE2NTMyNzExMzciPjxwYXRoIGQ9Ik0yNCwzNi44Nzk5ODU4MDkzMjYxN0w0NSwzNi44ODA5ODU4MDkzMjYxNyIgc3Ryb2tlPSJibGFjayIgZmlsbD0ibm9uZSIgc3R5bGU9InN0cm9rZS1kYXNoYXJyYXk6IDMsIDE7IG9wYWNpdHk6IDE7Ii8+PC9nPjwvZz48L2c+PC9nPjwvZz48L2c+PC9nPjwvc3ZnPg==;" parent="1" vertex="1">
          <mxGeometry width="849.06" height="300" as="geometry" />
        </mxCell>
        <mxCell id="wRzPRa4af3Hkha_KK0-g-3" value="&lt;font style=&quot;font-size: 30px;&quot;&gt;1&lt;/font&gt;" style="ellipse;whiteSpace=wrap;html=1;aspect=fixed;fillColor=#f8cecc;strokeColor=#b85450;" parent="1" vertex="1">
          <mxGeometry x="230" y="160" width="50" height="50" as="geometry" />
        </mxCell>
        <mxCell id="wRzPRa4af3Hkha_KK0-g-4" value="&lt;font style=&quot;font-size: 30px;&quot;&gt;2&lt;/font&gt;" style="ellipse;whiteSpace=wrap;html=1;aspect=fixed;fillColor=#f8cecc;strokeColor=#b85450;" parent="1" vertex="1">
          <mxGeometry x="380" y="150" width="50" height="50" as="geometry" />
        </mxCell>
        <mxCell id="wRzPRa4af3Hkha_KK0-g-5" value="&lt;font style=&quot;font-size: 30px;&quot;&gt;3&lt;/font&gt;" style="ellipse;whiteSpace=wrap;html=1;aspect=fixed;fillColor=#f8cecc;strokeColor=#b85450;" parent="1" vertex="1">
          <mxGeometry x="540" y="160" width="50" height="50" as="geometry" />
        </mxCell>
      </root>
    </mxGraphModel>
  </diagram>
</mxfile>
